<?xml version="1.0" encoding="UTF-8"?>
<svg id="Layer_1" data-name="Layer 1" xmlns="http://www.w3.org/2000/svg" width="160" height="62" xmlns:xlink="http://www.w3.org/1999/xlink" viewBox="0 0 160 62">
  <defs>
    <style>
      .cls-1 {
        fill: none;
      }

      .cls-1, .cls-2, .cls-3, .cls-4, .cls-5, .cls-6, .cls-7 {
        stroke-width: 0px;
      }

      .cls-2 {
        fill: url(#_Безымянный_градиент_11);
        opacity: .7;
      }

      .cls-8 {
        clip-path: url(#clippath-4);
      }

      .cls-9 {
        clip-path: url(#clippath-7);
      }

      .cls-10 {
        clip-path: url(#clippath-8);
      }

      .cls-11 {
        clip-path: url(#clippath-6);
      }

      .cls-12 {
        clip-path: url(#clippath-5);
      }

      .cls-13 {
        clip-path: url(#clippath-9);
      }

      .cls-14 {
        clip-path: url(#clippath-10);
      }

      .cls-15 {
        opacity: .6;
      }

      .cls-4 {
        fill: #c8c7c7;
      }

      .cls-5 {
        fill: #be1e2d;
      }

      .cls-6 {
        fill: #c1272d;
      }

      .cls-7 {
        fill: #fff;
      }
    </style>
    <clipPath id="clippath">
      <polyline class="cls-1" points="160 -19 60 -19 60 -79 160 -79 160 -19"/>
    </clipPath>
    <clipPath id="clippath-4">
      <polyline class="cls-1" points="160 61 60 61 60 1 160 1 160 61"/>
    </clipPath>
    <clipPath id="clippath-5">
      <polyline class="cls-1" points="0 129 72 129 72 57 0 57 0 129"/>
    </clipPath>
    <clipPath id="clippath-6">
      <polyline class="cls-1" points="72 129 144 129 144 57 72 57 72 129"/>
    </clipPath>
    <clipPath id="clippath-7">
      <polyline class="cls-1" points="144 129 216 129 216 57 144 57 144 129"/>
    </clipPath>
    <clipPath id="clippath-8">
      <polyline class="cls-1" points="0 57 72 57 72 -15 0 -15 0 57"/>
    </clipPath>
    <clipPath id="clippath-9">
      <polyline class="cls-1" points="72 57 144 57 144 -15 72 -15 72 57"/>
    </clipPath>
    <clipPath id="clippath-10">
      <polyline class="cls-1" points="144 57 216 57 216 -15 144 -15 144 57"/>
    </clipPath>
    <linearGradient id="_Безымянный_градиент_11" data-name="Безымянный градиент 11" x1="30" y1="57.74" x2="30" y2="6.88" gradientUnits="userSpaceOnUse">
      <stop offset="0" stop-color="red"/>
      <stop offset="1" stop-color="red" stop-opacity="0"/>
    </linearGradient>
  </defs>
  <g class="cls-15">
    <g class="cls-8">
      <g class="cls-12">
        <polyline class="cls-4" points="63.24 57 62.82 57 60 59.82 60 60.24 63.24 57"/>
        <polyline class="cls-4" points="69.24 57 68.82 57 64.82 61 65.24 61 69.24 57"/>
        <polyline class="cls-4" points="72 59.82 70.82 61 71.24 61 72 60.24 72 59.82"/>
      </g>
      <g class="cls-11">
        <polyline class="cls-4" points="75.24 57 74.82 57 72 59.82 72 60.24 75.24 57"/>
        <polyline class="cls-4" points="81.24 57 80.82 57 76.82 61 77.24 61 81.24 57"/>
        <polyline class="cls-4" points="87.24 57 86.82 57 82.82 61 83.24 61 87.24 57"/>
        <polyline class="cls-4" points="93.24 57 92.82 57 88.82 61 89.24 61 93.24 57"/>
        <polyline class="cls-4" points="99.24 57 98.82 57 94.82 61 95.24 61 99.24 57"/>
        <polyline class="cls-4" points="105.24 57 104.82 57 100.82 61 101.24 61 105.24 57"/>
        <polyline class="cls-4" points="111.24 57 110.82 57 106.82 61 107.24 61 111.24 57"/>
        <polyline class="cls-4" points="117.24 57 116.82 57 112.82 61 113.24 61 117.24 57"/>
        <polyline class="cls-4" points="123.24 57 122.82 57 118.82 61 119.24 61 123.24 57"/>
        <polyline class="cls-4" points="129.24 57 128.82 57 124.82 61 125.24 61 129.24 57"/>
        <polyline class="cls-4" points="135.24 57 134.82 57 130.82 61 131.24 61 135.24 57"/>
        <polyline class="cls-4" points="141.24 57 140.82 57 136.82 61 137.24 61 141.24 57"/>
        <polyline class="cls-4" points="144 59.82 142.82 61 143.24 61 144 60.24 144 59.82"/>
      </g>
      <g class="cls-9">
        <polyline class="cls-4" points="147.24 57 146.82 57 144 59.82 144 60.24 147.24 57"/>
        <polyline class="cls-4" points="153.24 57 152.82 57 148.82 61 149.24 61 153.24 57"/>
        <polyline class="cls-4" points="159.24 57 158.82 57 154.82 61 155.24 61 159.24 57"/>
      </g>
      <g class="cls-10">
        <polyline class="cls-4" points="65.24 1 64.82 1 60 5.82 60 6.24 65.24 1"/>
        <polyline class="cls-4" points="71.24 1 70.82 1 60 11.82 60 12.24 71.24 1"/>
        <polyline class="cls-4" points="72 5.82 60 17.82 60 18.24 72 6.24 72 5.82"/>
        <polyline class="cls-4" points="72 11.82 60 23.82 60 24.24 72 12.24 72 11.82"/>
        <polyline class="cls-4" points="72 17.82 60 29.82 60 30.24 72 18.24 72 17.82"/>
        <polyline class="cls-4" points="72 23.82 60 35.82 60 36.24 72 24.24 72 23.82"/>
        <polyline class="cls-4" points="72 29.82 60 41.82 60 42.24 72 30.24 72 29.82"/>
        <polyline class="cls-4" points="72 35.82 60 47.82 60 48.24 72 36.24 72 35.82"/>
        <polyline class="cls-4" points="72 41.82 60 53.82 60 54.24 72 42.24 72 41.82"/>
        <polyline class="cls-4" points="72 47.82 62.82 57 63.24 57 72 48.24 72 47.82"/>
        <polyline class="cls-4" points="72 53.82 68.82 57 69.24 57 72 54.24 72 53.82"/>
      </g>
      <g class="cls-13">
        <polyline class="cls-4" points="77.24 1 76.82 1 72 5.82 72 6.24 77.24 1"/>
        <polyline class="cls-4" points="83.24 1 82.82 1 72 11.82 72 12.24 83.24 1"/>
        <polyline class="cls-4" points="89.24 1 88.82 1 72 17.82 72 18.24 89.24 1"/>
        <polyline class="cls-4" points="95.24 1 94.82 1 72 23.82 72 24.24 95.24 1"/>
        <polyline class="cls-4" points="101.24 1 100.82 1 72 29.82 72 30.24 101.24 1"/>
        <polyline class="cls-4" points="107.24 1 106.82 1 72 35.82 72 36.24 107.24 1"/>
        <polyline class="cls-4" points="113.24 1 112.82 1 72 41.82 72 42.24 113.24 1"/>
        <polyline class="cls-4" points="119.24 1 118.82 1 72 47.82 72 48.24 119.24 1"/>
        <polyline class="cls-4" points="125.24 1 124.82 1 72 53.82 72 54.24 125.24 1"/>
        <polyline class="cls-4" points="131.24 1 130.82 1 74.82 57 75.24 57 131.24 1"/>
        <polyline class="cls-4" points="137.24 1 136.82 1 80.82 57 81.24 57 137.24 1"/>
        <polyline class="cls-4" points="143.24 1 142.82 1 86.82 57 87.24 57 143.24 1"/>
        <polyline class="cls-4" points="144 5.82 92.82 57 93.24 57 144 6.24 144 5.82"/>
        <polyline class="cls-4" points="144 11.82 98.82 57 99.24 57 144 12.24 144 11.82"/>
        <polyline class="cls-4" points="144 17.82 104.82 57 105.24 57 144 18.24 144 17.82"/>
        <polyline class="cls-4" points="144 23.82 110.82 57 111.24 57 144 24.24 144 23.82"/>
        <polyline class="cls-4" points="144 29.82 116.82 57 117.24 57 144 30.24 144 29.82"/>
        <polyline class="cls-4" points="144 35.82 122.82 57 123.24 57 144 36.24 144 35.82"/>
        <polyline class="cls-4" points="144 41.82 128.82 57 129.24 57 144 42.24 144 41.82"/>
        <polyline class="cls-4" points="144 47.82 134.82 57 135.24 57 144 48.24 144 47.82"/>
        <polyline class="cls-4" points="144 53.82 140.82 57 141.24 57 144 54.24 144 53.82"/>
      </g>
      <g class="cls-14">
        <polyline class="cls-4" points="149.24 1 148.82 1 144 5.82 144 6.24 149.24 1"/>
        <polyline class="cls-4" points="155.24 1 154.82 1 144 11.82 144 12.24 155.24 1"/>
        <polyline class="cls-4" points="160 1.82 144 17.82 144 18.24 160 2.24 160 1.82"/>
        <polyline class="cls-4" points="160 7.82 144 23.82 144 24.24 160 8.24 160 7.82"/>
        <polyline class="cls-4" points="160 13.82 144 29.82 144 30.24 160 14.24 160 13.82"/>
        <polyline class="cls-4" points="160 19.82 144 35.82 144 36.24 160 20.24 160 19.82"/>
        <polyline class="cls-4" points="160 25.82 144 41.82 144 42.24 160 26.24 160 25.82"/>
        <polyline class="cls-4" points="160 31.82 144 47.82 144 48.24 160 32.24 160 31.82"/>
        <polyline class="cls-4" points="160 37.82 144 53.82 144 54.24 160 38.24 160 37.82"/>
        <polyline class="cls-4" points="160 43.82 146.82 57 147.24 57 160 44.24 160 43.82"/>
        <polyline class="cls-4" points="160 49.82 152.82 57 153.24 57 160 50.24 160 49.82"/>
        <polyline class="cls-4" points="160 55.82 158.82 57 159.24 57 160 56.24 160 55.82"/>
      </g>
    </g>
  </g>
  <g>
    <rect class="cls-5" y="1" width="60" height="60"/>
    <polygon class="cls-2" points="60 17.32 0 61 0 1 60 1 60 17.32"/>
  </g>
  <path class="cls-7" d="m52.22,45.89l2.28,5.4c1.12,2.59,1.67,5.11,1.67,7.55v4.16H5.36v-4.16c0-2.41.55-4.93,1.67-7.55l2.28-5.4h42.9Zm-1.06,1.83H10.25l-2.02,4.93c-.87,2.08-1.29,3.79-1.29,5.07v3.5h47.66v-1.35c0-2.44-.48-4.85-1.48-7.3l-1.97-4.85Zm1.06-38.71v35.1H9.32V9h42.9Zm-1.61,1.79H10.93v31.49h39.68V10.79ZM13.69,34.43v-15.76c0-2.32.24-3.76.75-4.33.51-.58,1.81-.85,3.88-.85h24.89c2.08,0,3.37.27,3.88.85.51.58.75,2.01.75,4.33v15.76c0,2.29-.27,3.72-.79,4.3-.52.58-1.78.85-3.85.85h-24.89c-2.08,0-3.37-.27-3.88-.85-.51-.58-.75-2.01-.75-4.3Zm-.99,13.35h3.96v3.37h4.02v-3.37h3.9v3.37h4.06v-3.37h3.89v3.37h4.02v-3.37h3.92v3.37h4.02v-3.37h3.96v3.37h-3.93v3.51h3.93v3.3h-3.96v-3.3h-4.02v3.3h-3.92v-3.3h-4.02v3.3h-3.89v-3.3h-4.06v3.3h-3.9v-3.3h-4.02v3.3h-3.96v-3.3h3.93v-3.51h-3.93v-3.37Zm7.98,5.73h3.9v-1.72h-3.9v1.72Zm7.95,0h3.89v-1.72h-3.89v1.72Zm7.92,0h3.92v-1.72h-3.92v1.72Z"/>
  <g>
    <path class="cls-6" d="m65.4,15.32c.35-.34.77-.6,1.25-.81.48-.2,1.03-.3,1.65-.3s1.2.11,1.73.32c.52.22.97.52,1.34.91s.66.86.87,1.4.31,1.14.31,1.79-.1,1.24-.29,1.78-.47,1-.83,1.4-.79.69-1.3.91c-.51.22-1.08.33-1.71.33-.72,0-1.33-.12-1.84-.35-.51-.23-.94-.56-1.29-.98l.55-.61c.06-.06.12-.09.2-.09.08,0,.15.04.23.11.14.13.28.24.42.32.14.09.29.16.46.22s.34.1.53.13c.19.03.4.04.64.04.36,0,.7-.06,1.02-.18.32-.12.6-.3.85-.54.25-.24.45-.52.61-.86.16-.34.26-.73.3-1.17h-4.17v-1.06h4.16c-.05-.41-.16-.78-.31-1.1-.16-.32-.36-.6-.6-.82-.24-.22-.52-.39-.83-.51-.32-.12-.66-.17-1.03-.17s-.65.04-.89.11c-.24.07-.43.16-.59.25-.16.09-.29.17-.39.25-.1.07-.19.11-.28.11-.08,0-.14-.02-.18-.05-.04-.03-.08-.07-.11-.11l-.47-.65Z"/>
    <path class="cls-6" d="m76.9,17.94c.54,0,1.01.06,1.4.18.39.12.71.29.96.5s.44.46.55.75c.12.29.18.6.18.93,0,.4-.07.77-.21,1.09-.14.33-.34.6-.6.84-.26.23-.59.41-.98.53-.39.12-.82.19-1.32.19h-2.93v-8.64h5.74v1.1h-4.33v2.54h1.54Zm0,3.89c.32,0,.58-.04.8-.1.22-.07.39-.17.53-.29.14-.13.23-.27.3-.44.06-.17.09-.35.09-.55,0-.22-.03-.41-.09-.58-.06-.17-.16-.32-.29-.44-.14-.12-.31-.21-.53-.27-.22-.06-.49-.1-.8-.1h-1.54v2.78h1.53Z"/>
    <path class="cls-6" d="m87.34,21.02c.08,0,.14.03.2.09l.56.61c-.35.42-.78.75-1.3.98-.51.23-1.12.35-1.84.35-.63,0-1.2-.11-1.71-.33-.51-.22-.94-.52-1.3-.91-.36-.39-.64-.85-.83-1.4-.19-.54-.29-1.13-.29-1.78s.1-1.24.31-1.79c.21-.54.5-1.01.87-1.4.37-.39.82-.69,1.34-.91.52-.22,1.1-.32,1.72-.32s1.17.1,1.65.3c.48.2.89.47,1.25.81l-.46.65s-.07.08-.11.11c-.04.03-.1.05-.18.05-.08,0-.17-.04-.27-.11-.1-.07-.23-.16-.39-.25-.16-.09-.36-.17-.59-.25-.24-.07-.53-.11-.89-.11-.41,0-.79.07-1.13.22s-.64.35-.89.63c-.25.28-.44.61-.58,1.01-.14.4-.21.85-.21,1.35s.07.96.22,1.36c.14.4.34.73.59,1.01s.55.48.89.63c.34.14.71.22,1.1.22.24,0,.46-.01.64-.04.19-.03.37-.07.53-.13s.31-.13.45-.22c.14-.09.28-.2.42-.32.08-.07.16-.11.24-.11Z"/>
    <path class="cls-6" d="m68.57,28.02c.51,0,.94.05,1.3.15s.65.24.89.42.4.4.51.66c.11.26.16.55.16.87,0,.19-.03.37-.09.54-.06.17-.15.34-.26.49-.12.15-.27.29-.45.41-.18.12-.39.22-.64.3,1.12.24,1.68.83,1.68,1.79,0,.34-.06.65-.19.93-.13.28-.31.52-.55.73-.24.2-.54.36-.89.48s-.75.17-1.2.17h-2.9v-7.92h2.63Zm-1.35,1.01v2.48h1.29c.55,0,.96-.11,1.23-.32.27-.21.41-.52.41-.92,0-.44-.13-.75-.38-.95-.25-.19-.65-.29-1.2-.29h-1.35Zm1.59,5.9c.29,0,.53-.03.73-.1s.36-.16.49-.28.22-.26.27-.42c.06-.16.09-.33.09-.51,0-.37-.13-.67-.38-.88-.25-.21-.66-.32-1.21-.32h-1.59v2.51h1.59Z"/>
    <path class="cls-6" d="m78.34,31.35c.5,0,.93.05,1.28.17.36.11.65.26.88.45.23.19.4.42.51.68.11.26.16.55.16.85,0,.37-.06.71-.19,1-.13.3-.31.55-.55.77-.24.21-.54.38-.89.49-.35.11-.76.17-1.21.17h-2.69v-7.92h5.26v1.01h-3.97v2.33h1.41Zm0,3.57c.29,0,.53-.03.73-.1.2-.06.36-.15.49-.27.12-.12.22-.25.27-.41.06-.16.09-.33.09-.51,0-.2-.03-.38-.08-.53s-.15-.29-.27-.4c-.12-.11-.29-.19-.49-.25s-.44-.09-.73-.09h-1.41v2.55h1.4Z"/>
    <path class="cls-6" d="m88.96,28.02v7.92h-1.29v-5.26c0-.18,0-.36.01-.55,0-.19.03-.4.06-.62-.07.19-.14.37-.22.53-.08.16-.16.31-.23.43l-3.35,5.06s-.06.1-.1.14c-.04.05-.08.09-.13.13-.05.04-.1.07-.16.09s-.11.04-.18.04h-.96v-7.92h1.29v5.25c0,.18,0,.36-.01.55,0,.19-.03.4-.06.61.07-.19.14-.36.22-.53.08-.16.16-.31.23-.43l3.36-5.06s.06-.1.1-.14c.04-.05.08-.09.13-.13.05-.04.1-.07.16-.09.05-.02.11-.04.18-.04h.96Z"/>
    <path class="cls-6" d="m93.43,31.35c.5,0,.93.05,1.28.17.36.11.65.26.88.45.23.19.4.42.51.68.11.26.16.55.16.85,0,.37-.06.71-.19,1-.13.3-.31.55-.55.77-.24.21-.54.38-.89.49-.35.11-.76.17-1.21.17h-2.69v-7.92h5.26v1.01h-3.97v2.33h1.41Zm0,3.57c.29,0,.53-.03.73-.1.2-.06.36-.15.49-.27.12-.12.22-.25.27-.41.06-.16.09-.33.09-.51,0-.2-.03-.38-.08-.53s-.14-.29-.27-.4c-.12-.11-.29-.19-.49-.25-.2-.06-.45-.09-.73-.09h-1.41v2.55h1.4Z"/>
    <path class="cls-6" d="m103.71,35.94h-1.29v-6.91h-2.38c-.05,1-.12,1.87-.21,2.61-.09.74-.2,1.36-.33,1.88-.13.52-.27.94-.43,1.26-.16.33-.33.58-.53.76-.19.18-.4.31-.62.37s-.45.1-.7.1c-.46,0-.69-.08-.69-.25v-.81h.41c.14,0,.27-.02.41-.07.14-.05.27-.15.4-.32.13-.16.25-.4.37-.7s.22-.72.32-1.23c.09-.51.18-1.15.25-1.9.07-.75.12-1.66.15-2.71h4.88v7.92Z"/>
    <path class="cls-6" d="m112.04,28.02v7.92h-1.29v-5.26c0-.18,0-.36.01-.55,0-.19.03-.4.06-.62-.07.19-.14.37-.22.53-.08.16-.16.31-.23.43l-3.35,5.06s-.06.1-.1.14c-.04.05-.08.09-.13.13-.05.04-.1.07-.16.09s-.11.04-.18.04h-.96v-7.92h1.29v5.25c0,.18,0,.36-.01.55,0,.19-.03.4-.06.61.07-.19.14-.36.22-.53.08-.16.16-.31.23-.43l3.36-5.06s.06-.1.1-.14c.04-.05.08-.09.13-.13.05-.04.1-.07.16-.09.05-.02.11-.04.18-.04h.96Z"/>
    <path class="cls-6" d="m121.25,31.98c0,.59-.1,1.13-.29,1.62s-.46.92-.81,1.28-.76.64-1.25.84c-.49.2-1.03.3-1.62.3s-1.13-.1-1.61-.3c-.49-.2-.9-.48-1.25-.84s-.62-.78-.81-1.28-.29-1.04-.29-1.62.1-1.13.29-1.62.46-.92.81-1.28.77-.64,1.25-.84c.49-.2,1.02-.3,1.61-.3s1.13.1,1.62.3c.49.2.9.48,1.25.84s.62.79.81,1.28.29,1.04.29,1.62Zm-1.31,0c0-.45-.06-.86-.18-1.23-.12-.36-.3-.67-.53-.92-.23-.25-.51-.45-.83-.58-.33-.14-.69-.2-1.1-.2s-.77.07-1.09.2-.6.33-.84.58c-.23.25-.41.56-.53.92s-.19.77-.19,1.23.06.87.19,1.23.3.67.53.92c.23.25.51.44.84.58.33.13.69.2,1.09.2s.77-.07,1.1-.2c.33-.13.6-.33.83-.58.23-.25.41-.56.53-.92.12-.36.18-.77.18-1.23Z"/>
    <path class="cls-6" d="m127.69,29.09h-2.47v6.85h-1.28v-6.85h-2.47v-1.07h6.23v1.07Z"/>
    <path class="cls-6" d="m133.63,34.9v1.04h-4.94v-7.92h4.94v1.04h-3.65v2.39h2.92v1.01h-2.92v2.45h3.65Z"/>
    <path class="cls-6" d="m141.44,35.94h-1.16c-.12,0-.23-.03-.31-.1-.08-.07-.16-.16-.24-.29l-1.88-2.77c-.05-.07-.1-.13-.14-.18-.05-.05-.1-.09-.16-.12-.06-.03-.12-.05-.2-.07-.07-.01-.16-.02-.25-.02h-.91v3.55h-1.29v-7.92h1.29v3.39h.78c.16,0,.3-.03.41-.08.11-.05.22-.15.32-.3l1.9-2.66c.06-.1.14-.19.23-.25.09-.07.2-.1.32-.1h1.09l-2.27,3.21c-.09.14-.2.25-.31.34s-.25.16-.39.21c.21.06.38.15.53.27s.28.3.41.52l2.24,3.38Z"/>
    <path class="cls-6" d="m148.93,35.94h-1c-.11,0-.2-.03-.27-.09-.07-.06-.12-.13-.16-.21l-.66-1.75h-3.42l-.66,1.75c-.03.07-.08.14-.15.2-.07.06-.16.09-.27.09h-1l3.14-7.92h1.3l3.14,7.92Zm-2.43-2.97l-1.09-2.89c-.04-.11-.08-.24-.13-.38-.05-.15-.09-.3-.14-.47-.04.17-.08.33-.13.48s-.09.27-.13.38l-1.09,2.89h2.72Z"/>
    <path class="cls-6" d="m155.99,35.94h-1.28c-.09,0-.16-.02-.21-.07-.06-.05-.1-.1-.13-.16l-1.97-3.17s-.03.09-.05.13c-.02.04-.04.08-.06.12l-1.9,2.93c-.04.06-.09.11-.13.16-.05.05-.12.07-.2.07h-1.2l2.67-4.07-2.56-3.85h1.28c.09,0,.16.01.2.04.04.03.08.07.11.12l1.92,3.02.06-.13s.04-.09.07-.14l1.79-2.73c.04-.06.08-.11.12-.14.04-.03.1-.05.16-.05h1.23l-2.58,3.79,2.67,4.12Z"/>
    <path class="cls-3" d="m69.92,47.93c.12,0,.21.03.27.1.07.07.1.16.1.26v.65h-4.87v-.37c0-.07.02-.15.05-.23.03-.08.08-.15.15-.22l2.24-2.25c.19-.19.36-.37.51-.54.15-.17.28-.35.38-.52s.19-.35.24-.53c.06-.18.08-.37.08-.56s-.03-.36-.09-.5c-.06-.15-.14-.27-.24-.36-.1-.09-.22-.17-.36-.21s-.3-.07-.47-.07-.31.02-.45.07c-.14.05-.26.11-.37.19-.11.08-.2.18-.27.3-.07.12-.12.24-.16.38-.05.14-.11.23-.19.27-.08.05-.19.06-.34.03l-.56-.1c.05-.34.14-.64.28-.9.14-.26.31-.47.52-.64.21-.17.45-.3.72-.39.27-.09.57-.13.88-.13s.61.05.88.14c.27.1.5.23.69.41.19.17.35.39.46.64s.17.53.17.85c0,.27-.04.51-.12.74-.08.23-.18.44-.32.65s-.29.41-.47.6c-.18.19-.37.39-.56.59l-1.74,1.78c.14-.04.29-.07.43-.1s.28-.04.41-.04h2.11Z"/>
    <path class="cls-3" d="m76.22,45.34c0,.63-.07,1.18-.2,1.64-.13.46-.32.84-.56,1.15-.24.3-.52.53-.83.67-.32.15-.67.22-1.04.22s-.71-.07-1.04-.22c-.32-.15-.6-.37-.83-.67-.23-.3-.42-.69-.55-1.15s-.2-1.01-.2-1.64.07-1.18.2-1.64c.13-.46.32-.84.55-1.15.24-.3.51-.53.83-.68.32-.15.67-.22,1.04-.22s.71.07,1.04.22c.32.15.6.37.83.68.24.3.42.68.56,1.15.14.46.2,1.01.2,1.64Zm-1.11,0c0-.53-.04-.98-.13-1.33s-.2-.64-.34-.85c-.14-.21-.3-.36-.49-.46-.18-.09-.37-.13-.57-.13s-.39.04-.57.13c-.18.09-.34.24-.48.46-.14.21-.25.5-.33.85-.08.35-.12.8-.12,1.33s.04.98.12,1.33c.08.35.2.64.33.85.14.21.3.37.48.46s.37.13.57.13.39-.04.57-.13c.18-.09.35-.24.49-.46.14-.21.25-.5.34-.85s.13-.8.13-1.33Z"/>
    <path class="cls-3" d="m81.53,48.13v.81h-3.92v-.81h1.5v-4.51c0-.16,0-.32.02-.49l-1.16.98s-.1.07-.15.08c-.05.01-.1.01-.15,0-.04-.01-.08-.03-.12-.05-.03-.02-.06-.05-.08-.07l-.33-.47,2.17-1.86h.88v6.4h1.35Z"/>
    <path class="cls-3" d="m86.13,45.19c.44.14.78.35,1,.65s.33.67.33,1.1c0,.32-.06.6-.18.86-.12.26-.29.48-.5.66-.22.18-.48.32-.78.42-.3.1-.64.15-1,.15s-.7-.05-1-.15c-.3-.1-.56-.24-.78-.42-.22-.18-.38-.4-.5-.66-.12-.26-.18-.54-.18-.86,0-.44.11-.81.33-1.1s.55-.51,1-.65c-.36-.14-.63-.35-.81-.62s-.27-.6-.27-.99c0-.27.05-.52.16-.75s.26-.44.45-.61c.19-.17.43-.31.7-.4.27-.1.58-.15.91-.15s.63.05.9.15c.27.1.5.23.7.4.19.17.35.37.45.61.11.23.16.49.16.75,0,.38-.09.71-.27.99s-.45.48-.81.62Zm-1.13,2.98c.22,0,.41-.03.58-.09.17-.06.31-.15.43-.26.12-.11.2-.24.26-.4.06-.15.09-.32.09-.5,0-.22-.03-.41-.1-.57-.07-.16-.16-.29-.29-.4-.12-.1-.27-.18-.43-.24-.17-.05-.35-.08-.54-.08s-.37.03-.54.08c-.17.05-.31.13-.43.24-.12.1-.22.24-.29.4-.07.16-.1.35-.1.57,0,.18.03.35.09.5.06.15.15.29.26.4s.26.2.43.26c.17.06.36.09.58.09Zm0-5.69c-.2,0-.37.03-.52.09-.15.06-.27.14-.37.24s-.17.22-.22.35c-.05.13-.07.28-.07.43s.02.3.06.44c.04.14.11.27.2.38s.21.2.36.27c.15.07.33.1.55.1s.4-.03.55-.1c.15-.07.27-.16.36-.27s.16-.24.2-.38c.04-.14.06-.29.06-.44s-.02-.29-.07-.43c-.05-.14-.12-.25-.22-.35-.1-.1-.22-.18-.37-.24-.15-.06-.32-.09-.51-.09Z"/>
    <path class="cls-3" d="m94.23,44.65h-2.31v4.29h-1.08v-5.1h3.38v.81Z"/>
    <path class="cls-3" d="m94.19,48.32c0-.1.02-.19.05-.27.03-.08.08-.16.14-.22.06-.06.13-.11.22-.15s.18-.05.27-.05.19.02.27.05.16.09.22.15c.06.06.11.14.15.22.04.08.05.18.05.27s-.02.19-.05.27c-.04.08-.09.16-.15.22s-.14.11-.22.15-.18.05-.27.05-.19-.02-.27-.05-.16-.08-.22-.15-.11-.14-.14-.22c-.04-.08-.05-.17-.05-.27Z"/>
  </g>
  <polygon class="cls-6" points="160 49.88 160 61 148.9 61 160 49.88"/>
  <polygon class="cls-7" points="0 11.12 0 0 11.1 0 0 11.12"/>
</svg>