<?xml version="1.0" encoding="UTF-8"?>
<svg id="Layer_1" data-name="Layer 1" xmlns="http://www.w3.org/2000/svg" width="160" height="62" xmlns:xlink="http://www.w3.org/1999/xlink" viewBox="0 0 160 62">
  <defs>
    <style>
      .cls-1 {
        clip-path: url(#clippath);
      }

      .cls-2 {
        fill: none;
      }

      .cls-2, .cls-3, .cls-4, .cls-5, .cls-6, .cls-7, .cls-8 {
        stroke-width: 0px;
      }

      .cls-3 {
        fill: url(#_Безымянный_градиент_11);
        opacity: .7;
      }

      .cls-9 {
        clip-path: url(#clippath-1);
      }

      .cls-10 {
        clip-path: url(#clippath-4);
      }

      .cls-11 {
        clip-path: url(#clippath-3);
      }

      .cls-12 {
        clip-path: url(#clippath-2);
      }

      .cls-13 {
        clip-path: url(#clippath-6);
      }

      .cls-14 {
        clip-path: url(#clippath-5);
      }

      .cls-15 {
        opacity: .6;
      }

      .cls-5 {
        fill: #c8c7c7;
      }

      .cls-6 {
        fill: #be1e2d;
      }

      .cls-7 {
        fill: #c1272d;
      }

      .cls-8 {
        fill: #fff;
      }
    </style>
    <linearGradient id="_Безымянный_градиент_11" data-name="Безымянный градиент 11" x1="30" y1="57.74" x2="30" y2="6.88" gradientUnits="userSpaceOnUse">
      <stop offset="0" stop-color="red"/>
      <stop offset="1" stop-color="red" stop-opacity="0"/>
    </linearGradient>
    <clipPath id="clippath">
      <polyline class="cls-2" points="160 61 60 61 60 1 160 1 160 61"/>
    </clipPath>
    <clipPath id="clippath-1">
      <polyline class="cls-2" points="0 129 72 129 72 57 0 57 0 129"/>
    </clipPath>
    <clipPath id="clippath-2">
      <polyline class="cls-2" points="72 129 144 129 144 57 72 57 72 129"/>
    </clipPath>
    <clipPath id="clippath-3">
      <polyline class="cls-2" points="144 129 216 129 216 57 144 57 144 129"/>
    </clipPath>
    <clipPath id="clippath-4">
      <polyline class="cls-2" points="0 57 72 57 72 -15 0 -15 0 57"/>
    </clipPath>
    <clipPath id="clippath-5">
      <polyline class="cls-2" points="72 57 144 57 144 -15 72 -15 72 57"/>
    </clipPath>
    <clipPath id="clippath-6">
      <polyline class="cls-2" points="144 57 216 57 216 -15 144 -15 144 57"/>
    </clipPath>
    <clipPath id="clippath-7">
      <polyline class="cls-2" points="160 -19 60 -19 60 -79 160 -79 160 -19"/>
    </clipPath>
  </defs>
  <g>
    <rect class="cls-6" y="1" width="60" height="60"/>
    <polygon class="cls-3" points="60 17.32 0 61 0 1 60 1 60 17.32"/>
  </g>
  <path class="cls-8" d="m70.28,25.16c0,1.1-.32,2.27-.95,3.51-.69,1.32-1.47,2.19-2.36,2.6l2.13.41v1.65l-1.75.39c-.2.5-.42,1.33-.65,2.5-.03,1.24.19,2.43.65,3.59l1.75.54v1.57l-34.43,11.81-22.24-12.92c-2.51-1.46-3.71-3.83-3.58-7.12.02-1.03.36-1.78.99-2.24.33-.26,1.1-.58,2.32-.98.89-.29,3.62-.72,8.19-1.29l-5.94-1.88v-1.29l2.28-.41c.48-1.24.72-2.49.72-3.76,0-.29-.04-.7-.11-1.24l-11.16-1.62v-1.29l1.45-.13c.53-.94.8-2.07.8-3.38s-.27-2.47-.8-3.43h-1.45v-.95l19.88-1.52,35.26,1.55c1.68.09,3.06.58,4.17,1.48,1.11.9,1.66,2.08,1.66,3.52,0,1.96-1.41,3.44-4.23,4.43,2.29-.02,3.82.17,4.61.57.79.4,1.46,1.2,2.02,2.4.51,1.08.76,2.06.76,2.94ZM31.97,14.17c.05-1.51-.55-2.7-1.81-3.57-1.26-.87-2.79-1.24-4.59-1.12l-17.36,1.08c.56,1.08.84,2.29.84,3.61s-.28,2.57-.84,3.79l16.11,1.75c.3.04.61.05.91.05,1.83,0,3.4-.52,4.7-1.56,1.31-1.04,1.99-2.39,2.04-4.04Zm2.63,36.47c-.53-1.8-.8-3.64-.8-5.49,0-1.55.27-2.89.8-4.02l-19.8-8.82c-.58-.26-1.16-.39-1.71-.39-1.5,0-2.22.81-2.17,2.45.08,2.3.8,3.83,2.17,4.56l21.52,11.71Zm9.29-23.31c0-1.89-.46-3.62-1.37-5.18l-6.55-.82c-4.37.41-7.41.62-9.14.62-.43,0-.76-.02-.99-.05l-7.88-1.16c.08.57.11,1,.11,1.29,0,1.27-.32,2.68-.95,4.23l25.4,7.22c.91-2.08,1.37-4.13,1.37-6.14Zm23.19,13.31c-.63-1.39-.94-2.8-.91-4.23,0-.64.2-1.49.61-2.55l-31.42,7.27c-.51,1.13-.76,2.48-.76,4.02,0,1.86.28,3.69.84,5.49l31.64-10.01Zm1.41-15.39c.02-1.34-.39-2.51-1.26-3.51-.81-.94-1.69-1.38-2.63-1.31l-21.4,1.73c.89,1.57,1.33,3.29,1.33,5.18,0,2.01-.46,4.06-1.37,6.14l22.62-3.61c.69-.1,1.29-.61,1.83-1.52.53-.91.82-1.94.88-3.09Z"/>
  <g class="cls-15">
    <g class="cls-1">
      <g class="cls-9">
        <polyline class="cls-5" points="63.24 57 62.82 57 60 59.82 60 60.24 63.24 57"/>
        <polyline class="cls-5" points="69.24 57 68.82 57 64.82 61 65.24 61 69.24 57"/>
        <polyline class="cls-5" points="72 59.82 70.82 61 71.24 61 72 60.24 72 59.82"/>
      </g>
      <g class="cls-12">
        <polyline class="cls-5" points="75.24 57 74.82 57 72 59.82 72 60.24 75.24 57"/>
        <polyline class="cls-5" points="81.24 57 80.82 57 76.82 61 77.24 61 81.24 57"/>
        <polyline class="cls-5" points="87.24 57 86.82 57 82.82 61 83.24 61 87.24 57"/>
        <polyline class="cls-5" points="93.24 57 92.82 57 88.82 61 89.24 61 93.24 57"/>
        <polyline class="cls-5" points="99.24 57 98.82 57 94.82 61 95.24 61 99.24 57"/>
        <polyline class="cls-5" points="105.24 57 104.82 57 100.82 61 101.24 61 105.24 57"/>
        <polyline class="cls-5" points="111.24 57 110.82 57 106.82 61 107.24 61 111.24 57"/>
        <polyline class="cls-5" points="117.24 57 116.82 57 112.82 61 113.24 61 117.24 57"/>
        <polyline class="cls-5" points="123.24 57 122.82 57 118.82 61 119.24 61 123.24 57"/>
        <polyline class="cls-5" points="129.24 57 128.82 57 124.82 61 125.24 61 129.24 57"/>
        <polyline class="cls-5" points="135.24 57 134.82 57 130.82 61 131.24 61 135.24 57"/>
        <polyline class="cls-5" points="141.24 57 140.82 57 136.82 61 137.24 61 141.24 57"/>
        <polyline class="cls-5" points="144 59.82 142.82 61 143.24 61 144 60.24 144 59.82"/>
      </g>
      <g class="cls-11">
        <polyline class="cls-5" points="147.24 57 146.82 57 144 59.82 144 60.24 147.24 57"/>
        <polyline class="cls-5" points="153.24 57 152.82 57 148.82 61 149.24 61 153.24 57"/>
        <polyline class="cls-5" points="159.24 57 158.82 57 154.82 61 155.24 61 159.24 57"/>
      </g>
      <g class="cls-10">
        <polyline class="cls-5" points="65.24 1 64.82 1 60 5.82 60 6.24 65.24 1"/>
        <polyline class="cls-5" points="71.24 1 70.82 1 60 11.82 60 12.24 71.24 1"/>
        <polyline class="cls-5" points="72 5.82 60 17.82 60 18.24 72 6.24 72 5.82"/>
        <polyline class="cls-5" points="72 11.82 60 23.82 60 24.24 72 12.24 72 11.82"/>
        <polyline class="cls-5" points="72 17.82 60 29.82 60 30.24 72 18.24 72 17.82"/>
        <polyline class="cls-5" points="72 23.82 60 35.82 60 36.24 72 24.24 72 23.82"/>
        <polyline class="cls-5" points="72 29.82 60 41.82 60 42.24 72 30.24 72 29.82"/>
        <polyline class="cls-5" points="72 35.82 60 47.82 60 48.24 72 36.24 72 35.82"/>
        <polyline class="cls-5" points="72 41.82 60 53.82 60 54.24 72 42.24 72 41.82"/>
        <polyline class="cls-5" points="72 47.82 62.82 57 63.24 57 72 48.24 72 47.82"/>
        <polyline class="cls-5" points="72 53.82 68.82 57 69.24 57 72 54.24 72 53.82"/>
      </g>
      <g class="cls-14">
        <polyline class="cls-5" points="77.24 1 76.82 1 72 5.82 72 6.24 77.24 1"/>
        <polyline class="cls-5" points="83.24 1 82.82 1 72 11.82 72 12.24 83.24 1"/>
        <polyline class="cls-5" points="89.24 1 88.82 1 72 17.82 72 18.24 89.24 1"/>
        <polyline class="cls-5" points="95.24 1 94.82 1 72 23.82 72 24.24 95.24 1"/>
        <polyline class="cls-5" points="101.24 1 100.82 1 72 29.82 72 30.24 101.24 1"/>
        <polyline class="cls-5" points="107.24 1 106.82 1 72 35.82 72 36.24 107.24 1"/>
        <polyline class="cls-5" points="113.24 1 112.82 1 72 41.82 72 42.24 113.24 1"/>
        <polyline class="cls-5" points="119.24 1 118.82 1 72 47.82 72 48.24 119.24 1"/>
        <polyline class="cls-5" points="125.24 1 124.82 1 72 53.82 72 54.24 125.24 1"/>
        <polyline class="cls-5" points="131.24 1 130.82 1 74.82 57 75.24 57 131.24 1"/>
        <polyline class="cls-5" points="137.24 1 136.82 1 80.82 57 81.24 57 137.24 1"/>
        <polyline class="cls-5" points="143.24 1 142.82 1 86.82 57 87.24 57 143.24 1"/>
        <polyline class="cls-5" points="144 5.82 92.82 57 93.24 57 144 6.24 144 5.82"/>
        <polyline class="cls-5" points="144 11.82 98.82 57 99.24 57 144 12.24 144 11.82"/>
        <polyline class="cls-5" points="144 17.82 104.82 57 105.24 57 144 18.24 144 17.82"/>
        <polyline class="cls-5" points="144 23.82 110.82 57 111.24 57 144 24.24 144 23.82"/>
        <polyline class="cls-5" points="144 29.82 116.82 57 117.24 57 144 30.24 144 29.82"/>
        <polyline class="cls-5" points="144 35.82 122.82 57 123.24 57 144 36.24 144 35.82"/>
        <polyline class="cls-5" points="144 41.82 128.82 57 129.24 57 144 42.24 144 41.82"/>
        <polyline class="cls-5" points="144 47.82 134.82 57 135.24 57 144 48.24 144 47.82"/>
        <polyline class="cls-5" points="144 53.82 140.82 57 141.24 57 144 54.24 144 53.82"/>
      </g>
      <g class="cls-13">
        <polyline class="cls-5" points="149.24 1 148.82 1 144 5.82 144 6.24 149.24 1"/>
        <polyline class="cls-5" points="155.24 1 154.82 1 144 11.82 144 12.24 155.24 1"/>
        <polyline class="cls-5" points="160 1.82 144 17.82 144 18.24 160 2.24 160 1.82"/>
        <polyline class="cls-5" points="160 7.82 144 23.82 144 24.24 160 8.24 160 7.82"/>
        <polyline class="cls-5" points="160 13.82 144 29.82 144 30.24 160 14.24 160 13.82"/>
        <polyline class="cls-5" points="160 19.82 144 35.82 144 36.24 160 20.24 160 19.82"/>
        <polyline class="cls-5" points="160 25.82 144 41.82 144 42.24 160 26.24 160 25.82"/>
        <polyline class="cls-5" points="160 31.82 144 47.82 144 48.24 160 32.24 160 31.82"/>
        <polyline class="cls-5" points="160 37.82 144 53.82 144 54.24 160 38.24 160 37.82"/>
        <polyline class="cls-5" points="160 43.82 146.82 57 147.24 57 160 44.24 160 43.82"/>
        <polyline class="cls-5" points="160 49.82 152.82 57 153.24 57 160 50.24 160 49.82"/>
        <polyline class="cls-5" points="160 55.82 158.82 57 159.24 57 160 56.24 160 55.82"/>
      </g>
    </g>
  </g>
  <polygon class="cls-7" points="160 49.88 160 61 148.9 61 160 49.88"/>
  <g>
    <path class="cls-7" d="m73.15,18.52h-1.27c-.14,0-.25-.04-.34-.11s-.18-.18-.26-.32l-2.05-3.02c-.05-.08-.1-.15-.16-.2-.05-.05-.11-.1-.17-.13-.06-.03-.14-.06-.22-.07-.08-.01-.17-.02-.27-.02h-1v3.87h-1.4v-8.64h1.4v3.7h.85c.18,0,.32-.03.44-.08s.24-.16.35-.32l2.07-2.9c.07-.11.15-.2.25-.28.1-.07.22-.11.35-.11h1.19l-2.47,3.5c-.1.15-.21.27-.34.37-.13.1-.27.17-.43.23.22.06.42.16.57.29.16.14.31.32.45.56l2.44,3.68Z"/>
    <path class="cls-7" d="m81.27,9.88v8.64h-1.4v-3.85h-4.34v3.85h-1.41v-8.64h1.41v3.78h4.34v-3.78h1.4Z"/>
    <path class="cls-7" d="m90.36,9.88v8.64h-1.4v-5.74c0-.19,0-.39.01-.6s.03-.43.06-.67c-.08.21-.16.4-.24.58-.09.18-.17.34-.26.47l-3.66,5.52c-.03.05-.07.1-.11.16s-.09.1-.14.14c-.05.04-.11.08-.17.1-.06.03-.12.04-.19.04h-1.05v-8.64h1.41v5.73c0,.19,0,.39-.01.6s-.03.43-.06.66c.08-.2.16-.39.24-.57.09-.18.17-.33.25-.47l3.66-5.52c.03-.05.07-.1.11-.16s.09-.1.14-.14c.05-.04.11-.08.17-.1.06-.03.12-.04.19-.04h1.05Z"/>
    <path class="cls-7" d="m103.86,18.52h-.93c-.2,0-.38-.04-.53-.13-.15-.09-.26-.21-.35-.36l-1.97-2.89c-.11-.17-.23-.29-.37-.37-.14-.07-.31-.11-.51-.11h-.96v3.87h-1.31v-3.87h-.95c-.2,0-.37.04-.51.11-.14.07-.26.2-.37.37l-1.97,2.89c-.09.15-.21.27-.35.36-.15.09-.32.13-.52.13h-.94l2.41-3.7c.13-.23.28-.41.43-.55.16-.14.34-.24.54-.31-.17-.07-.32-.16-.44-.27s-.24-.26-.36-.43l-2.36-3.39h1.1c.14,0,.27.04.4.11s.22.17.29.3l1.96,2.85c.12.18.24.29.37.35.13.06.28.09.46.09h.81v-3.7h1.31v3.7h.82c.17,0,.32-.03.46-.09s.26-.17.37-.35l1.95-2.85c.08-.13.17-.23.3-.3s.25-.11.4-.11h1.1l-2.36,3.39c-.12.17-.23.31-.36.43s-.27.21-.45.27c.2.07.39.17.55.31s.31.32.44.55l2.4,3.7Z"/>
    <path class="cls-7" d="m111.97,9.88v8.64h-1.4v-3.85h-4.34v3.85h-1.41v-8.64h1.41v3.78h4.34v-3.78h1.4Z"/>
    <path class="cls-7" d="m116.85,13.52c.54,0,1.01.06,1.4.18.39.12.71.29.96.5s.44.46.55.75.18.6.18.93c0,.4-.07.77-.21,1.09-.14.33-.34.61-.6.84-.26.23-.59.41-.97.53-.39.12-.83.19-1.32.19h-2.93v-8.64h1.4v3.64h1.54Zm0,3.89c.32,0,.58-.04.8-.1.22-.07.4-.17.53-.29s.24-.27.3-.44c.06-.17.09-.36.09-.55,0-.22-.03-.41-.09-.58-.06-.17-.16-.32-.29-.44s-.31-.21-.53-.27c-.22-.06-.48-.1-.8-.1h-1.54v2.78h1.53Zm5.93,1.11h-1.41v-8.64h1.41v8.64Z"/>
    <path class="cls-7" d="m131.86,9.88v8.64h-1.4v-5.74c0-.19,0-.39.01-.6s.03-.43.06-.67c-.08.21-.16.4-.24.58-.09.18-.17.34-.26.47l-3.66,5.52c-.03.05-.07.1-.11.16s-.09.1-.14.14c-.05.04-.11.08-.17.1-.06.03-.12.04-.19.04h-1.05v-8.64h1.41v5.73c0,.19,0,.39-.01.6s-.03.43-.06.66c.08-.2.16-.39.24-.57.09-.18.17-.33.25-.47l3.66-5.52c.03-.05.07-.1.11-.16s.09-.1.14-.14c.05-.04.11-.08.17-.1.06-.03.12-.04.19-.04h1.05Zm-3.52-1.19c.16,0,.29-.02.39-.05.11-.03.19-.08.25-.16.06-.07.11-.17.14-.3.03-.12.04-.28.04-.47h.76c.09,0,.16.04.2.12.04.08.07.17.07.26,0,.2-.04.38-.13.53-.09.16-.21.29-.37.39-.16.11-.35.19-.58.24-.23.05-.49.08-.77.08s-.54-.03-.77-.08c-.23-.05-.42-.13-.58-.24-.16-.11-.28-.24-.37-.39-.09-.16-.13-.33-.13-.53,0-.09.02-.18.07-.26.04-.08.11-.12.2-.12h.76c0,.19.01.34.04.47.03.12.07.22.14.3.06.07.15.13.25.16.11.03.24.05.39.05Z"/>
    <path class="cls-7" d="m68.71,22.88c.56,0,1.05.07,1.47.2s.76.32,1.03.55c.27.24.47.52.6.86.13.33.2.7.2,1.11s-.07.79-.21,1.13-.35.64-.62.88c-.28.25-.62.44-1.03.58-.41.14-.89.21-1.43.21h-1.28v3.13h-1.4v-8.64h2.69Zm0,4.4c.31,0,.59-.04.83-.12s.44-.19.59-.34c.16-.15.28-.32.36-.53s.12-.44.12-.7-.04-.48-.12-.68c-.08-.2-.2-.37-.35-.51-.16-.14-.35-.25-.59-.32-.24-.07-.52-.11-.84-.11h-1.28v3.31h1.28Z"/>
    <path class="cls-7" d="m76.17,26.52c.54,0,1.01.06,1.4.18.39.12.71.29.96.5s.44.46.55.75.18.6.18.93c0,.4-.07.77-.21,1.09-.14.33-.34.61-.6.84-.26.23-.59.41-.97.53-.39.12-.83.19-1.32.19h-2.93v-8.64h1.4v3.64h1.54Zm0,3.89c.32,0,.58-.04.8-.1.22-.07.4-.17.53-.29s.24-.27.3-.44c.06-.17.09-.36.09-.55,0-.22-.03-.41-.09-.58-.06-.17-.16-.32-.29-.44s-.31-.21-.53-.27c-.22-.06-.48-.1-.8-.1h-1.54v2.78h1.53Zm5.93,1.11h-1.41v-8.64h1.41v8.64Z"/>
    <path class="cls-7" d="m91.18,22.88v8.64h-1.4v-3.85h-4.34v3.85h-1.41v-8.64h1.41v3.78h4.34v-3.78h1.4Z"/>
    <path class="cls-7" d="m101.23,27.2c0,.64-.1,1.23-.31,1.77s-.5,1-.88,1.39-.83.7-1.36.92-1.12.33-1.77.33-1.23-.11-1.76-.33c-.53-.22-.99-.53-1.37-.92s-.67-.85-.88-1.39-.31-1.13-.31-1.77.1-1.23.31-1.77.5-1.01.88-1.4c.38-.39.83-.7,1.37-.92.53-.22,1.12-.33,1.76-.33s1.24.11,1.77.33.98.53,1.36.92c.38.39.67.86.88,1.4s.31,1.13.31,1.77Zm-1.43,0c0-.5-.07-.94-.2-1.34-.13-.4-.33-.73-.58-1.01-.25-.28-.55-.49-.91-.64-.36-.15-.76-.22-1.2-.22s-.84.07-1.19.22c-.36.15-.66.36-.91.64-.25.28-.45.61-.58,1.01-.14.4-.2.84-.2,1.34s.07.95.2,1.34c.14.4.33.73.58,1,.25.27.56.48.91.63.36.15.75.22,1.19.22s.84-.07,1.2-.22c.36-.15.66-.36.91-.63.25-.27.44-.61.58-1,.13-.4.2-.84.2-1.34Z"/>
    <path class="cls-7" d="m109.78,31.52h-1.27c-.14,0-.25-.04-.34-.11s-.18-.18-.26-.32l-2.05-3.02c-.05-.08-.1-.15-.16-.2-.05-.05-.11-.1-.17-.13-.06-.03-.14-.06-.22-.07-.08-.01-.17-.02-.27-.02h-1v3.87h-1.4v-8.64h1.4v3.7h.85c.18,0,.32-.03.44-.08s.24-.16.35-.32l2.07-2.9c.07-.11.15-.2.25-.28.1-.07.22-.11.35-.11h1.19l-2.47,3.5c-.1.15-.21.27-.34.37-.13.1-.27.17-.43.23.22.06.42.16.57.29.16.14.31.32.45.56l2.44,3.68Z"/>
    <path class="cls-4" d="m72.62,40.92c0,.53-.09,1.03-.26,1.48-.17.45-.42.84-.73,1.16-.32.33-.69.58-1.14.76-.44.18-.93.28-1.47.28s-1.03-.09-1.47-.28c-.44-.18-.82-.44-1.14-.76s-.56-.71-.74-1.16c-.17-.45-.26-.94-.26-1.48s.09-1.02.26-1.47c.17-.45.42-.84.74-1.17.32-.33.7-.58,1.14-.76.44-.18.93-.28,1.47-.28s1.03.09,1.47.28c.44.18.82.44,1.14.76.31.33.56.71.73,1.17.17.45.26.94.26,1.47Zm-1.2,0c0-.41-.06-.78-.17-1.11-.11-.33-.27-.61-.48-.84-.21-.23-.46-.41-.76-.53-.3-.12-.63-.19-1-.19s-.7.06-.99.19c-.3.12-.55.3-.76.53-.21.23-.37.51-.48.84s-.17.7-.17,1.11.06.79.17,1.12.27.61.48.84.46.4.76.52c.3.12.63.18.99.18s.7-.06,1-.18c.3-.12.55-.3.76-.52s.37-.51.48-.84c.11-.33.17-.7.17-1.12Z"/>
    <path class="cls-4" d="m78.47,38.3h-2.24v6.23h-1.17v-6.23h-2.25v-.97h5.66v.97Z"/>
    <path class="cls-4" d="m81.61,37.32c.47,0,.88.05,1.22.17s.63.26.86.46c.22.2.39.44.5.71.11.28.17.59.17.92s-.06.66-.17.94c-.12.29-.29.53-.52.74-.23.21-.52.37-.86.48-.34.11-.74.17-1.19.17h-1.07v2.61h-1.17v-7.2h2.24Zm0,3.67c.26,0,.49-.03.69-.1.2-.07.36-.16.5-.28.13-.12.23-.27.3-.44.07-.17.1-.37.1-.58s-.03-.4-.1-.56c-.06-.17-.16-.31-.29-.42-.13-.12-.29-.21-.49-.27-.2-.06-.43-.09-.7-.09h-1.07v2.75h1.07Z"/>
    <path class="cls-4" d="m90.9,44.52h-.91c-.1,0-.18-.03-.25-.08-.07-.05-.11-.12-.14-.19l-.6-1.59h-3.1l-.6,1.59c-.03.07-.07.13-.14.19s-.15.08-.25.08h-.91l2.86-7.2h1.18l2.86,7.2Zm-2.21-2.7l-1-2.63c-.04-.1-.08-.22-.12-.35s-.08-.27-.12-.43c-.04.16-.08.3-.12.43-.04.13-.08.25-.12.35l-.99,2.62h2.47Z"/>
    <path class="cls-4" d="m96.44,42.92c.06,0,.12.03.16.08l.47.5c-.29.35-.65.63-1.08.82-.43.19-.94.29-1.53.29-.53,0-1-.09-1.43-.27s-.79-.44-1.09-.76c-.3-.32-.53-.71-.69-1.16-.16-.45-.24-.95-.24-1.49s.09-1.04.26-1.49c.17-.45.41-.84.72-1.17s.69-.58,1.12-.76c.44-.18.91-.27,1.44-.27s.98.08,1.38.25c.4.17.74.39,1.04.67l-.38.54s-.06.07-.09.1c-.04.03-.09.04-.15.04s-.14-.03-.23-.09-.19-.13-.33-.21-.3-.14-.5-.21-.45-.09-.74-.09c-.34,0-.66.06-.95.18-.29.12-.53.29-.74.52-.21.23-.37.51-.48.84-.12.33-.17.71-.17,1.12s.06.8.18,1.13.29.61.5.84.46.4.74.52.59.18.92.18c.2,0,.38-.01.54-.03.16-.02.3-.06.44-.1.13-.05.26-.11.38-.18s.24-.16.35-.27c.07-.06.13-.09.2-.09Z"/>
    <path class="cls-4" d="m103.68,44.52h-1.17v-6.29h-2.16c-.05.91-.11,1.7-.2,2.37s-.18,1.24-.3,1.71c-.12.47-.25.85-.39,1.15-.14.3-.3.53-.48.7-.18.17-.36.28-.56.34-.2.06-.41.09-.64.09-.42,0-.63-.07-.63-.22v-.74h.37c.12,0,.25-.02.37-.07s.25-.14.36-.29c.12-.15.23-.36.33-.64s.2-.65.29-1.12.16-1.04.22-1.73c.06-.69.11-1.51.14-2.47h4.44v7.2Z"/>
    <path class="cls-4" d="m109.79,43.58v.95h-4.49v-7.2h4.49v.95h-3.31v2.17h2.65v.92h-2.65v2.22h3.32Z"/>
    <path class="cls-4" d="m113.35,37.32c.46,0,.85.04,1.18.13.33.09.6.21.81.38s.36.36.46.6c.1.24.15.5.15.79,0,.17-.03.33-.08.49s-.13.31-.24.45c-.11.14-.24.26-.41.37s-.36.2-.58.28c1.02.22,1.53.76,1.53,1.62,0,.31-.06.59-.17.84s-.28.48-.5.66c-.22.19-.49.33-.81.43s-.68.16-1.09.16h-2.64v-7.2h2.39Zm-1.22.92v2.25h1.17c.5,0,.87-.1,1.12-.29.25-.19.37-.47.37-.83,0-.4-.12-.68-.35-.86-.23-.18-.59-.26-1.09-.26h-1.22Zm1.45,5.36c.26,0,.49-.03.67-.09s.33-.15.45-.25c.11-.11.2-.23.25-.38.05-.15.08-.3.08-.47,0-.34-.12-.61-.35-.8-.23-.19-.6-.29-1.1-.29h-1.44v2.29h1.45Z"/>
    <path class="cls-4" d="m124.15,40.92c0,.53-.09,1.03-.26,1.48-.17.45-.42.84-.73,1.16-.32.33-.69.58-1.14.76-.44.18-.93.28-1.47.28s-1.03-.09-1.47-.28c-.44-.18-.82-.44-1.14-.76s-.56-.71-.74-1.16c-.17-.45-.26-.94-.26-1.48s.09-1.02.26-1.47c.17-.45.42-.84.74-1.17.32-.33.7-.58,1.14-.76.44-.18.93-.28,1.47-.28s1.03.09,1.47.28c.44.18.82.44,1.14.76.31.33.56.71.73,1.17.17.45.26.94.26,1.47Zm-1.2,0c0-.41-.06-.78-.17-1.11-.11-.33-.27-.61-.48-.84-.21-.23-.46-.41-.76-.53-.3-.12-.63-.19-1-.19s-.7.06-.99.19c-.3.12-.55.3-.76.53-.21.23-.37.51-.48.84s-.17.7-.17,1.11.06.79.17,1.12.27.61.48.84.46.4.76.52c.3.12.63.18.99.18s.7-.06,1-.18c.3-.12.55-.3.76-.52s.37-.51.48-.84c.11-.33.17-.7.17-1.12Z"/>
    <path class="cls-4" d="m131.29,37.32v7.2h-1.17v-4.78c0-.16,0-.33.01-.5,0-.17.03-.36.05-.56-.06.17-.13.33-.2.48-.07.15-.14.28-.21.39l-3.05,4.6s-.06.09-.09.13c-.04.04-.08.08-.12.12-.04.04-.09.06-.14.08-.05.02-.1.03-.16.03h-.88v-7.2h1.17v4.78c0,.16,0,.33-.01.5,0,.17-.03.36-.05.55.06-.17.13-.33.2-.48.07-.15.14-.28.21-.39l3.05-4.6s.06-.09.09-.13c.04-.04.08-.08.12-.12s.09-.06.14-.08.1-.03.16-.03h.88Zm-2.94-.99c.13,0,.24-.01.33-.04.09-.03.16-.07.21-.13.05-.06.09-.14.12-.25s.04-.23.04-.39h.63c.08,0,.13.03.17.1.04.07.05.14.05.21,0,.17-.04.32-.11.45s-.17.24-.31.33c-.13.09-.3.16-.49.2s-.41.07-.64.07-.45-.02-.64-.07-.35-.11-.49-.2c-.13-.09-.24-.2-.31-.33s-.11-.28-.11-.45c0-.08.02-.15.05-.21.04-.07.09-.1.17-.1h.63c0,.16.01.29.03.39s.06.19.12.25c.05.06.12.11.21.13.09.03.2.04.33.04Z"/>
    <path class="cls-4" d="m72.74,53.61v2.3c0,.1-.03.18-.1.25s-.16.09-.27.09h-.7v-1.73h-5.53v1.39c0,.1-.03.18-.1.25s-.16.09-.27.09h-.7v-2.64h.76c.1-.05.19-.13.29-.24.1-.11.19-.27.28-.47s.18-.46.26-.77c.08-.31.16-.69.22-1.14.07-.45.12-.97.17-1.58s.08-1.3.11-2.09h4.43v6.29h1.15Zm-2.32,0v-5.37h-2.16c-.04.76-.09,1.42-.17,2-.07.58-.15,1.08-.25,1.52s-.2.8-.32,1.1c-.11.3-.24.55-.37.75h3.26Z"/>
    <path class="cls-4" d="m80.3,50.92c0,.53-.09,1.03-.26,1.48-.17.45-.42.84-.73,1.16-.32.33-.69.58-1.14.76-.44.18-.93.28-1.47.28s-1.03-.09-1.47-.28c-.44-.18-.82-.44-1.14-.76s-.56-.71-.74-1.16c-.17-.45-.26-.94-.26-1.48s.09-1.02.26-1.47c.17-.45.42-.84.74-1.17.32-.33.7-.58,1.14-.76.44-.18.93-.28,1.47-.28s1.03.09,1.47.28c.44.18.82.44,1.14.76.31.33.56.71.73,1.17.17.45.26.94.26,1.47Zm-1.2,0c0-.41-.06-.78-.17-1.11-.11-.33-.27-.61-.48-.84-.21-.23-.46-.41-.76-.53-.3-.12-.63-.19-1-.19s-.7.06-.99.19c-.3.12-.55.3-.76.53-.21.23-.37.51-.48.84s-.17.7-.17,1.11.06.79.17,1.12.27.61.48.84.46.4.76.52c.3.12.63.18.99.18s.7-.06,1-.18c.3-.12.55-.3.76-.52s.37-.51.48-.84c.11-.33.17-.7.17-1.12Z"/>
    <path class="cls-4" d="m87.42,54.52h-1.05c-.11,0-.21-.03-.29-.09-.08-.06-.15-.15-.21-.27l-1.71-2.51c-.04-.07-.09-.12-.13-.17-.04-.04-.09-.08-.15-.11-.05-.03-.11-.05-.18-.06s-.14-.02-.22-.02h-.83v3.23h-1.17v-7.2h1.17v3.08h.71c.15,0,.27-.02.37-.07.1-.05.2-.14.29-.27l1.73-2.42c.06-.09.13-.17.21-.23.08-.06.18-.09.29-.09h.99l-2.06,2.92c-.08.12-.18.22-.29.3-.11.08-.22.14-.35.19.19.05.35.13.48.25s.26.27.37.47l2.04,3.07Z"/>
    <path class="cls-4" d="m93.93,54.52h-1.17v-6.29h-2.16c-.05.91-.11,1.7-.2,2.37s-.18,1.24-.3,1.71c-.12.47-.25.85-.39,1.15-.14.3-.3.53-.48.7-.18.17-.36.28-.56.34-.2.06-.41.09-.64.09-.42,0-.63-.07-.63-.22v-.74h.37c.12,0,.25-.02.37-.07s.25-.14.36-.29c.12-.15.23-.36.33-.64s.2-.65.29-1.12.16-1.04.22-1.73c.06-.69.11-1.51.14-2.47h4.44v7.2Z"/>
    <path class="cls-4" d="m101.55,54.52h-.91c-.1,0-.18-.03-.25-.08-.07-.05-.11-.12-.14-.19l-.6-1.59h-3.1l-.6,1.59c-.03.07-.07.13-.14.19s-.15.08-.25.08h-.91l2.86-7.2h1.18l2.86,7.2Zm-2.21-2.7l-1-2.63c-.04-.1-.08-.22-.12-.35s-.08-.27-.12-.43c-.04.16-.08.3-.12.43-.04.13-.08.25-.12.35l-.99,2.62h2.47Z"/>
    <path class="cls-4" d="m109.3,53.61v2.3c0,.1-.03.18-.1.25s-.16.09-.27.09h-.7v-1.73h-5.53v1.39c0,.1-.03.18-.1.25s-.16.09-.27.09h-.7v-2.64h.76c.1-.05.19-.13.29-.24.1-.11.19-.27.28-.47s.18-.46.26-.77c.08-.31.16-.69.22-1.14.07-.45.12-.97.17-1.58s.08-1.3.11-2.09h4.43v6.29h1.15Zm-2.32,0v-5.37h-2.16c-.04.76-.09,1.42-.17,2-.07.58-.15,1.08-.25,1.52s-.2.8-.32,1.1c-.11.3-.24.55-.37.75h3.26Z"/>
  </g>
  <polygon class="cls-8" points="0 11.12 0 0 11.1 0 0 11.12"/>
</svg>