<?xml version="1.0" encoding="UTF-8"?>
<svg id="Layer_1" data-name="Layer 1" xmlns="http://www.w3.org/2000/svg" width="160" height="62" xmlns:xlink="http://www.w3.org/1999/xlink" viewBox="0 0 160 62">
  <defs>
    <style>
      .cls-1 {
        clip-path: url(#clippath);
      }

      .cls-2 {
        fill: none;
      }

      .cls-2, .cls-3, .cls-4, .cls-5, .cls-6, .cls-7, .cls-8 {
        stroke-width: 0px;
      }

      .cls-3 {
        fill: url(#_Безымянный_градиент_11);
        opacity: .7;
      }

      .cls-9 {
        clip-path: url(#clippath-1);
      }

      .cls-10 {
        clip-path: url(#clippath-4);
      }

      .cls-11 {
        clip-path: url(#clippath-3);
      }

      .cls-12 {
        clip-path: url(#clippath-2);
      }

      .cls-13 {
        clip-path: url(#clippath-6);
      }

      .cls-14 {
        clip-path: url(#clippath-5);
      }

      .cls-15 {
        opacity: .6;
      }

      .cls-5 {
        fill: #c8c7c7;
      }

      .cls-6 {
        fill: #be1e2d;
      }

      .cls-7 {
        fill: #c1272d;
      }

      .cls-8 {
        fill: #fff;
      }
    </style>
    <linearGradient id="_Безымянный_градиент_11" data-name="Безымянный градиент 11" x1="30" y1="57.74" x2="30" y2="6.88" gradientUnits="userSpaceOnUse">
      <stop offset="0" stop-color="red"/>
      <stop offset="1" stop-color="red" stop-opacity="0"/>
    </linearGradient>
    <clipPath id="clippath">
      <polyline class="cls-2" points="160 61 60 61 60 1 160 1 160 61"/>
    </clipPath>
    <clipPath id="clippath-1">
      <polyline class="cls-2" points="0 129 72 129 72 57 0 57 0 129"/>
    </clipPath>
    <clipPath id="clippath-2">
      <polyline class="cls-2" points="72 129 144 129 144 57 72 57 72 129"/>
    </clipPath>
    <clipPath id="clippath-3">
      <polyline class="cls-2" points="144 129 216 129 216 57 144 57 144 129"/>
    </clipPath>
    <clipPath id="clippath-4">
      <polyline class="cls-2" points="0 57 72 57 72 -15 0 -15 0 57"/>
    </clipPath>
    <clipPath id="clippath-5">
      <polyline class="cls-2" points="72 57 144 57 144 -15 72 -15 72 57"/>
    </clipPath>
    <clipPath id="clippath-6">
      <polyline class="cls-2" points="144 57 216 57 216 -15 144 -15 144 57"/>
    </clipPath>
    <clipPath id="clippath-7">
      <polyline class="cls-2" points="160 -19 60 -19 60 -79 160 -79 160 -19"/>
    </clipPath>
  </defs>
  <g>
    <rect class="cls-6" y="1" width="60" height="60"/>
    <polygon class="cls-3" points="60 17.32 0 61 0 1 60 1 60 17.32"/>
  </g>
  <path class="cls-8" d="m12.99,42.57c0,3.06.53,5.54,1.6,7.42.96,1.71,2.07,2.57,3.33,2.57h42.77c3.66,0,6.08-.66,7.27-1.97,1.19-1.31,1.77-3.9,1.77-7.76V9.43H17.92v4.2h-4.93v28.94Zm5.91,9.02V10.41h49.86v32.42c0,3.62-.5,5.99-1.5,7.1-1,1.11-3.19,1.66-6.56,1.66H18.9ZM57.79,15.62h7.87v-1.78h-7.87v1.78Zm-10.45,5.05h18.32v-1.78h-18.32v1.78Zm0,5.05h18.32v-1.78h-18.32v1.78Zm0,14.05h18.32v-1.78h-18.32v1.78Zm0,5.05h18.32v-1.78h-18.32v1.78Zm0-14.92h18.32v-1.78h-18.32v1.78Zm0,5.05h18.32v-1.78h-18.32v1.78Zm-24.92-.24h20.54V14.32h-20.54v20.4Zm10.39,0h10.15v-1.78h-10.15v1.78Zm10.15,3.27v1.78h-17.34v-1.78h17.34Zm0,5.25v1.78h-17.34v-1.78h17.34Z"/>
  <g class="cls-15">
    <g class="cls-1">
      <g class="cls-9">
        <polyline class="cls-5" points="63.24 57 62.82 57 60 59.82 60 60.24 63.24 57"/>
        <polyline class="cls-5" points="69.24 57 68.82 57 64.82 61 65.24 61 69.24 57"/>
        <polyline class="cls-5" points="72 59.82 70.82 61 71.24 61 72 60.24 72 59.82"/>
      </g>
      <g class="cls-12">
        <polyline class="cls-5" points="75.24 57 74.82 57 72 59.82 72 60.24 75.24 57"/>
        <polyline class="cls-5" points="81.24 57 80.82 57 76.82 61 77.24 61 81.24 57"/>
        <polyline class="cls-5" points="87.24 57 86.82 57 82.82 61 83.24 61 87.24 57"/>
        <polyline class="cls-5" points="93.24 57 92.82 57 88.82 61 89.24 61 93.24 57"/>
        <polyline class="cls-5" points="99.24 57 98.82 57 94.82 61 95.24 61 99.24 57"/>
        <polyline class="cls-5" points="105.24 57 104.82 57 100.82 61 101.24 61 105.24 57"/>
        <polyline class="cls-5" points="111.24 57 110.82 57 106.82 61 107.24 61 111.24 57"/>
        <polyline class="cls-5" points="117.24 57 116.82 57 112.82 61 113.24 61 117.24 57"/>
        <polyline class="cls-5" points="123.24 57 122.82 57 118.82 61 119.24 61 123.24 57"/>
        <polyline class="cls-5" points="129.24 57 128.82 57 124.82 61 125.24 61 129.24 57"/>
        <polyline class="cls-5" points="135.24 57 134.82 57 130.82 61 131.24 61 135.24 57"/>
        <polyline class="cls-5" points="141.24 57 140.82 57 136.82 61 137.24 61 141.24 57"/>
        <polyline class="cls-5" points="144 59.82 142.82 61 143.24 61 144 60.24 144 59.82"/>
      </g>
      <g class="cls-11">
        <polyline class="cls-5" points="147.24 57 146.82 57 144 59.82 144 60.24 147.24 57"/>
        <polyline class="cls-5" points="153.24 57 152.82 57 148.82 61 149.24 61 153.24 57"/>
        <polyline class="cls-5" points="159.24 57 158.82 57 154.82 61 155.24 61 159.24 57"/>
      </g>
      <g class="cls-10">
        <polyline class="cls-5" points="65.24 1 64.82 1 60 5.82 60 6.24 65.24 1"/>
        <polyline class="cls-5" points="71.24 1 70.82 1 60 11.82 60 12.24 71.24 1"/>
        <polyline class="cls-5" points="72 5.82 60 17.82 60 18.24 72 6.24 72 5.82"/>
        <polyline class="cls-5" points="72 11.82 60 23.82 60 24.24 72 12.24 72 11.82"/>
        <polyline class="cls-5" points="72 17.82 60 29.82 60 30.24 72 18.24 72 17.82"/>
        <polyline class="cls-5" points="72 23.82 60 35.82 60 36.24 72 24.24 72 23.82"/>
        <polyline class="cls-5" points="72 29.82 60 41.82 60 42.24 72 30.24 72 29.82"/>
        <polyline class="cls-5" points="72 35.82 60 47.82 60 48.24 72 36.24 72 35.82"/>
        <polyline class="cls-5" points="72 41.82 60 53.82 60 54.24 72 42.24 72 41.82"/>
        <polyline class="cls-5" points="72 47.82 62.82 57 63.24 57 72 48.24 72 47.82"/>
        <polyline class="cls-5" points="72 53.82 68.82 57 69.24 57 72 54.24 72 53.82"/>
      </g>
      <g class="cls-14">
        <polyline class="cls-5" points="77.24 1 76.82 1 72 5.82 72 6.24 77.24 1"/>
        <polyline class="cls-5" points="83.24 1 82.82 1 72 11.82 72 12.24 83.24 1"/>
        <polyline class="cls-5" points="89.24 1 88.82 1 72 17.82 72 18.24 89.24 1"/>
        <polyline class="cls-5" points="95.24 1 94.82 1 72 23.82 72 24.24 95.24 1"/>
        <polyline class="cls-5" points="101.24 1 100.82 1 72 29.82 72 30.24 101.24 1"/>
        <polyline class="cls-5" points="107.24 1 106.82 1 72 35.82 72 36.24 107.24 1"/>
        <polyline class="cls-5" points="113.24 1 112.82 1 72 41.82 72 42.24 113.24 1"/>
        <polyline class="cls-5" points="119.24 1 118.82 1 72 47.82 72 48.24 119.24 1"/>
        <polyline class="cls-5" points="125.24 1 124.82 1 72 53.82 72 54.24 125.24 1"/>
        <polyline class="cls-5" points="131.24 1 130.82 1 74.82 57 75.24 57 131.24 1"/>
        <polyline class="cls-5" points="137.24 1 136.82 1 80.82 57 81.24 57 137.24 1"/>
        <polyline class="cls-5" points="143.24 1 142.82 1 86.82 57 87.24 57 143.24 1"/>
        <polyline class="cls-5" points="144 5.82 92.82 57 93.24 57 144 6.24 144 5.82"/>
        <polyline class="cls-5" points="144 11.82 98.82 57 99.24 57 144 12.24 144 11.82"/>
        <polyline class="cls-5" points="144 17.82 104.82 57 105.24 57 144 18.24 144 17.82"/>
        <polyline class="cls-5" points="144 23.82 110.82 57 111.24 57 144 24.24 144 23.82"/>
        <polyline class="cls-5" points="144 29.82 116.82 57 117.24 57 144 30.24 144 29.82"/>
        <polyline class="cls-5" points="144 35.82 122.82 57 123.24 57 144 36.24 144 35.82"/>
        <polyline class="cls-5" points="144 41.82 128.82 57 129.24 57 144 42.24 144 41.82"/>
        <polyline class="cls-5" points="144 47.82 134.82 57 135.24 57 144 48.24 144 47.82"/>
        <polyline class="cls-5" points="144 53.82 140.82 57 141.24 57 144 54.24 144 53.82"/>
      </g>
      <g class="cls-13">
        <polyline class="cls-5" points="149.24 1 148.82 1 144 5.82 144 6.24 149.24 1"/>
        <polyline class="cls-5" points="155.24 1 154.82 1 144 11.82 144 12.24 155.24 1"/>
        <polyline class="cls-5" points="160 1.82 144 17.82 144 18.24 160 2.24 160 1.82"/>
        <polyline class="cls-5" points="160 7.82 144 23.82 144 24.24 160 8.24 160 7.82"/>
        <polyline class="cls-5" points="160 13.82 144 29.82 144 30.24 160 14.24 160 13.82"/>
        <polyline class="cls-5" points="160 19.82 144 35.82 144 36.24 160 20.24 160 19.82"/>
        <polyline class="cls-5" points="160 25.82 144 41.82 144 42.24 160 26.24 160 25.82"/>
        <polyline class="cls-5" points="160 31.82 144 47.82 144 48.24 160 32.24 160 31.82"/>
        <polyline class="cls-5" points="160 37.82 144 53.82 144 54.24 160 38.24 160 37.82"/>
        <polyline class="cls-5" points="160 43.82 146.82 57 147.24 57 160 44.24 160 43.82"/>
        <polyline class="cls-5" points="160 49.82 152.82 57 153.24 57 160 50.24 160 49.82"/>
        <polyline class="cls-5" points="160 55.82 158.82 57 159.24 57 160 56.24 160 55.82"/>
      </g>
    </g>
  </g>
  <polygon class="cls-7" points="160 49.88 160 61 148.9 61 160 49.88"/>
  <g>
    <path class="cls-7" d="m71.85,17.52h-1.23v-6.91h-3.5v6.91h-1.23v-7.92h5.96v7.92Z"/>
    <path class="cls-7" d="m78.24,16.48v1.04h-4.7v-7.92h4.7v1.04h-3.47v2.39h2.77v1.01h-2.77v2.45h3.47Z"/>
    <path class="cls-7" d="m81.8,9.6c.49,0,.92.06,1.28.18.36.12.66.29.89.51.24.22.41.48.53.79.12.31.17.64.17,1.01s-.06.72-.18,1.04-.3.58-.54.81c-.24.23-.54.4-.9.53-.36.13-.77.19-1.25.19h-1.12v2.87h-1.22v-7.92h2.34Zm0,4.04c.27,0,.51-.04.72-.11.21-.07.38-.18.52-.31s.24-.3.31-.49c.07-.19.1-.4.1-.64s-.03-.44-.1-.62c-.07-.18-.17-.34-.31-.47-.14-.13-.31-.23-.51-.29-.21-.07-.45-.1-.73-.1h-1.12v3.03h1.12Z"/>
    <path class="cls-7" d="m91.98,9.6v7.92h-1.22v-5.26c0-.18,0-.36.01-.55,0-.19.03-.4.05-.62-.07.19-.14.37-.21.53s-.15.31-.22.43l-3.19,5.06s-.06.1-.1.14c-.04.05-.08.09-.12.13-.05.04-.1.07-.15.09-.05.02-.11.04-.17.04h-.92v-7.92h1.23v5.25c0,.18,0,.36-.01.55,0,.19-.03.4-.06.61.07-.19.14-.36.21-.53.08-.16.15-.31.22-.43l3.19-5.06s.06-.1.1-.14c.04-.05.08-.09.13-.13.05-.04.1-.07.15-.09.05-.02.11-.04.17-.04h.92Z"/>
    <path class="cls-7" d="m100.75,13.56c0,.59-.09,1.13-.27,1.62-.18.5-.44.92-.77,1.28-.33.36-.73.64-1.19.84-.46.2-.98.3-1.54.3s-1.07-.1-1.54-.3c-.46-.2-.86-.48-1.19-.84s-.59-.78-.77-1.28c-.18-.49-.27-1.04-.27-1.62s.09-1.13.27-1.62c.18-.5.44-.92.77-1.28s.73-.64,1.19-.84c.46-.2.97-.3,1.54-.3s1.08.1,1.54.3c.46.2.86.48,1.19.84.33.36.58.79.77,1.28.18.49.27,1.04.27,1.62Zm-1.25,0c0-.46-.06-.86-.17-1.23-.12-.36-.28-.67-.5-.92-.22-.25-.48-.45-.79-.58s-.66-.2-1.05-.2-.73.07-1.04.2-.58.33-.79.58-.39.56-.51.92c-.12.36-.18.77-.18,1.23s.06.87.18,1.23c.12.36.29.67.51.92s.48.44.79.58.66.2,1.04.2.74-.07,1.05-.2.57-.33.79-.58c.22-.25.38-.56.5-.92.12-.36.17-.77.17-1.23Z"/>
    <path class="cls-7" d="m108.89,16.52v2.54c0,.11-.04.2-.11.27-.07.07-.17.1-.28.1h-.73v-1.9h-5.79v1.53c0,.11-.04.2-.11.27-.07.07-.17.1-.28.1h-.73v-2.91h.79c.1-.05.2-.14.31-.26.1-.12.2-.29.29-.52.09-.22.18-.51.27-.85.09-.34.16-.76.23-1.25.07-.49.13-1.07.18-1.74.05-.66.08-1.43.11-2.3h4.64v6.91h1.2Zm-2.43,0v-5.91h-2.26c-.04.83-.1,1.57-.17,2.2-.07.64-.16,1.19-.26,1.67-.1.47-.21.88-.33,1.21-.12.33-.25.61-.39.83h3.41Z"/>
    <path class="cls-7" d="m116.17,9.6v7.92h-1.22v-5.26c0-.18,0-.36.01-.55,0-.19.03-.4.05-.62-.07.19-.14.37-.21.53s-.15.31-.22.43l-3.19,5.06s-.06.1-.1.14c-.04.05-.08.09-.12.13-.05.04-.1.07-.15.09-.05.02-.11.04-.17.04h-.92v-7.92h1.23v5.25c0,.18,0,.36-.01.55,0,.19-.03.4-.06.61.07-.19.14-.36.21-.53.08-.16.15-.31.22-.43l3.19-5.06s.06-.1.1-.14c.04-.05.08-.09.13-.13.05-.04.1-.07.15-.09.05-.02.11-.04.17-.04h.92Z"/>
    <path class="cls-7" d="m123.07,9.6v7.92h-1.23v-3.29c-.4.11-.79.19-1.17.25-.38.06-.73.08-1.06.07-.33-.01-.63-.06-.9-.15s-.5-.23-.7-.42c-.19-.19-.34-.43-.45-.72-.11-.29-.16-.65-.16-1.06v-2.6h1.22v2.6c0,.33.06.61.18.82.12.21.31.37.57.46.26.09.59.12,1,.09s.9-.12,1.47-.27v-3.7h1.23Z"/>
    <path class="cls-7" d="m129.46,16.48v1.04h-4.7v-7.92h4.7v1.04h-3.47v2.39h2.77v1.01h-2.77v2.45h3.47Z"/>
    <path class="cls-7" d="m135.74,15.76c.07,0,.12.03.17.08l.49.55c-.31.39-.68.69-1.13.9-.45.21-.98.32-1.6.32-.55,0-1.05-.1-1.49-.3-.44-.2-.82-.48-1.14-.84-.31-.36-.56-.78-.72-1.28s-.25-1.04-.25-1.63.09-1.14.27-1.64c.18-.5.43-.92.76-1.28s.72-.63,1.17-.83.96-.3,1.5-.3,1.03.09,1.44.28c.42.19.78.43,1.09.74l-.4.6s-.06.08-.1.1c-.04.03-.09.04-.16.04s-.15-.03-.24-.1c-.09-.07-.2-.14-.34-.22-.14-.08-.31-.16-.52-.23-.21-.07-.47-.1-.78-.1-.36,0-.69.07-.99.2-.3.13-.56.33-.77.58-.22.25-.38.56-.5.92-.12.36-.18.78-.18,1.24s.06.88.19,1.25c.12.36.3.67.52.92s.48.44.77.57.62.2.96.2c.21,0,.4-.01.56-.04.17-.02.32-.06.46-.12.14-.05.27-.12.4-.2.12-.08.25-.18.37-.3.07-.07.14-.1.21-.1Z"/>
    <path class="cls-7" d="m143.58,17.52h-1.1c-.12,0-.22-.03-.3-.1-.08-.07-.16-.16-.22-.29l-1.78-2.77c-.05-.07-.09-.13-.14-.18-.04-.05-.1-.09-.15-.12s-.12-.05-.19-.07c-.07-.01-.15-.02-.24-.02h-.87v3.55h-1.22v-7.92h1.22v3.39h.74c.15,0,.28-.03.39-.08.1-.05.21-.15.31-.3l1.8-2.66c.06-.1.13-.19.22-.25.09-.07.19-.1.31-.1h1.04l-2.16,3.21c-.09.14-.19.25-.3.34-.11.09-.24.16-.37.21.2.05.36.14.5.27.14.12.27.3.39.52l2.13,3.38Z"/>
    <path class="cls-7" d="m150.7,17.52h-.95c-.1,0-.19-.03-.26-.08s-.12-.13-.15-.21l-.63-1.75h-3.25l-.63,1.75c-.03.07-.08.14-.15.2-.07.06-.16.09-.26.09h-.95l2.99-7.92h1.24l2.99,7.92Zm-2.31-2.97l-1.04-2.89c-.04-.11-.08-.24-.13-.38s-.09-.3-.13-.47c-.04.17-.08.33-.12.48-.04.15-.09.27-.13.38l-1.04,2.89h2.58Z"/>
    <path class="cls-7" d="m156.71,17.52h-1.22v-3.33h-.89c-.09,0-.17,0-.25.02-.08.02-.16.04-.23.09-.08.04-.15.1-.22.17-.07.08-.14.17-.22.28l-1.47,2.31c-.08.14-.18.25-.3.33-.13.08-.28.12-.46.12h-.92l1.83-2.83c.21-.33.47-.57.77-.72-.29-.07-.54-.17-.76-.3-.21-.13-.39-.28-.53-.46-.14-.18-.25-.38-.32-.6-.07-.22-.1-.46-.1-.71,0-.34.06-.65.18-.93.12-.28.3-.52.53-.72.23-.2.52-.36.85-.47.33-.11.72-.17,1.15-.17h2.6v7.92Zm-1.22-4.35v-2.55h-1.37c-.28,0-.51.03-.7.09-.19.06-.34.15-.46.26s-.21.25-.26.4c-.05.15-.08.32-.08.51,0,.2.03.38.08.54.05.16.14.29.26.4.12.11.27.2.46.26s.42.09.7.09h1.37Z"/>
    <path class="cls-7" d="m72.48,30.52h-1.34v-7.54h-3.82v7.54h-1.34v-8.64h6.5v8.64Z"/>
    <path class="cls-7" d="m79.45,29.39v1.13h-5.13v-8.64h5.13v1.13h-3.78v2.6h3.02v1.1h-3.02v2.67h3.79Z"/>
    <path class="cls-7" d="m86.46,21.88v8.64h-1.34v-3.59c-.44.12-.87.21-1.28.27-.41.06-.79.09-1.15.08-.36-.01-.68-.07-.98-.17-.29-.1-.55-.25-.76-.45-.21-.2-.37-.46-.49-.78-.12-.32-.17-.71-.17-1.16v-2.84h1.33v2.84c0,.36.06.66.19.89.13.23.33.4.62.5.28.1.64.13,1.09.1.44-.03.98-.13,1.6-.29v-4.04h1.34Z"/>
    <path class="cls-7" d="m95.16,30.52h-1.03c-.11,0-.21-.03-.28-.09-.07-.06-.13-.14-.16-.23l-.69-1.91h-3.54l-.68,1.91c-.03.08-.08.15-.16.22-.08.07-.17.1-.28.1h-1.04l3.26-8.64h1.35l3.26,8.64Zm-2.52-3.24l-1.14-3.16c-.04-.12-.09-.26-.14-.42-.05-.16-.1-.33-.14-.51-.04.19-.09.36-.13.52-.05.16-.09.3-.14.42l-1.13,3.15h2.82Z"/>
    <path class="cls-7" d="m100.85,23.05h-2.56v7.47h-1.33v-7.47h-2.57v-1.17h6.46v1.17Z"/>
    <path class="cls-7" d="m104.68,25.52c.52,0,.96.06,1.33.18s.68.29.92.5c.24.21.42.46.53.75.11.29.17.6.17.93,0,.4-.07.77-.2,1.1-.13.33-.32.6-.57.84-.25.23-.56.41-.93.53s-.78.19-1.25.19h-2.79v-8.64h1.34v3.64h1.46Zm0,3.89c.3,0,.55-.03.76-.1.21-.07.38-.17.5-.29.13-.13.22-.27.28-.44.06-.17.09-.35.09-.55,0-.22-.03-.41-.09-.58-.06-.17-.15-.32-.28-.44-.13-.12-.3-.21-.51-.27-.21-.06-.46-.1-.76-.1h-1.46v2.78h1.46Z"/>
    <path class="cls-4" d="m72.25,39.92c0,.53-.08,1.02-.25,1.47-.17.45-.4.84-.7,1.16-.3.33-.66.58-1.08.76-.42.18-.89.28-1.4.28s-.98-.09-1.4-.28c-.42-.18-.78-.44-1.08-.76-.3-.32-.53-.71-.7-1.16-.17-.45-.25-.94-.25-1.47s.08-1.03.25-1.48c.16-.45.4-.84.7-1.17.3-.33.66-.58,1.08-.76.42-.18.89-.28,1.4-.28s.98.09,1.4.28c.42.18.78.44,1.08.76.3.33.53.71.7,1.17.16.45.25.94.25,1.48Zm-1.14,0c0-.41-.05-.79-.16-1.12-.11-.33-.26-.61-.46-.84-.2-.23-.44-.41-.72-.53s-.6-.18-.95-.18-.66.06-.95.18-.52.3-.72.53c-.2.23-.35.51-.46.84-.11.33-.16.7-.16,1.12s.05.79.16,1.12c.11.33.26.61.46.84.2.23.44.4.72.53.28.12.6.18.95.18s.67-.06.95-.18c.28-.12.52-.3.72-.53.2-.23.35-.51.46-.84.11-.33.16-.7.16-1.12Z"/>
    <path class="cls-4" d="m77.82,37.3h-2.14v6.22h-1.11v-6.22h-2.14v-.98h5.38v.98Z"/>
    <path class="cls-4" d="m80.8,36.32c.45,0,.83.06,1.16.17.33.11.6.26.81.46.21.2.37.44.48.71s.16.59.16.92-.06.66-.17.94-.28.53-.49.73-.49.37-.82.48-.7.17-1.13.17h-1.02v2.61h-1.11v-7.2h2.13Zm0,3.67c.25,0,.46-.03.65-.1.19-.07.35-.16.47-.28.12-.12.22-.27.28-.44.06-.17.1-.37.1-.58s-.03-.4-.09-.57-.15-.31-.28-.42c-.12-.12-.28-.21-.47-.27s-.41-.09-.66-.09h-1.02v2.75h1.02Z"/>
    <path class="cls-4" d="m89.64,43.52h-.86c-.1,0-.17-.03-.24-.08-.06-.05-.11-.12-.13-.19l-.57-1.59h-2.95l-.57,1.59c-.03.07-.07.13-.13.18s-.14.08-.23.08h-.87l2.72-7.2h1.13l2.72,7.2Zm-2.1-2.7l-.95-2.63c-.04-.1-.07-.22-.11-.35s-.08-.27-.12-.43c-.03.16-.07.3-.11.43-.04.13-.08.25-.12.35l-.94,2.62h2.35Z"/>
    <path class="cls-4" d="m94.9,41.92c.06,0,.11.03.16.08l.44.5c-.28.35-.62.63-1.03.82-.41.19-.89.29-1.46.29-.5,0-.95-.09-1.36-.27s-.75-.44-1.03-.76c-.29-.33-.5-.71-.66-1.16-.15-.45-.23-.94-.23-1.48s.08-1.04.25-1.49c.16-.45.39-.84.69-1.17.3-.32.65-.58,1.07-.76.41-.18.87-.27,1.37-.27s.93.08,1.31.25.71.39.99.67l-.37.55s-.06.07-.09.09-.08.04-.14.04-.14-.03-.22-.09c-.08-.06-.18-.13-.31-.21-.13-.08-.28-.14-.47-.21-.19-.06-.42-.09-.71-.09-.33,0-.63.06-.9.18s-.51.29-.7.52c-.2.23-.35.51-.46.84s-.16.71-.16,1.12.06.8.17,1.13c.11.33.27.61.47.84.2.23.43.4.7.52.27.12.56.18.87.18.19,0,.36-.01.51-.03.15-.02.29-.06.42-.11.13-.05.25-.11.36-.18s.22-.16.33-.27c.06-.06.13-.09.19-.09Z"/>
    <path class="cls-4" d="m101.8,43.52h-1.12v-6.29h-2.05c-.04.91-.11,1.7-.19,2.37s-.17,1.24-.28,1.71-.23.85-.37,1.15c-.14.3-.29.53-.46.69s-.34.28-.54.34c-.19.06-.39.09-.6.09-.4,0-.6-.08-.6-.23v-.74h.35c.12,0,.24-.02.35-.07s.23-.14.34-.29.22-.36.32-.64c.1-.28.19-.65.28-1.12.08-.47.15-1.04.21-1.73.06-.69.1-1.51.13-2.47h4.22v7.2Z"/>
    <path class="cls-4" d="m107.61,42.58v.95h-4.28v-7.2h4.27v.95h-3.15v2.17h2.52v.92h-2.52v2.22h3.16Z"/>
    <path class="cls-4" d="m110.99,36.32c.44,0,.81.04,1.12.13.31.09.57.21.77.38.2.16.35.36.44.6.09.24.14.5.14.79,0,.17-.03.33-.07.49s-.12.31-.23.45c-.1.14-.23.26-.39.37-.16.11-.34.2-.55.28.97.22,1.46.76,1.46,1.62,0,.31-.05.59-.16.84-.11.25-.27.47-.48.66-.21.19-.46.33-.77.43-.3.1-.65.16-1.04.16h-2.51v-7.2h2.28Zm-1.17.92v2.25h1.11c.48,0,.83-.1,1.07-.29s.35-.47.35-.83c0-.4-.11-.68-.33-.86-.22-.18-.57-.27-1.03-.27h-1.17Zm1.38,5.36c.25,0,.46-.03.63-.09s.31-.15.42-.25c.11-.11.19-.23.24-.38.05-.15.07-.3.07-.47,0-.34-.11-.61-.33-.8-.22-.19-.57-.29-1.04-.29h-1.37v2.29h1.38Z"/>
    <path class="cls-4" d="m121.27,39.92c0,.53-.08,1.02-.25,1.47s-.4.84-.7,1.16c-.3.33-.66.58-1.08.76-.42.18-.89.28-1.4.28s-.98-.09-1.4-.28c-.42-.18-.78-.44-1.08-.76-.3-.32-.53-.71-.7-1.16-.16-.45-.25-.94-.25-1.47s.08-1.03.25-1.48c.17-.45.4-.84.7-1.17.3-.33.66-.58,1.08-.76.42-.18.89-.28,1.4-.28s.98.09,1.4.28.78.44,1.08.76c.3.33.53.71.7,1.17s.25.94.25,1.48Zm-1.14,0c0-.41-.05-.79-.16-1.12-.11-.33-.26-.61-.46-.84-.2-.23-.44-.41-.72-.53s-.6-.18-.95-.18-.66.06-.95.18-.52.3-.72.53c-.2.23-.35.51-.46.84-.11.33-.16.7-.16,1.12s.05.79.16,1.12c.11.33.26.61.46.84.2.23.44.4.72.53.28.12.6.18.95.18s.67-.06.95-.18c.28-.12.52-.3.72-.53s.35-.51.46-.84c.11-.33.16-.7.16-1.12Z"/>
    <path class="cls-4" d="m128.06,36.32v7.2h-1.11v-4.78c0-.16,0-.33.01-.5,0-.17.02-.36.05-.56-.06.17-.12.33-.19.48s-.14.28-.2.39l-2.9,4.6s-.05.09-.09.13c-.03.04-.07.08-.11.12s-.09.06-.14.08-.1.03-.15.03h-.83v-7.2h1.12v4.78c0,.16,0,.33-.01.5,0,.18-.02.36-.05.55.06-.17.12-.33.19-.48s.13-.28.2-.39l2.9-4.6s.05-.09.09-.13c.03-.04.07-.08.11-.12.04-.04.09-.06.14-.09.05-.02.1-.03.15-.03h.83Zm-2.79-.99c.12,0,.23-.01.31-.04.08-.03.15-.07.2-.13s.09-.14.11-.25c.02-.1.03-.23.03-.39h.6c.07,0,.13.03.16.1.04.07.05.14.05.22,0,.17-.03.31-.1.44-.07.13-.17.24-.29.33-.13.09-.28.15-.46.2-.18.04-.39.07-.61.07s-.43-.02-.61-.07c-.18-.04-.34-.11-.46-.2-.13-.09-.22-.2-.29-.33s-.1-.28-.1-.44c0-.08.02-.15.05-.22.04-.07.09-.1.16-.1h.6c0,.16.01.29.03.39.02.1.06.19.11.25s.12.11.2.13c.08.03.19.04.31.04Z"/>
    <path class="cls-4" d="m72.36,52.61v2.3c0,.1-.03.18-.1.25s-.15.1-.25.1h-.67v-1.73h-5.26v1.39c0,.1-.03.18-.1.25s-.15.1-.25.1h-.67v-2.65h.72c.09-.05.18-.13.28-.24.09-.11.18-.27.27-.47.09-.2.17-.46.25-.77.08-.31.15-.69.21-1.14s.12-.97.16-1.58c.04-.6.08-1.3.1-2.09h4.22v6.29h1.09Zm-2.21,0v-5.37h-2.05c-.04.76-.09,1.42-.16,2-.07.58-.15,1.08-.24,1.51s-.19.8-.3,1.1c-.11.3-.23.55-.35.75h3.1Z"/>
    <path class="cls-4" d="m79.56,49.92c0,.53-.08,1.02-.25,1.47-.17.45-.4.84-.7,1.16-.3.33-.66.58-1.08.76-.42.18-.89.28-1.4.28s-.98-.09-1.4-.28c-.42-.18-.78-.44-1.08-.76-.3-.32-.53-.71-.7-1.16-.17-.45-.25-.94-.25-1.47s.08-1.03.25-1.48c.16-.45.4-.84.7-1.17.3-.33.66-.58,1.08-.76.42-.18.89-.28,1.4-.28s.98.09,1.4.28c.42.18.78.44,1.08.76.3.33.53.71.7,1.17.16.45.25.94.25,1.48Zm-1.14,0c0-.41-.05-.79-.16-1.12-.11-.33-.26-.61-.46-.84-.2-.23-.44-.41-.72-.53s-.6-.18-.95-.18-.66.06-.95.18-.52.3-.72.53c-.2.23-.35.51-.46.84-.11.33-.16.7-.16,1.12s.05.79.16,1.12c.11.33.26.61.46.84.2.23.44.4.72.53.28.12.6.18.95.18s.67-.06.95-.18c.28-.12.52-.3.72-.53.2-.23.35-.51.46-.84.11-.33.16-.7.16-1.12Z"/>
    <path class="cls-4" d="m86.33,53.52h-1c-.11,0-.2-.03-.27-.09-.07-.06-.14-.15-.21-.27l-1.62-2.51c-.04-.07-.08-.12-.12-.17s-.09-.08-.14-.11c-.05-.03-.11-.05-.17-.06s-.13-.02-.21-.02h-.79v3.22h-1.11v-7.2h1.11v3.08h.67c.14,0,.26-.02.35-.07.09-.05.19-.14.28-.27l1.64-2.42c.05-.09.12-.17.2-.23.08-.06.17-.09.28-.09h.94l-1.96,2.92c-.08.12-.17.23-.27.31-.1.08-.21.14-.34.19.18.05.33.13.45.25.12.11.24.27.35.47l1.94,3.07Z"/>
    <path class="cls-4" d="m92.52,53.52h-1.12v-6.29h-2.05c-.04.91-.11,1.7-.19,2.37s-.17,1.24-.28,1.71-.23.85-.37,1.15c-.14.3-.29.53-.46.69s-.34.28-.54.34c-.19.06-.39.09-.6.09-.4,0-.6-.08-.6-.23v-.74h.35c.12,0,.24-.02.35-.07s.23-.14.34-.29.22-.36.32-.64c.1-.28.19-.65.28-1.12.08-.47.15-1.04.21-1.73.06-.69.1-1.51.13-2.47h4.22v7.2Z"/>
    <path class="cls-4" d="m99.77,53.52h-.86c-.1,0-.17-.03-.24-.08-.06-.05-.11-.12-.13-.19l-.57-1.59h-2.95l-.57,1.59c-.03.07-.07.13-.13.18s-.14.08-.23.08h-.87l2.72-7.2h1.13l2.72,7.2Zm-2.1-2.7l-.95-2.63c-.04-.1-.07-.22-.11-.35s-.08-.27-.12-.43c-.03.16-.07.3-.11.43-.04.13-.08.25-.12.35l-.94,2.62h2.35Z"/>
    <path class="cls-4" d="m107.14,52.61v2.3c0,.1-.03.18-.1.25-.07.06-.15.1-.25.1h-.67v-1.73h-5.26v1.39c0,.1-.03.18-.1.25-.07.06-.15.1-.25.1h-.67v-2.65h.72c.09-.05.19-.13.28-.24.09-.11.18-.27.27-.47.08-.2.17-.46.24-.77.08-.31.15-.69.21-1.14s.12-.97.16-1.58c.04-.6.08-1.3.1-2.09h4.22v6.29h1.09Zm-2.21,0v-5.37h-2.05c-.04.76-.09,1.42-.16,2s-.15,1.08-.24,1.51c-.09.43-.19.8-.3,1.1-.11.3-.23.55-.35.75h3.1Z"/>
  </g>
  <polygon class="cls-8" points="0 11.12 0 0 11.1 0 0 11.12"/>
</svg>