<?xml version="1.0" encoding="UTF-8"?>
<svg id="Layer_1" data-name="Layer 1" xmlns="http://www.w3.org/2000/svg" width="160" height="62" xmlns:xlink="http://www.w3.org/1999/xlink" viewBox="0 0 160 62">
  <defs>
    <style>
      .cls-1 {
        fill: none;
      }

      .cls-1, .cls-2, .cls-3, .cls-4, .cls-5, .cls-6, .cls-7 {
        stroke-width: 0px;
      }

      .cls-2 {
        fill: url(#_Безымянный_градиент_11);
        opacity: .7;
      }

      .cls-8 {
        clip-path: url(#clippath-4);
      }

      .cls-9 {
        clip-path: url(#clippath-7);
      }

      .cls-10 {
        clip-path: url(#clippath-8);
      }

      .cls-11 {
        clip-path: url(#clippath-6);
      }

      .cls-12 {
        clip-path: url(#clippath-5);
      }

      .cls-13 {
        clip-path: url(#clippath-9);
      }

      .cls-14 {
        clip-path: url(#clippath-10);
      }

      .cls-15 {
        opacity: .6;
      }

      .cls-4 {
        fill: #c8c7c7;
      }

      .cls-5 {
        fill: #be1e2d;
      }

      .cls-6 {
        fill: #c1272d;
      }

      .cls-7 {
        fill: #fff;
      }
    </style>
    <clipPath id="clippath">
      <polyline class="cls-1" points="160 -20 60 -20 60 -80 160 -80 160 -20"/>
    </clipPath>
    <clipPath id="clippath-4">
      <polyline class="cls-1" points="160 61.12 60 61.12 60 1.12 160 1.12 160 61.12"/>
    </clipPath>
    <clipPath id="clippath-5">
      <polyline class="cls-1" points="0 129.12 72 129.12 72 57.12 0 57.12 0 129.12"/>
    </clipPath>
    <clipPath id="clippath-6">
      <polyline class="cls-1" points="72 129.12 144 129.12 144 57.12 72 57.12 72 129.12"/>
    </clipPath>
    <clipPath id="clippath-7">
      <polyline class="cls-1" points="144 129.12 216 129.12 216 57.12 144 57.12 144 129.12"/>
    </clipPath>
    <clipPath id="clippath-8">
      <polyline class="cls-1" points="0 57.12 72 57.12 72 -14.88 0 -14.88 0 57.12"/>
    </clipPath>
    <clipPath id="clippath-9">
      <polyline class="cls-1" points="72 57.12 144 57.12 144 -14.88 72 -14.88 72 57.12"/>
    </clipPath>
    <clipPath id="clippath-10">
      <polyline class="cls-1" points="144 57.12 216 57.12 216 -14.88 144 -14.88 144 57.12"/>
    </clipPath>
    <linearGradient id="_Безымянный_градиент_11" data-name="Безымянный градиент 11" x1="30" y1="57.74" x2="30" y2="6.88" gradientUnits="userSpaceOnUse">
      <stop offset="0" stop-color="red"/>
      <stop offset="1" stop-color="red" stop-opacity="0"/>
    </linearGradient>
  </defs>
  <g class="cls-15">
    <g class="cls-8">
      <g class="cls-12">
        <polyline class="cls-4" points="63.24 57.12 62.82 57.12 60 59.94 60 60.37 63.24 57.12"/>
        <polyline class="cls-4" points="69.24 57.12 68.82 57.12 64.82 61.12 65.24 61.12 69.24 57.12"/>
        <polyline class="cls-4" points="72 59.94 70.82 61.12 71.24 61.12 72 60.37 72 59.94"/>
      </g>
      <g class="cls-11">
        <polyline class="cls-4" points="75.24 57.12 74.82 57.12 72 59.94 72 60.37 75.24 57.12"/>
        <polyline class="cls-4" points="81.24 57.12 80.82 57.12 76.82 61.12 77.24 61.12 81.24 57.12"/>
        <polyline class="cls-4" points="87.24 57.12 86.82 57.12 82.82 61.12 83.24 61.12 87.24 57.12"/>
        <polyline class="cls-4" points="93.24 57.12 92.82 57.12 88.82 61.12 89.24 61.12 93.24 57.12"/>
        <polyline class="cls-4" points="99.24 57.12 98.82 57.12 94.82 61.12 95.24 61.12 99.24 57.12"/>
        <polyline class="cls-4" points="105.24 57.12 104.82 57.12 100.82 61.12 101.24 61.12 105.24 57.12"/>
        <polyline class="cls-4" points="111.24 57.12 110.82 57.12 106.82 61.12 107.24 61.12 111.24 57.12"/>
        <polyline class="cls-4" points="117.24 57.12 116.82 57.12 112.82 61.12 113.24 61.12 117.24 57.12"/>
        <polyline class="cls-4" points="123.24 57.12 122.82 57.12 118.82 61.12 119.24 61.12 123.24 57.12"/>
        <polyline class="cls-4" points="129.24 57.12 128.82 57.12 124.82 61.12 125.24 61.12 129.24 57.12"/>
        <polyline class="cls-4" points="135.24 57.12 134.82 57.12 130.82 61.12 131.24 61.12 135.24 57.12"/>
        <polyline class="cls-4" points="141.24 57.12 140.82 57.12 136.82 61.12 137.24 61.12 141.24 57.12"/>
        <polyline class="cls-4" points="144 59.94 142.82 61.12 143.24 61.12 144 60.37 144 59.94"/>
      </g>
      <g class="cls-9">
        <polyline class="cls-4" points="147.24 57.12 146.82 57.12 144 59.94 144 60.37 147.24 57.12"/>
        <polyline class="cls-4" points="153.24 57.12 152.82 57.12 148.82 61.12 149.24 61.12 153.24 57.12"/>
        <polyline class="cls-4" points="159.24 57.12 158.82 57.12 154.82 61.12 155.24 61.12 159.24 57.12"/>
      </g>
      <g class="cls-10">
        <polyline class="cls-4" points="65.24 1.12 64.82 1.12 60 5.94 60 6.37 65.24 1.12"/>
        <polyline class="cls-4" points="71.24 1.12 70.82 1.12 60 11.94 60 12.37 71.24 1.12"/>
        <polyline class="cls-4" points="72 5.94 60 17.94 60 18.37 72 6.37 72 5.94"/>
        <polyline class="cls-4" points="72 11.94 60 23.94 60 24.37 72 12.37 72 11.94"/>
        <polyline class="cls-4" points="72 17.94 60 29.94 60 30.37 72 18.37 72 17.94"/>
        <polyline class="cls-4" points="72 23.94 60 35.94 60 36.37 72 24.37 72 23.94"/>
        <polyline class="cls-4" points="72 29.94 60 41.94 60 42.37 72 30.37 72 29.94"/>
        <polyline class="cls-4" points="72 35.94 60 47.94 60 48.37 72 36.37 72 35.94"/>
        <polyline class="cls-4" points="72 41.94 60 53.94 60 54.37 72 42.37 72 41.94"/>
        <polyline class="cls-4" points="72 47.94 62.82 57.12 63.24 57.12 72 48.37 72 47.94"/>
        <polyline class="cls-4" points="72 53.94 68.82 57.12 69.24 57.12 72 54.37 72 53.94"/>
      </g>
      <g class="cls-13">
        <polyline class="cls-4" points="77.24 1.12 76.82 1.12 72 5.94 72 6.37 77.24 1.12"/>
        <polyline class="cls-4" points="83.24 1.12 82.82 1.12 72 11.94 72 12.37 83.24 1.12"/>
        <polyline class="cls-4" points="89.24 1.12 88.82 1.12 72 17.94 72 18.37 89.24 1.12"/>
        <polyline class="cls-4" points="95.24 1.12 94.82 1.12 72 23.94 72 24.37 95.24 1.12"/>
        <polyline class="cls-4" points="101.24 1.12 100.82 1.12 72 29.94 72 30.37 101.24 1.12"/>
        <polyline class="cls-4" points="107.24 1.12 106.82 1.12 72 35.94 72 36.37 107.24 1.12"/>
        <polyline class="cls-4" points="113.24 1.12 112.82 1.12 72 41.94 72 42.37 113.24 1.12"/>
        <polyline class="cls-4" points="119.24 1.12 118.82 1.12 72 47.94 72 48.37 119.24 1.12"/>
        <polyline class="cls-4" points="125.24 1.12 124.82 1.12 72 53.94 72 54.37 125.24 1.12"/>
        <polyline class="cls-4" points="131.24 1.12 130.82 1.12 74.82 57.12 75.24 57.12 131.24 1.12"/>
        <polyline class="cls-4" points="137.24 1.12 136.82 1.12 80.82 57.12 81.24 57.12 137.24 1.12"/>
        <polyline class="cls-4" points="143.24 1.12 142.82 1.12 86.82 57.12 87.24 57.12 143.24 1.12"/>
        <polyline class="cls-4" points="144 5.94 92.82 57.12 93.24 57.12 144 6.37 144 5.94"/>
        <polyline class="cls-4" points="144 11.94 98.82 57.12 99.24 57.12 144 12.37 144 11.94"/>
        <polyline class="cls-4" points="144 17.94 104.82 57.12 105.24 57.12 144 18.37 144 17.94"/>
        <polyline class="cls-4" points="144 23.94 110.82 57.12 111.24 57.12 144 24.37 144 23.94"/>
        <polyline class="cls-4" points="144 29.94 116.82 57.12 117.24 57.12 144 30.37 144 29.94"/>
        <polyline class="cls-4" points="144 35.94 122.82 57.12 123.24 57.12 144 36.37 144 35.94"/>
        <polyline class="cls-4" points="144 41.94 128.82 57.12 129.24 57.12 144 42.37 144 41.94"/>
        <polyline class="cls-4" points="144 47.94 134.82 57.12 135.24 57.12 144 48.37 144 47.94"/>
        <polyline class="cls-4" points="144 53.94 140.82 57.12 141.24 57.12 144 54.37 144 53.94"/>
      </g>
      <g class="cls-14">
        <polyline class="cls-4" points="149.24 1.12 148.82 1.12 144 5.94 144 6.37 149.24 1.12"/>
        <polyline class="cls-4" points="155.24 1.12 154.82 1.12 144 11.94 144 12.37 155.24 1.12"/>
        <polyline class="cls-4" points="160 1.94 144 17.94 144 18.37 160 2.37 160 1.94"/>
        <polyline class="cls-4" points="160 7.94 144 23.94 144 24.37 160 8.37 160 7.94"/>
        <polyline class="cls-4" points="160 13.94 144 29.94 144 30.37 160 14.37 160 13.94"/>
        <polyline class="cls-4" points="160 19.94 144 35.94 144 36.37 160 20.37 160 19.94"/>
        <polyline class="cls-4" points="160 25.94 144 41.94 144 42.37 160 26.37 160 25.94"/>
        <polyline class="cls-4" points="160 31.94 144 47.94 144 48.37 160 32.37 160 31.94"/>
        <polyline class="cls-4" points="160 37.94 144 53.94 144 54.37 160 38.37 160 37.94"/>
        <polyline class="cls-4" points="160 43.94 146.82 57.12 147.24 57.12 160 44.37 160 43.94"/>
        <polyline class="cls-4" points="160 49.94 152.81 57.12 153.24 57.12 160 50.37 160 49.94"/>
        <polyline class="cls-4" points="160 55.94 158.81 57.12 159.24 57.12 160 56.37 160 55.94"/>
      </g>
    </g>
  </g>
  <polygon class="cls-6" points="160 50 160 61.12 148.9 61.12 160 50"/>
  <g>
    <path class="cls-6" d="m68.71,10.01c.56,0,1.05.07,1.47.2s.76.32,1.03.55c.27.24.47.52.6.86s.2.7.2,1.11-.07.79-.21,1.13-.35.64-.62.88c-.28.25-.62.44-1.03.58-.41.14-.89.21-1.43.21h-1.28v3.13h-1.4v-8.64h2.69Zm0,4.4c.31,0,.59-.04.83-.12.24-.08.44-.19.59-.34.16-.15.28-.32.36-.53.08-.21.12-.44.12-.7s-.04-.48-.12-.68c-.08-.2-.2-.37-.35-.51-.16-.14-.35-.25-.59-.32-.24-.07-.52-.11-.84-.11h-1.28v3.31h1.28Z"/>
    <path class="cls-6" d="m81.35,14.33c0,.64-.1,1.23-.31,1.77s-.5,1-.88,1.39-.83.7-1.36.92c-.53.22-1.12.33-1.77.33s-1.23-.11-1.76-.33c-.53-.22-.98-.53-1.36-.92-.38-.39-.67-.85-.88-1.39s-.31-1.13-.31-1.77.1-1.23.31-1.77.5-1.01.88-1.4c.38-.39.83-.7,1.36-.92.53-.22,1.12-.33,1.76-.33s1.24.11,1.77.33c.53.22.98.53,1.36.92.38.39.67.86.88,1.4s.31,1.13.31,1.77Zm-1.43,0c0-.5-.07-.94-.2-1.34-.13-.4-.33-.73-.58-1.01-.25-.28-.55-.49-.91-.64-.36-.15-.76-.22-1.2-.22s-.84.07-1.19.22c-.36.15-.66.36-.91.64-.25.28-.45.61-.58,1.01-.14.4-.2.84-.2,1.34s.07.95.2,1.34c.14.4.33.73.58,1,.25.27.56.48.91.63.36.15.75.22,1.19.22s.84-.07,1.2-.22c.36-.15.66-.36.91-.63.25-.27.44-.61.58-1,.13-.4.2-.84.2-1.34Z"/>
    <path class="cls-6" d="m88.76,16.72c.08,0,.14.03.2.09l.56.61c-.35.42-.78.75-1.3.98-.51.23-1.12.34-1.84.34-.63,0-1.2-.11-1.71-.33-.51-.22-.94-.52-1.3-.91-.36-.39-.64-.85-.83-1.39s-.29-1.13-.29-1.78.1-1.24.31-1.79.5-1.01.87-1.4c.37-.39.82-.69,1.34-.91.52-.22,1.1-.32,1.72-.32s1.17.1,1.65.3c.48.2.89.47,1.24.81l-.46.65s-.07.08-.11.11-.1.05-.18.05c-.08,0-.17-.04-.27-.11-.1-.07-.23-.16-.39-.25-.16-.09-.36-.17-.59-.25s-.54-.11-.89-.11c-.41,0-.79.07-1.13.22-.34.14-.64.35-.89.63-.25.28-.44.61-.58,1.01-.14.4-.21.85-.21,1.35s.07.96.22,1.36c.14.4.34.73.59,1.01.25.27.55.48.89.63.34.14.71.22,1.1.22.24,0,.45-.01.64-.04.19-.03.37-.07.53-.13.16-.06.31-.13.45-.22.14-.09.28-.2.42-.32.08-.07.16-.11.24-.11Z"/>
    <path class="cls-6" d="m96.44,16.72c.08,0,.14.03.2.09l.56.61c-.35.42-.78.75-1.3.98-.51.23-1.12.34-1.84.34-.63,0-1.2-.11-1.71-.33-.51-.22-.94-.52-1.3-.91-.36-.39-.64-.85-.83-1.39s-.29-1.13-.29-1.78.1-1.24.31-1.79.5-1.01.87-1.4c.37-.39.82-.69,1.34-.91.52-.22,1.1-.32,1.72-.32s1.17.1,1.65.3c.48.2.89.47,1.24.81l-.46.65s-.07.08-.11.11-.1.05-.18.05c-.08,0-.17-.04-.27-.11-.1-.07-.23-.16-.39-.25-.16-.09-.36-.17-.59-.25s-.54-.11-.89-.11c-.41,0-.79.07-1.13.22-.34.14-.64.35-.89.63-.25.28-.44.61-.58,1.01-.14.4-.21.85-.21,1.35s.07.96.22,1.36c.14.4.34.73.59,1.01.25.27.55.48.89.63.34.14.71.22,1.1.22.24,0,.45-.01.64-.04.19-.03.37-.07.53-.13.16-.06.31-.13.45-.22.14-.09.28-.2.42-.32.08-.07.16-.11.24-.11Z"/>
    <path class="cls-6" d="m105.45,10.01v8.64h-1.4v-5.74c0-.19,0-.39.01-.6s.03-.43.06-.67c-.08.21-.16.4-.24.58-.09.18-.17.34-.25.47l-3.66,5.52c-.03.05-.07.1-.11.16s-.09.1-.14.14c-.05.04-.11.08-.17.1-.06.03-.12.04-.19.04h-1.05v-8.64h1.41v5.73c0,.19,0,.39-.02.6,0,.21-.03.43-.06.66.08-.2.16-.39.24-.57.09-.18.17-.33.25-.47l3.66-5.52c.03-.05.07-.1.11-.16s.09-.1.14-.14c.05-.04.11-.08.17-.1.06-.03.12-.04.19-.04h1.05Z"/>
    <path class="cls-6" d="m114.54,10.01v8.64h-1.4v-5.74c0-.19,0-.39.01-.6s.03-.43.06-.67c-.07.21-.16.4-.24.58-.09.18-.17.34-.26.47l-3.66,5.52c-.03.05-.07.1-.11.16-.04.05-.09.1-.14.14s-.11.08-.17.1c-.06.03-.12.04-.19.04h-1.05v-8.64h1.41v5.73c0,.19,0,.39-.01.6s-.03.43-.06.66c.07-.2.16-.39.24-.57.09-.18.17-.33.25-.47l3.66-5.52c.03-.05.07-.1.11-.16.04-.05.09-.1.14-.14s.11-.08.17-.1c.06-.03.12-.04.19-.04h1.05Zm-3.52-1.19c.16,0,.29-.02.39-.05.11-.03.19-.08.26-.16s.11-.17.14-.3c.03-.12.04-.28.04-.47h.76c.09,0,.16.04.21.12.04.08.06.17.06.26,0,.2-.04.38-.13.53-.09.16-.21.29-.37.39-.16.11-.35.19-.58.24-.23.05-.49.08-.77.08s-.54-.03-.77-.08c-.23-.05-.42-.13-.58-.24-.16-.11-.28-.24-.37-.39-.09-.16-.13-.33-.13-.53,0-.09.02-.18.07-.26.04-.08.11-.12.2-.12h.76c0,.19.01.34.04.47.03.12.07.22.14.3.06.07.15.13.26.16s.24.05.39.05Z"/>
    <path class="cls-6" d="m122.48,16.72c.08,0,.14.03.2.09l.56.61c-.35.42-.78.75-1.3.98-.51.23-1.12.34-1.84.34-.63,0-1.2-.11-1.71-.33-.51-.22-.94-.52-1.3-.91-.36-.39-.64-.85-.83-1.39-.19-.54-.29-1.13-.29-1.78s.1-1.24.31-1.79.5-1.01.87-1.4c.37-.39.82-.69,1.34-.91.52-.22,1.1-.32,1.72-.32s1.17.1,1.65.3c.48.2.89.47,1.25.81l-.46.65s-.07.08-.11.11-.1.05-.18.05c-.08,0-.17-.04-.27-.11-.1-.07-.23-.16-.39-.25-.16-.09-.36-.17-.59-.25-.24-.07-.53-.11-.89-.11-.41,0-.79.07-1.13.22-.34.14-.64.35-.89.63-.25.28-.44.61-.58,1.01-.14.4-.21.85-.21,1.35s.07.96.22,1.36c.14.4.34.73.59,1.01.25.27.55.48.89.63.34.14.71.22,1.1.22.24,0,.46-.01.64-.04.19-.03.37-.07.53-.13.16-.06.31-.13.45-.22.14-.09.28-.2.42-.32.08-.07.16-.11.24-.11Z"/>
    <path class="cls-6" d="m131.46,18.65h-1.27c-.14,0-.25-.04-.34-.11s-.18-.18-.26-.32l-2.05-3.02c-.05-.08-.1-.15-.16-.2-.05-.05-.11-.1-.17-.13-.06-.03-.14-.06-.22-.07-.08-.01-.17-.02-.27-.02h-1v3.87h-1.4v-8.64h1.4v3.7h.85c.18,0,.32-.03.44-.08s.24-.16.35-.32l2.07-2.9c.07-.11.15-.2.25-.28.1-.07.22-.11.35-.11h1.19l-2.47,3.5c-.1.15-.21.27-.34.37-.13.1-.27.17-.43.23.22.06.42.16.57.29.16.14.31.32.45.56l2.44,3.68Z"/>
    <path class="cls-6" d="m139.63,18.65h-1.09c-.12,0-.22-.03-.3-.09-.08-.06-.14-.14-.17-.23l-.72-1.91h-3.73l-.72,1.91c-.03.08-.09.15-.17.22-.08.07-.18.1-.29.1h-1.09l3.43-8.64h1.42l3.43,8.64Zm-2.65-3.24l-1.19-3.16c-.04-.12-.09-.26-.14-.42s-.1-.33-.15-.51c-.04.19-.09.36-.14.52-.05.16-.1.3-.15.42l-1.19,3.15h2.96Z"/>
    <path class="cls-6" d="m146.52,18.65h-1.4v-3.64h-1.02c-.1,0-.2,0-.29.03-.09.02-.18.05-.26.09-.09.04-.17.11-.25.19-.08.08-.17.18-.25.31l-1.69,2.52c-.09.15-.2.27-.35.36-.14.09-.32.13-.52.13h-1.06l2.1-3.09c.24-.36.53-.63.88-.79-.33-.08-.62-.18-.87-.32-.25-.14-.45-.31-.61-.5s-.28-.42-.36-.66-.12-.5-.12-.78c0-.37.07-.71.21-1.02s.34-.57.61-.79c.27-.22.59-.39.97-.51s.82-.18,1.31-.18h2.98v8.64Zm-1.4-4.75v-2.78h-1.57c-.32,0-.58.03-.8.1-.22.07-.39.16-.53.29-.14.12-.24.27-.3.44-.06.17-.09.35-.09.55,0,.22.03.41.09.58.06.17.16.32.3.44.14.12.31.21.53.28.22.07.49.1.8.1h1.57Z"/>
    <path class="cls-6" d="m72.86,30.65h-1.41v-7.54h-4.01v7.54h-1.41v-8.64h6.83v8.64Z"/>
    <path class="cls-6" d="m82.91,26.33c0,.64-.1,1.23-.31,1.77s-.5,1-.88,1.39-.83.7-1.36.92c-.53.22-1.12.33-1.77.33s-1.23-.11-1.76-.33c-.53-.22-.98-.53-1.36-.92-.38-.39-.67-.85-.88-1.39s-.31-1.13-.31-1.77.1-1.23.31-1.77.5-1.01.88-1.4c.38-.39.83-.7,1.36-.92.53-.22,1.12-.33,1.76-.33s1.24.11,1.77.33c.53.22.98.53,1.36.92.38.39.67.86.88,1.4s.31,1.13.31,1.77Zm-1.43,0c0-.5-.07-.94-.2-1.34-.13-.4-.33-.73-.58-1.01-.25-.28-.55-.49-.91-.64-.36-.15-.76-.22-1.2-.22s-.84.07-1.19.22c-.36.15-.66.36-.91.64-.25.28-.45.61-.58,1.01-.14.4-.2.84-.2,1.34s.07.95.2,1.34c.14.4.33.73.58,1,.25.27.56.48.91.63.36.15.75.22,1.19.22s.84-.07,1.2-.22c.36-.15.66-.36.91-.63.25-.27.44-.61.58-1,.13-.4.2-.84.2-1.34Z"/>
    <path class="cls-6" d="m90.87,30.65h-1.41v-7.54h-2.59c-.06,1.09-.13,2.04-.23,2.84s-.22,1.49-.36,2.05c-.14.56-.29,1.02-.47,1.38-.17.36-.37.63-.58.83-.21.2-.44.34-.68.41-.24.07-.49.11-.76.11-.5,0-.76-.09-.76-.27v-.89h.44c.15,0,.3-.03.45-.08.15-.05.29-.17.44-.34.14-.18.27-.43.4-.77s.24-.78.35-1.34c.1-.56.19-1.25.27-2.07.07-.82.13-1.81.17-2.96h5.32v8.64Z"/>
    <path class="cls-6" d="m99.96,22.01v8.64h-1.4v-5.74c0-.19,0-.39.02-.6,0-.21.03-.43.06-.67-.08.21-.16.4-.24.58-.09.18-.17.34-.25.47l-3.66,5.52c-.03.05-.07.1-.11.16s-.09.1-.14.14c-.05.04-.11.08-.17.1-.06.03-.12.04-.19.04h-1.05v-8.64h1.41v5.73c0,.19,0,.39-.01.6s-.03.43-.06.66c.08-.2.16-.39.24-.57.09-.18.17-.33.25-.47l3.66-5.52c.03-.05.07-.1.11-.16s.09-.1.14-.14.11-.08.17-.1c.06-.03.12-.04.19-.04h1.05Z"/>
    <path class="cls-6" d="m107.16,23.11h-3.86v7.54h-1.41v-8.64h5.27v1.1Z"/>
    <path class="cls-6" d="m110.93,22.01c.56,0,1.05.07,1.47.2s.76.32,1.03.55c.27.24.47.52.6.86.13.33.2.7.2,1.11s-.07.79-.21,1.13-.35.64-.62.88c-.28.25-.62.44-1.03.58-.41.14-.89.21-1.43.21h-1.28v3.13h-1.4v-8.64h2.69Zm0,4.4c.31,0,.59-.04.83-.12s.44-.19.59-.34c.16-.15.28-.32.36-.53s.12-.44.12-.7-.04-.48-.12-.68c-.08-.2-.2-.37-.35-.51-.16-.14-.35-.25-.59-.32-.24-.07-.52-.11-.84-.11h-1.28v3.31h1.28Z"/>
    <path class="cls-6" d="m122.08,30.65h-1.09c-.12,0-.22-.03-.3-.09-.08-.06-.14-.14-.17-.23l-.72-1.91h-3.73l-.72,1.91c-.03.08-.09.15-.17.22-.08.07-.18.1-.29.1h-1.09l3.43-8.64h1.42l3.43,8.64Zm-2.65-3.24l-1.19-3.16c-.04-.12-.09-.26-.14-.42s-.1-.33-.15-.51c-.04.19-.09.36-.14.52-.05.16-.1.3-.15.42l-1.19,3.15h2.96Z"/>
    <path class="cls-6" d="m127.03,22.64c.36.01.7.06,1.03.15s.62.21.89.36c.27.15.52.33.74.55s.4.45.55.7c.15.25.27.53.35.82s.12.59.12.91c0,.47-.09.92-.27,1.33-.18.42-.43.78-.76,1.09-.32.31-.71.57-1.16.75-.45.19-.95.29-1.49.31v1.04h-1.33v-1.04c-.54-.02-1.04-.12-1.5-.31-.45-.19-.84-.44-1.17-.75-.33-.31-.58-.68-.76-1.09-.18-.42-.27-.86-.27-1.33s.09-.92.27-1.33c.18-.42.44-.78.77-1.09s.72-.56,1.17-.75c.45-.19.95-.29,1.49-.31v-1.01h1.33v1.01Zm-1.33,1.09c-.34,0-.66.08-.94.2s-.52.3-.72.51c-.2.22-.36.47-.47.76-.11.29-.17.59-.17.92s.06.63.17.92c.11.29.27.54.47.75.2.22.44.39.72.52s.59.19.94.2v-4.78Zm1.33,4.78c.34,0,.65-.07.93-.2.28-.13.52-.3.73-.52.2-.22.36-.47.47-.75.11-.29.17-.59.17-.92s-.05-.63-.17-.92c-.11-.29-.27-.54-.47-.76s-.44-.39-.73-.51c-.28-.13-.59-.19-.93-.2v4.78Z"/>
    <path class="cls-6" d="m139.19,22.01v8.64h-1.4v-5.74c0-.19,0-.39.01-.6s.03-.43.06-.67c-.08.21-.16.4-.24.58-.09.18-.17.34-.26.47l-3.66,5.52c-.03.05-.07.1-.11.16s-.09.1-.14.14c-.05.04-.11.08-.17.1-.06.03-.12.04-.19.04h-1.05v-8.64h1.41v5.73c0,.19,0,.39-.01.6s-.03.43-.06.66c.08-.2.16-.39.24-.57.09-.18.17-.33.25-.47l3.66-5.52c.03-.05.07-.1.11-.16s.09-.1.14-.14c.05-.04.11-.08.17-.1.06-.03.12-.04.19-.04h1.05Z"/>
    <path class="cls-6" d="m147.14,30.65h-1.4v-3.64h-1.02c-.1,0-.2,0-.29.03-.09.02-.18.05-.26.09-.09.04-.17.11-.25.19-.08.08-.17.18-.25.31l-1.69,2.52c-.09.15-.2.27-.35.36-.14.09-.32.13-.52.13h-1.06l2.1-3.09c.24-.36.53-.63.88-.79-.33-.08-.62-.18-.87-.32-.25-.14-.45-.31-.61-.5s-.28-.42-.36-.66-.12-.5-.12-.78c0-.37.07-.71.21-1.02s.34-.57.61-.79c.27-.22.59-.39.97-.51s.82-.18,1.31-.18h2.98v8.64Zm-1.4-4.75v-2.78h-1.57c-.32,0-.58.03-.8.1-.22.07-.39.16-.53.29-.14.12-.24.27-.3.44-.06.17-.09.35-.09.55,0,.22.03.41.09.58.06.17.16.32.3.44.14.12.31.21.53.28.22.07.49.1.8.1h1.57Z"/>
    <path class="cls-3" d="m72.62,40.05c0,.53-.09,1.03-.26,1.48s-.42.84-.73,1.16-.69.58-1.13.76c-.44.18-.93.28-1.47.28s-1.03-.09-1.47-.28c-.44-.18-.82-.44-1.14-.76-.32-.33-.56-.71-.73-1.16s-.26-.94-.26-1.48.09-1.02.26-1.47.42-.84.73-1.17c.32-.33.7-.58,1.14-.76.44-.18.93-.28,1.47-.28s1.03.09,1.47.28c.44.18.82.44,1.13.76.31.33.56.71.73,1.17s.26.94.26,1.47Zm-1.2,0c0-.41-.06-.78-.17-1.11-.11-.33-.27-.61-.48-.84-.21-.23-.46-.41-.76-.53-.3-.12-.63-.19-1-.19s-.7.06-1,.19c-.3.12-.55.3-.76.53-.21.23-.37.51-.49.84s-.17.7-.17,1.11.06.79.17,1.12.28.61.49.84.46.4.76.52c.3.12.63.18,1,.18s.7-.06,1-.18c.3-.12.55-.3.76-.52.21-.23.37-.51.48-.84.11-.33.17-.7.17-1.12Z"/>
    <path class="cls-3" d="m78.47,37.42h-2.25v6.23h-1.17v-6.23h-2.25v-.97h5.66v.97Z"/>
    <path class="cls-3" d="m81.61,36.45c.47,0,.88.05,1.22.17s.63.26.85.46c.23.2.39.44.5.71s.17.59.17.92-.06.66-.17.94c-.12.29-.29.53-.52.74-.23.21-.52.37-.86.48-.34.11-.74.17-1.19.17h-1.07v2.61h-1.17v-7.2h2.24Zm0,3.67c.26,0,.49-.03.69-.1.2-.07.36-.16.5-.28.13-.12.23-.27.3-.44.07-.17.1-.37.1-.58s-.03-.4-.1-.56c-.06-.17-.16-.31-.29-.42-.13-.12-.29-.21-.49-.27s-.43-.09-.7-.09h-1.07v2.75h1.07Z"/>
    <path class="cls-3" d="m90.9,43.65h-.91c-.1,0-.18-.03-.25-.08-.06-.05-.11-.12-.14-.19l-.6-1.59h-3.1l-.6,1.59c-.03.07-.07.13-.14.19-.07.06-.15.08-.25.08h-.91l2.86-7.2h1.18l2.86,7.2Zm-2.21-2.7l-.99-2.63c-.04-.1-.08-.22-.12-.35-.04-.13-.08-.27-.12-.43-.04.16-.08.3-.12.43-.04.13-.08.25-.12.35l-.99,2.62h2.47Z"/>
    <path class="cls-3" d="m96.43,42.04c.06,0,.12.03.17.08l.46.5c-.29.35-.65.63-1.08.82-.43.19-.94.29-1.53.29-.53,0-1-.09-1.43-.27s-.79-.44-1.09-.76c-.3-.32-.53-.71-.69-1.16-.16-.45-.24-.95-.24-1.49s.09-1.04.26-1.49c.17-.45.41-.84.72-1.17s.68-.58,1.12-.76c.43-.18.91-.27,1.44-.27s.98.08,1.38.25c.4.17.74.39,1.04.67l-.38.54s-.06.07-.1.1c-.04.03-.09.04-.15.04-.07,0-.14-.03-.23-.09s-.19-.13-.33-.21-.3-.14-.5-.21-.45-.09-.74-.09c-.34,0-.66.06-.95.18-.29.12-.53.29-.74.52-.21.23-.37.51-.48.84-.11.33-.17.71-.17,1.12s.06.8.18,1.13.29.61.5.84.46.4.74.52c.28.12.59.18.92.18.2,0,.38-.01.54-.03.16-.02.3-.06.44-.1.13-.05.26-.11.38-.18.12-.07.24-.16.35-.27.07-.06.13-.09.2-.09Z"/>
    <path class="cls-3" d="m103.68,43.65h-1.17v-6.29h-2.16c-.05.91-.11,1.7-.2,2.37-.08.67-.18,1.24-.3,1.71s-.25.85-.39,1.15c-.14.3-.3.53-.48.7s-.36.28-.56.34c-.2.06-.41.09-.63.09-.42,0-.63-.07-.63-.22v-.74h.37c.12,0,.25-.02.37-.07s.25-.14.36-.29.23-.36.33-.64.2-.65.29-1.12.16-1.04.22-1.73c.06-.69.11-1.51.14-2.47h4.43v7.2Z"/>
    <path class="cls-3" d="m109.79,42.7v.95h-4.49v-7.2h4.49v.95h-3.32v2.17h2.65v.92h-2.65v2.22h3.32Z"/>
    <path class="cls-3" d="m113.35,36.45c.46,0,.85.04,1.18.13.33.09.6.21.81.38s.36.36.46.6c.1.24.15.5.15.79,0,.17-.03.33-.08.49s-.13.31-.24.45c-.11.14-.24.26-.41.37s-.36.2-.58.28c1.02.22,1.53.76,1.53,1.62,0,.31-.06.59-.17.84s-.28.48-.5.66c-.22.19-.49.33-.81.43s-.68.16-1.09.16h-2.64v-7.2h2.39Zm-1.22.92v2.25h1.17c.5,0,.87-.1,1.12-.29.25-.19.37-.47.37-.83,0-.4-.12-.68-.35-.86-.23-.18-.59-.26-1.09-.26h-1.22Zm1.45,5.36c.26,0,.49-.03.67-.09s.33-.15.45-.25c.11-.11.2-.23.25-.38.05-.15.08-.3.08-.47,0-.34-.12-.61-.35-.8-.23-.19-.6-.29-1.1-.29h-1.44v2.29h1.45Z"/>
    <path class="cls-3" d="m124.15,40.05c0,.53-.09,1.03-.26,1.48-.17.45-.42.84-.73,1.16-.32.33-.69.58-1.14.76-.44.18-.93.28-1.47.28s-1.03-.09-1.47-.28c-.44-.18-.82-.44-1.14-.76s-.56-.71-.74-1.16c-.17-.45-.26-.94-.26-1.48s.09-1.02.26-1.47c.17-.45.42-.84.74-1.17.32-.33.7-.58,1.14-.76.44-.18.93-.28,1.47-.28s1.03.09,1.47.28c.44.18.82.44,1.14.76.31.33.56.71.73,1.17.17.45.26.94.26,1.47Zm-1.2,0c0-.41-.06-.78-.17-1.11-.11-.33-.27-.61-.48-.84-.21-.23-.46-.41-.76-.53-.3-.12-.63-.19-1-.19s-.7.06-.99.19c-.3.12-.55.3-.76.53-.21.23-.37.51-.48.84s-.17.7-.17,1.11.06.79.17,1.12.27.61.48.84.46.4.76.52c.3.12.63.18.99.18s.7-.06,1-.18c.3-.12.55-.3.76-.52s.37-.51.48-.84c.11-.33.17-.7.17-1.12Z"/>
    <path class="cls-3" d="m131.29,36.45v7.2h-1.17v-4.78c0-.16,0-.33.01-.5,0-.17.03-.36.05-.56-.06.17-.13.33-.2.48-.07.15-.14.28-.21.39l-3.05,4.6s-.06.09-.09.13c-.04.04-.08.08-.12.12-.04.04-.09.06-.14.08-.05.02-.1.03-.16.03h-.88v-7.2h1.17v4.78c0,.16,0,.33-.01.5,0,.17-.03.36-.05.55.06-.17.13-.33.2-.48.07-.15.14-.28.21-.39l3.05-4.6s.06-.09.09-.13c.04-.04.08-.08.12-.12s.09-.06.14-.08.1-.03.16-.03h.88Zm-2.94-.99c.13,0,.24-.01.33-.04.09-.03.16-.07.21-.13.05-.06.09-.14.12-.25s.04-.23.04-.39h.63c.08,0,.13.03.17.1.04.07.05.14.05.21,0,.17-.04.32-.11.45s-.17.24-.31.33c-.13.09-.3.16-.49.2s-.41.07-.64.07-.45-.02-.64-.07-.35-.11-.49-.2c-.13-.09-.24-.2-.31-.33s-.11-.28-.11-.45c0-.08.02-.15.05-.21.04-.07.09-.1.17-.1h.63c0,.16.01.29.03.39s.06.19.12.25c.05.06.12.11.21.13.09.03.2.04.33.04Z"/>
    <path class="cls-3" d="m72.74,52.73v2.3c0,.1-.03.18-.1.25-.07.06-.16.09-.27.09h-.7v-1.73h-5.53v1.39c0,.1-.03.18-.1.25s-.16.09-.27.09h-.7v-2.64h.76c.1-.05.19-.13.29-.24.1-.11.19-.27.28-.47.09-.2.18-.46.26-.77.08-.31.16-.69.22-1.14.07-.45.12-.97.17-1.58.05-.6.08-1.3.1-2.09h4.44v6.29h1.15Zm-2.32,0v-5.37h-2.16c-.04.76-.09,1.42-.16,2-.07.58-.15,1.08-.25,1.52-.1.43-.2.8-.31,1.1-.12.3-.24.55-.37.75h3.26Z"/>
    <path class="cls-3" d="m80.3,50.05c0,.53-.09,1.03-.26,1.48s-.42.84-.73,1.16-.69.58-1.13.76c-.44.18-.93.28-1.47.28s-1.03-.09-1.47-.28c-.44-.18-.82-.44-1.14-.76-.32-.33-.56-.71-.73-1.16s-.26-.94-.26-1.48.09-1.02.26-1.47.42-.84.73-1.17c.32-.33.7-.58,1.14-.76.44-.18.93-.28,1.47-.28s1.03.09,1.47.28c.44.18.82.44,1.13.76.31.33.56.71.73,1.17s.26.94.26,1.47Zm-1.2,0c0-.41-.06-.78-.17-1.11-.11-.33-.27-.61-.48-.84-.21-.23-.46-.41-.76-.53-.3-.12-.63-.19-1-.19s-.7.06-1,.19c-.3.12-.55.3-.76.53-.21.23-.37.51-.49.84s-.17.7-.17,1.11.06.79.17,1.12.28.61.49.84.46.4.76.52c.3.12.63.18,1,.18s.7-.06,1-.18c.3-.12.55-.3.76-.52.21-.23.37-.51.48-.84.11-.33.17-.7.17-1.12Z"/>
    <path class="cls-3" d="m87.42,53.65h-1.05c-.11,0-.21-.03-.29-.09-.08-.06-.15-.15-.21-.27l-1.71-2.51c-.04-.07-.09-.12-.13-.17s-.09-.08-.15-.11c-.05-.03-.11-.05-.18-.06s-.14-.02-.22-.02h-.83v3.23h-1.17v-7.2h1.17v3.08h.71c.15,0,.27-.02.37-.07.1-.05.2-.14.29-.27l1.72-2.42c.06-.09.13-.17.21-.23.08-.06.18-.09.29-.09h.99l-2.06,2.92c-.08.12-.18.22-.28.3-.11.08-.23.14-.36.19.19.05.35.13.48.25s.26.27.37.47l2.04,3.07Z"/>
    <path class="cls-3" d="m93.93,53.65h-1.17v-6.29h-2.16c-.05.91-.11,1.7-.2,2.37-.08.67-.18,1.24-.3,1.71s-.25.85-.39,1.15c-.14.3-.3.53-.48.7s-.36.28-.56.34c-.2.06-.41.09-.63.09-.42,0-.63-.07-.63-.22v-.74h.37c.12,0,.25-.02.37-.07s.25-.14.36-.29.23-.36.33-.64.2-.65.29-1.12.16-1.04.22-1.73c.06-.69.11-1.51.14-2.47h4.43v7.2Z"/>
    <path class="cls-3" d="m101.55,53.65h-.91c-.1,0-.18-.03-.25-.08-.07-.05-.11-.12-.14-.19l-.6-1.59h-3.11l-.6,1.59c-.03.07-.07.13-.14.19s-.15.08-.25.08h-.91l2.85-7.2h1.18l2.86,7.2Zm-2.21-2.7l-1-2.63c-.04-.1-.08-.22-.12-.35-.04-.13-.08-.27-.12-.43-.04.16-.08.3-.12.43s-.08.25-.12.35l-.99,2.62h2.47Z"/>
    <path class="cls-3" d="m109.3,52.73v2.3c0,.1-.03.18-.1.25s-.16.09-.27.09h-.7v-1.73h-5.53v1.39c0,.1-.03.18-.1.25s-.16.09-.27.09h-.7v-2.64h.76c.1-.05.19-.13.29-.24s.19-.27.28-.47c.09-.2.18-.46.26-.77.08-.31.16-.69.22-1.14.07-.45.12-.97.17-1.58s.08-1.3.11-2.09h4.43v6.29h1.15Zm-2.32,0v-5.37h-2.16c-.04.76-.09,1.42-.17,2-.07.58-.15,1.08-.25,1.52-.1.43-.2.8-.32,1.1s-.24.55-.37.75h3.26Z"/>
  </g>
  <polygon class="cls-7" points="0 11.25 0 .12 11.1 .12 0 11.25"/>
  <g>
    <rect class="cls-5" x="0" y="1" width="60" height="60"/>
    <polygon class="cls-2" points="60 17.32 0 61 0 1 60 1 60 17.32"/>
  </g>
  <path class="cls-7" d="m53.12,54.71h-8.46v8.34H-2V15.26H6.46V6.92h8.51V-1.38h46.61v47.79h-8.46v8.29Zm-10.57-37.39H.1v43.66h42.45V17.32ZM6.46,27.72v-2.06h29.69v2.06H6.46Zm0,8.29v-2.06h29.69v2.06H6.46Zm0,8.34v-2.06h29.69v2.06H6.46Zm0,8.29v-2.06h29.69v2.06H6.46Zm2.1-43.66v6.27h36.09v37.39h6.36V8.98H8.57ZM17.07.69v6.23h36.04v37.43h6.36V.69H17.07Z"/>
</svg>