<?xml version="1.0" encoding="UTF-8"?>
<svg id="Layer_1" data-name="Layer 1" xmlns="http://www.w3.org/2000/svg" width="160" height="62" xmlns:xlink="http://www.w3.org/1999/xlink" viewBox="0 0 160 62">
  <defs>
    <style>
      .cls-1 {
        clip-path: url(#clippath);
      }

      .cls-2 {
        fill: none;
      }

      .cls-2, .cls-3, .cls-4, .cls-5, .cls-6, .cls-7, .cls-8 {
        stroke-width: 0px;
      }

      .cls-3 {
        fill: url(#_Безымянный_градиент_11);
        opacity: .7;
      }

      .cls-9 {
        clip-path: url(#clippath-1);
      }

      .cls-10 {
        clip-path: url(#clippath-4);
      }

      .cls-11 {
        clip-path: url(#clippath-3);
      }

      .cls-12 {
        clip-path: url(#clippath-2);
      }

      .cls-13 {
        clip-path: url(#clippath-6);
      }

      .cls-14 {
        clip-path: url(#clippath-5);
      }

      .cls-15 {
        opacity: .6;
      }

      .cls-5 {
        fill: #c8c7c7;
      }

      .cls-6 {
        fill: #be1e2d;
      }

      .cls-7 {
        fill: #c1272d;
      }

      .cls-8 {
        fill: #fff;
      }
    </style>
    <linearGradient id="_Безымянный_градиент_11" data-name="Безымянный градиент 11" x1="30" y1="57.74" x2="30" y2="6.88" gradientUnits="userSpaceOnUse">
      <stop offset="0" stop-color="red"/>
      <stop offset="1" stop-color="red" stop-opacity="0"/>
    </linearGradient>
    <clipPath id="clippath">
      <polyline class="cls-2" points="160 61 60 61 60 1 160 1 160 61"/>
    </clipPath>
    <clipPath id="clippath-1">
      <polyline class="cls-2" points="0 129 72 129 72 57 0 57 0 129"/>
    </clipPath>
    <clipPath id="clippath-2">
      <polyline class="cls-2" points="72 129 144 129 144 57 72 57 72 129"/>
    </clipPath>
    <clipPath id="clippath-3">
      <polyline class="cls-2" points="144 129 216 129 216 57 144 57 144 129"/>
    </clipPath>
    <clipPath id="clippath-4">
      <polyline class="cls-2" points="0 57 72 57 72 -15 0 -15 0 57"/>
    </clipPath>
    <clipPath id="clippath-5">
      <polyline class="cls-2" points="72 57 144 57 144 -15 72 -15 72 57"/>
    </clipPath>
    <clipPath id="clippath-6">
      <polyline class="cls-2" points="144 57 216 57 216 -15 144 -15 144 57"/>
    </clipPath>
  </defs>
  <g>
    <rect class="cls-6" y="1" width="60" height="60"/>
    <polygon class="cls-3" points="60 17.32 0 61 0 1 60 1 60 17.32"/>
  </g>
  <g class="cls-15">
    <g class="cls-1">
      <g class="cls-9">
        <polyline class="cls-5" points="63.24 57 62.82 57 60 59.82 60 60.24 63.24 57"/>
        <polyline class="cls-5" points="69.24 57 68.82 57 64.82 61 65.24 61 69.24 57"/>
        <polyline class="cls-5" points="72 59.82 70.82 61 71.24 61 72 60.24 72 59.82"/>
      </g>
      <g class="cls-12">
        <polyline class="cls-5" points="75.24 57 74.82 57 72 59.82 72 60.24 75.24 57"/>
        <polyline class="cls-5" points="81.24 57 80.82 57 76.82 61 77.24 61 81.24 57"/>
        <polyline class="cls-5" points="87.24 57 86.82 57 82.82 61 83.24 61 87.24 57"/>
        <polyline class="cls-5" points="93.24 57 92.82 57 88.82 61 89.24 61 93.24 57"/>
        <polyline class="cls-5" points="99.24 57 98.82 57 94.82 61 95.24 61 99.24 57"/>
        <polyline class="cls-5" points="105.24 57 104.82 57 100.82 61 101.24 61 105.24 57"/>
        <polyline class="cls-5" points="111.24 57 110.82 57 106.82 61 107.24 61 111.24 57"/>
        <polyline class="cls-5" points="117.24 57 116.82 57 112.82 61 113.24 61 117.24 57"/>
        <polyline class="cls-5" points="123.24 57 122.82 57 118.82 61 119.24 61 123.24 57"/>
        <polyline class="cls-5" points="129.24 57 128.82 57 124.82 61 125.24 61 129.24 57"/>
        <polyline class="cls-5" points="135.24 57 134.82 57 130.82 61 131.24 61 135.24 57"/>
        <polyline class="cls-5" points="141.24 57 140.82 57 136.82 61 137.24 61 141.24 57"/>
        <polyline class="cls-5" points="144 59.82 142.82 61 143.24 61 144 60.24 144 59.82"/>
      </g>
      <g class="cls-11">
        <polyline class="cls-5" points="147.24 57 146.82 57 144 59.82 144 60.24 147.24 57"/>
        <polyline class="cls-5" points="153.24 57 152.82 57 148.82 61 149.24 61 153.24 57"/>
        <polyline class="cls-5" points="159.24 57 158.82 57 154.82 61 155.24 61 159.24 57"/>
      </g>
      <g class="cls-10">
        <polyline class="cls-5" points="65.24 1 64.82 1 60 5.82 60 6.24 65.24 1"/>
        <polyline class="cls-5" points="71.24 1 70.82 1 60 11.82 60 12.24 71.24 1"/>
        <polyline class="cls-5" points="72 5.82 60 17.82 60 18.24 72 6.24 72 5.82"/>
        <polyline class="cls-5" points="72 11.82 60 23.82 60 24.24 72 12.24 72 11.82"/>
        <polyline class="cls-5" points="72 17.82 60 29.82 60 30.24 72 18.24 72 17.82"/>
        <polyline class="cls-5" points="72 23.82 60 35.82 60 36.24 72 24.24 72 23.82"/>
        <polyline class="cls-5" points="72 29.82 60 41.82 60 42.24 72 30.24 72 29.82"/>
        <polyline class="cls-5" points="72 35.82 60 47.82 60 48.24 72 36.24 72 35.82"/>
        <polyline class="cls-5" points="72 41.82 60 53.82 60 54.24 72 42.24 72 41.82"/>
        <polyline class="cls-5" points="72 47.82 62.82 57 63.24 57 72 48.24 72 47.82"/>
        <polyline class="cls-5" points="72 53.82 68.82 57 69.24 57 72 54.24 72 53.82"/>
      </g>
      <g class="cls-14">
        <polyline class="cls-5" points="77.24 1 76.82 1 72 5.82 72 6.24 77.24 1"/>
        <polyline class="cls-5" points="83.24 1 82.82 1 72 11.82 72 12.24 83.24 1"/>
        <polyline class="cls-5" points="89.24 1 88.82 1 72 17.82 72 18.24 89.24 1"/>
        <polyline class="cls-5" points="95.24 1 94.82 1 72 23.82 72 24.24 95.24 1"/>
        <polyline class="cls-5" points="101.24 1 100.82 1 72 29.82 72 30.24 101.24 1"/>
        <polyline class="cls-5" points="107.24 1 106.82 1 72 35.82 72 36.24 107.24 1"/>
        <polyline class="cls-5" points="113.24 1 112.82 1 72 41.82 72 42.24 113.24 1"/>
        <polyline class="cls-5" points="119.24 1 118.82 1 72 47.82 72 48.24 119.24 1"/>
        <polyline class="cls-5" points="125.24 1 124.82 1 72 53.82 72 54.24 125.24 1"/>
        <polyline class="cls-5" points="131.24 1 130.82 1 74.82 57 75.24 57 131.24 1"/>
        <polyline class="cls-5" points="137.24 1 136.82 1 80.82 57 81.24 57 137.24 1"/>
        <polyline class="cls-5" points="143.24 1 142.82 1 86.82 57 87.24 57 143.24 1"/>
        <polyline class="cls-5" points="144 5.82 92.82 57 93.24 57 144 6.24 144 5.82"/>
        <polyline class="cls-5" points="144 11.82 98.82 57 99.24 57 144 12.24 144 11.82"/>
        <polyline class="cls-5" points="144 17.82 104.82 57 105.24 57 144 18.24 144 17.82"/>
        <polyline class="cls-5" points="144 23.82 110.82 57 111.24 57 144 24.24 144 23.82"/>
        <polyline class="cls-5" points="144 29.82 116.82 57 117.24 57 144 30.24 144 29.82"/>
        <polyline class="cls-5" points="144 35.82 122.82 57 123.24 57 144 36.24 144 35.82"/>
        <polyline class="cls-5" points="144 41.82 128.82 57 129.24 57 144 42.24 144 41.82"/>
        <polyline class="cls-5" points="144 47.82 134.82 57 135.24 57 144 48.24 144 47.82"/>
        <polyline class="cls-5" points="144 53.82 140.82 57 141.24 57 144 54.24 144 53.82"/>
      </g>
      <g class="cls-13">
        <polyline class="cls-5" points="149.24 1 148.82 1 144 5.82 144 6.24 149.24 1"/>
        <polyline class="cls-5" points="155.24 1 154.82 1 144 11.82 144 12.24 155.24 1"/>
        <polyline class="cls-5" points="160 1.82 144 17.82 144 18.24 160 2.24 160 1.82"/>
        <polyline class="cls-5" points="160 7.82 144 23.82 144 24.24 160 8.24 160 7.82"/>
        <polyline class="cls-5" points="160 13.82 144 29.82 144 30.24 160 14.24 160 13.82"/>
        <polyline class="cls-5" points="160 19.82 144 35.82 144 36.24 160 20.24 160 19.82"/>
        <polyline class="cls-5" points="160 25.82 144 41.82 144 42.24 160 26.24 160 25.82"/>
        <polyline class="cls-5" points="160 31.82 144 47.82 144 48.24 160 32.24 160 31.82"/>
        <polyline class="cls-5" points="160 37.82 144 53.82 144 54.24 160 38.24 160 37.82"/>
        <polyline class="cls-5" points="160 43.82 146.82 57 147.24 57 160 44.24 160 43.82"/>
        <polyline class="cls-5" points="160 49.82 152.82 57 153.24 57 160 50.24 160 49.82"/>
        <polyline class="cls-5" points="160 55.82 158.82 57 159.24 57 160 56.24 160 55.82"/>
      </g>
    </g>
  </g>
  <polygon class="cls-7" points="160 49.88 160 61 148.9 61 160 49.88"/>
  <polygon class="cls-8" points="0 11.12 0 0 11.1 0 0 11.12"/>
  <g>
    <path class="cls-7" d="m72.84,23.61h-1.27c-.14,0-.25-.04-.34-.11-.09-.07-.18-.18-.26-.32l-2.05-3.02c-.05-.08-.1-.15-.16-.2s-.11-.1-.17-.13c-.06-.03-.14-.06-.22-.07-.08-.01-.17-.02-.27-.02h-1v3.87h-1.4v-8.64h1.4v3.7h.85c.18,0,.32-.03.44-.08.12-.06.24-.16.35-.32l2.07-2.9c.07-.11.15-.2.25-.28.1-.07.22-.11.35-.11h1.19l-2.47,3.5c-.1.15-.21.27-.34.37s-.27.17-.43.23c.22.06.42.16.57.29.16.14.31.32.45.56l2.44,3.68Z"/>
    <path class="cls-7" d="m80.46,14.97l-3.5,7.47c-.12.25-.24.45-.38.61-.13.16-.28.29-.43.38-.15.09-.32.16-.5.2-.18.04-.37.06-.57.06-.5,0-.75-.09-.75-.27v-.89h.44c.1,0,.19,0,.29-.03s.19-.06.28-.1.18-.12.26-.21.16-.21.23-.35l.38-.78-3.47-6.09h1.31c.12,0,.22.03.29.09.07.06.13.14.19.23l1.9,3.5c.16.31.3.63.4.97.04-.17.1-.33.16-.49.06-.16.13-.32.21-.49l1.63-3.5c.04-.08.09-.15.17-.22s.18-.1.29-.1h1.16Z"/>
    <path class="cls-7" d="m87.31,23.61h-1.41v-7.54h-2.59c-.06,1.09-.13,2.04-.23,2.84-.1.8-.22,1.49-.36,2.05s-.29,1.02-.47,1.38c-.17.36-.37.63-.58.83-.21.2-.44.34-.67.41-.24.07-.49.11-.76.11-.5,0-.76-.09-.76-.27v-.89h.44c.15,0,.3-.03.45-.08.15-.05.29-.17.43-.35.14-.18.27-.43.4-.77.13-.33.24-.78.35-1.34.1-.56.19-1.25.27-2.07.07-.82.13-1.81.17-2.96h5.32v8.64Z"/>
    <path class="cls-7" d="m92.18,18.61c.54,0,1.01.06,1.4.18.39.12.71.29.96.5s.44.46.55.75.18.6.18.93c0,.4-.07.77-.21,1.09-.14.33-.34.6-.6.84-.26.23-.59.41-.97.53-.39.12-.83.19-1.32.19h-2.93v-8.64h1.4v3.64h1.54Zm0,3.89c.32,0,.58-.04.8-.1.22-.07.4-.17.53-.29s.24-.27.3-.44c.06-.17.09-.35.09-.55,0-.22-.03-.41-.09-.58-.06-.17-.16-.32-.29-.44s-.31-.21-.53-.27c-.22-.06-.48-.1-.8-.1h-1.54v2.78h1.53Z"/>
    <path class="cls-7" d="m101.4,16.14h-2.69v7.47h-1.4v-7.47h-2.7v-1.17h6.79v1.17Z"/>
    <path class="cls-7" d="m109.14,14.97l-3.5,7.47c-.12.25-.24.45-.38.61-.13.16-.28.29-.43.38-.15.09-.32.16-.5.2-.18.04-.37.06-.57.06-.5,0-.75-.09-.75-.27v-.89h.44c.1,0,.19,0,.29-.03s.19-.06.28-.1.18-.12.26-.21.16-.21.23-.35l.38-.78-3.47-6.09h1.31c.12,0,.22.03.29.09.07.06.13.14.19.23l1.9,3.5c.16.31.3.63.4.97.04-.17.1-.33.16-.49.06-.16.13-.32.21-.49l1.63-3.5c.04-.08.09-.15.17-.22s.18-.1.29-.1h1.16Z"/>
    <path class="cls-7" d="m112.68,14.97c.56,0,1.05.07,1.47.2.41.13.76.32,1.03.55.27.24.47.52.6.86.13.33.2.7.2,1.11s-.07.79-.21,1.13-.35.64-.62.88c-.28.25-.62.44-1.03.58-.41.14-.89.21-1.43.21h-1.28v3.13h-1.4v-8.64h2.69Zm0,4.4c.31,0,.59-.04.83-.12s.44-.19.59-.34.28-.32.36-.53.12-.44.12-.7-.04-.48-.12-.68c-.08-.2-.2-.37-.35-.51-.16-.14-.35-.25-.59-.32-.24-.07-.52-.11-.84-.11h-1.28v3.31h1.28Z"/>
    <path class="cls-7" d="m123.82,23.61h-1.09c-.12,0-.22-.03-.3-.09-.08-.06-.14-.14-.17-.23l-.72-1.91h-3.73l-.72,1.91c-.03.08-.09.15-.17.22s-.18.1-.29.1h-1.09l3.43-8.64h1.42l3.43,8.64Zm-2.65-3.24l-1.19-3.16c-.04-.12-.09-.26-.14-.42s-.1-.33-.15-.51c-.04.19-.09.36-.14.52-.05.16-.1.3-.15.42l-1.19,3.15h2.96Z"/>
    <path class="cls-7" d="m68.58,27.97c.55,0,1.02.05,1.42.16.39.11.71.26.97.45.25.2.44.44.55.72.12.28.18.6.18.95,0,.2-.03.4-.09.59-.06.19-.16.37-.29.53s-.29.31-.49.45c-.2.13-.43.24-.7.33,1.22.26,1.84.91,1.84,1.95,0,.37-.07.7-.21,1.01s-.34.57-.6.79c-.26.22-.58.4-.97.52s-.82.19-1.31.19h-3.17v-8.64h2.87Zm-1.47,1.1v2.7h1.4c.6,0,1.05-.12,1.34-.35s.44-.57.44-1c0-.48-.14-.82-.42-1.03-.28-.21-.71-.32-1.3-.32h-1.47Zm1.74,6.43c.32,0,.58-.04.8-.11.22-.07.4-.17.53-.3s.24-.28.3-.45c.06-.17.09-.36.09-.56,0-.41-.14-.73-.42-.96-.28-.23-.72-.35-1.32-.35h-1.73v2.74h1.74Z"/>
    <path class="cls-7" d="m78.98,27.97c.56,0,1.05.07,1.47.2.41.13.76.32,1.03.55.27.24.47.52.6.86.13.33.2.7.2,1.11s-.07.79-.21,1.13-.35.64-.62.88c-.28.25-.62.44-1.03.58-.41.14-.89.21-1.43.21h-1.28v3.13h-1.4v-8.64h2.69Zm0,4.4c.31,0,.59-.04.83-.12s.44-.19.59-.34.28-.32.36-.53.12-.44.12-.7-.04-.48-.12-.68c-.08-.2-.2-.37-.35-.51-.16-.14-.35-.25-.59-.32-.24-.07-.52-.11-.84-.11h-1.28v3.31h1.28Z"/>
    <path class="cls-7" d="m91.62,32.29c0,.64-.1,1.23-.31,1.77s-.5,1-.88,1.4c-.38.39-.83.69-1.36.91-.53.22-1.12.33-1.77.33s-1.23-.11-1.76-.33c-.53-.22-.99-.52-1.37-.91-.38-.39-.67-.85-.88-1.4s-.31-1.13-.31-1.77.1-1.23.31-1.77.5-1.01.88-1.4.83-.7,1.37-.92c.53-.22,1.12-.33,1.76-.33s1.24.11,1.77.33c.53.22.98.53,1.36.92s.67.86.88,1.4.31,1.13.31,1.77Zm-1.43,0c0-.5-.07-.94-.2-1.34s-.33-.73-.58-1.01-.55-.49-.91-.64c-.36-.15-.76-.22-1.2-.22s-.84.07-1.19.22c-.36.15-.66.36-.91.64s-.45.61-.58,1.01-.2.84-.2,1.34.07.95.2,1.34.33.73.58,1c.25.27.56.48.91.63.36.15.75.22,1.19.22s.84-.07,1.2-.22c.36-.15.66-.36.91-.63.25-.27.44-.61.58-1s.2-.84.2-1.34Z"/>
    <path class="cls-7" d="m99.03,34.69c.08,0,.14.03.2.09l.56.61c-.35.42-.78.75-1.3.98-.51.23-1.12.35-1.84.35-.63,0-1.2-.11-1.71-.33-.51-.22-.94-.52-1.3-.91-.36-.39-.64-.85-.83-1.4-.19-.54-.29-1.13-.29-1.78s.1-1.24.31-1.79.5-1.01.87-1.4c.37-.39.82-.69,1.34-.91.52-.22,1.1-.32,1.72-.32s1.17.1,1.65.3c.48.2.89.47,1.25.81l-.46.65s-.07.08-.11.11c-.04.03-.1.05-.18.05-.08,0-.17-.04-.27-.11-.1-.07-.23-.16-.39-.25-.16-.09-.36-.17-.59-.25-.24-.07-.53-.11-.89-.11-.41,0-.79.07-1.13.22s-.64.35-.89.63c-.25.28-.44.61-.58,1.01-.14.4-.21.85-.21,1.35s.07.96.22,1.36c.14.4.34.73.59,1.01s.55.48.89.63c.34.14.71.22,1.1.22.24,0,.46-.01.64-.04.19-.03.37-.07.53-.13s.31-.13.45-.22c.14-.09.28-.2.42-.32.08-.07.16-.11.24-.11Z"/>
    <path class="cls-7" d="m106.71,34.69c.08,0,.14.03.2.09l.56.61c-.35.42-.78.75-1.3.98-.51.23-1.12.35-1.84.35-.63,0-1.2-.11-1.71-.33-.51-.22-.94-.52-1.3-.91-.36-.39-.64-.85-.83-1.4-.19-.54-.29-1.13-.29-1.78s.1-1.24.31-1.79.5-1.01.87-1.4c.37-.39.82-.69,1.34-.91.52-.22,1.1-.32,1.72-.32s1.17.1,1.65.3c.48.2.89.47,1.25.81l-.46.65s-.07.08-.11.11c-.04.03-.1.05-.18.05-.08,0-.17-.04-.27-.11-.1-.07-.23-.16-.39-.25-.16-.09-.36-.17-.59-.25-.24-.07-.53-.11-.89-.11-.41,0-.79.07-1.13.22s-.64.35-.89.63c-.25.28-.44.61-.58,1.01-.14.4-.21.85-.21,1.35s.07.96.22,1.36c.14.4.34.73.59,1.01s.55.48.89.63c.34.14.71.22,1.1.22.24,0,.46-.01.64-.04.19-.03.37-.07.53-.13s.31-.13.45-.22c.14-.09.28-.2.42-.32.08-.07.16-.11.24-.11Z"/>
    <path class="cls-7" d="m115.72,27.97v8.64h-1.4v-5.74c0-.19,0-.39.01-.6s.03-.43.06-.67c-.08.21-.16.4-.24.58-.09.18-.17.34-.26.47l-3.66,5.52c-.03.05-.07.1-.11.16-.04.05-.09.1-.14.14-.05.04-.11.08-.17.1-.06.03-.12.04-.19.04h-1.05v-8.64h1.41v5.73c0,.19,0,.39-.01.6s-.03.43-.06.66c.08-.2.16-.4.24-.57.09-.18.17-.33.25-.47l3.66-5.52c.03-.05.07-.1.11-.16.04-.05.09-.1.14-.14.05-.04.11-.08.17-.1.06-.03.12-.04.19-.04h1.05Z"/>
    <path class="cls-7" d="m124.81,27.97v8.64h-1.4v-5.74c0-.19,0-.39.01-.6s.03-.43.06-.67c-.08.21-.16.4-.24.58-.09.18-.17.34-.26.47l-3.66,5.52c-.03.05-.07.1-.11.16-.04.05-.09.1-.14.14-.05.04-.11.08-.17.1-.06.03-.12.04-.19.04h-1.05v-8.64h1.41v5.73c0,.19,0,.39-.01.6s-.03.43-.06.66c.08-.2.16-.4.24-.57.09-.18.17-.33.25-.47l3.66-5.52c.03-.05.07-.1.11-.16.04-.05.09-.1.14-.14.05-.04.11-.08.17-.1.06-.03.12-.04.19-.04h1.05Z"/>
    <path class="cls-4" d="m70.47,48.4c.14,0,.25.04.32.12.08.08.12.19.12.32v.78h-5.73v-.44c0-.09.02-.18.05-.28.04-.1.09-.18.17-.26l2.63-2.69c.22-.23.42-.45.6-.65.17-.21.32-.42.45-.62.12-.21.22-.42.28-.63s.1-.44.1-.67-.03-.43-.1-.6c-.07-.17-.16-.32-.28-.43-.12-.11-.26-.2-.43-.26-.17-.06-.35-.09-.55-.09s-.37.03-.53.08c-.16.06-.31.13-.43.23-.13.1-.23.22-.32.36-.08.14-.15.29-.19.45-.06.16-.13.27-.23.33-.09.06-.23.07-.4.04l-.67-.12c.06-.41.17-.77.33-1.07.16-.31.37-.56.61-.77s.53-.36.85-.47.67-.16,1.04-.16.72.06,1.04.17c.32.11.59.28.82.49s.41.47.54.77c.13.3.19.64.19,1.01,0,.32-.05.62-.14.89-.09.27-.22.53-.37.78-.16.25-.34.49-.55.72-.21.23-.43.47-.66.71l-2.05,2.14c.17-.05.34-.09.51-.11.17-.03.33-.04.49-.04h2.49Z"/>
    <path class="cls-4" d="m77.65,45.29c0,.76-.08,1.41-.24,1.96-.16.55-.38,1.01-.66,1.37-.28.36-.61.63-.98.81-.38.18-.78.26-1.22.26s-.84-.09-1.22-.26c-.38-.18-.7-.45-.98-.81-.28-.36-.49-.82-.65-1.37-.16-.55-.24-1.21-.24-1.96s.08-1.41.24-1.97c.16-.55.37-1.01.65-1.37.28-.36.6-.63.98-.81.38-.18.78-.27,1.22-.27s.84.09,1.22.27c.38.18.7.45.98.81.28.36.5.82.66,1.37.16.55.24,1.21.24,1.97Zm-1.3,0c0-.64-.05-1.17-.15-1.6-.1-.43-.23-.77-.4-1.02-.17-.26-.36-.44-.57-.55-.22-.11-.44-.16-.67-.16s-.46.05-.67.16c-.21.11-.4.29-.57.55-.17.26-.3.6-.39,1.02-.1.43-.15.96-.15,1.6s.05,1.17.15,1.6c.1.43.23.77.39,1.02.16.26.35.44.57.55s.44.16.67.16.46-.05.67-.16c.21-.11.41-.29.57-.55.16-.26.3-.6.4-1.02.1-.43.15-.96.15-1.6Z"/>
    <path class="cls-4" d="m83.66,48.64v.98h-4.62v-.98h1.76v-5.41c0-.19,0-.39.02-.59l-1.36,1.17c-.06.05-.12.08-.18.09-.06.01-.12.01-.17,0-.05-.01-.1-.03-.14-.06s-.07-.05-.1-.09l-.39-.56,2.55-2.24h1.03v7.68h1.59Z"/>
    <path class="cls-4" d="m89.87,48.4c.14,0,.25.04.32.12.08.08.12.19.12.32v.78h-5.73v-.44c0-.09.02-.18.05-.28.04-.1.09-.18.17-.26l2.63-2.69c.22-.23.42-.45.6-.65.17-.21.32-.42.45-.62.12-.21.22-.42.28-.63s.1-.44.1-.67-.03-.43-.1-.6c-.07-.17-.16-.32-.28-.43-.12-.11-.26-.2-.43-.26-.17-.06-.35-.09-.55-.09s-.37.03-.53.08c-.16.06-.31.13-.43.23-.13.1-.23.22-.32.36-.08.14-.15.29-.19.45-.06.16-.13.27-.23.33-.09.06-.23.07-.4.04l-.67-.12c.06-.41.17-.77.33-1.07.16-.31.37-.56.61-.77s.53-.36.85-.47.67-.16,1.04-.16.72.06,1.04.17c.32.11.59.28.82.49s.41.47.54.77c.13.3.19.64.19,1.01,0,.32-.05.62-.14.89-.09.27-.22.53-.37.78-.16.25-.34.49-.55.72-.21.23-.43.47-.66.71l-2.05,2.14c.17-.05.34-.09.51-.11.17-.03.33-.04.49-.04h2.49Z"/>
    <path class="cls-4" d="m91.59,45.02h4.74v.93h-4.74v-.93Z"/>
    <path class="cls-4" d="m102.81,48.4c.14,0,.25.04.32.12.08.08.12.19.12.32v.78h-5.73v-.44c0-.09.02-.18.05-.28.04-.1.09-.18.17-.26l2.63-2.69c.22-.23.42-.45.6-.65.17-.21.32-.42.45-.62.12-.21.22-.42.28-.63s.1-.44.1-.67-.03-.43-.1-.6c-.07-.17-.16-.32-.28-.43-.12-.11-.26-.2-.43-.26-.17-.06-.35-.09-.55-.09s-.37.03-.53.08c-.16.06-.31.13-.43.23-.13.1-.23.22-.32.36-.08.14-.15.29-.19.45-.06.16-.13.27-.23.33-.09.06-.23.07-.4.04l-.67-.12c.06-.41.17-.77.33-1.07.16-.31.37-.56.61-.77s.53-.36.85-.47.67-.16,1.04-.16.72.06,1.04.17c.32.11.59.28.82.49s.41.47.54.77c.13.3.19.64.19,1.01,0,.32-.05.62-.14.89-.09.27-.22.53-.37.78-.16.25-.34.49-.55.72-.21.23-.43.47-.66.71l-2.05,2.14c.17-.05.34-.09.51-.11.17-.03.33-.04.49-.04h2.49Z"/>
    <path class="cls-4" d="m109.99,45.29c0,.76-.08,1.41-.24,1.96-.16.55-.38,1.01-.66,1.37-.28.36-.61.63-.98.81-.38.18-.78.26-1.22.26s-.84-.09-1.22-.26c-.38-.18-.7-.45-.98-.81-.28-.36-.49-.82-.65-1.37-.16-.55-.24-1.21-.24-1.96s.08-1.41.24-1.97c.16-.55.37-1.01.65-1.37.28-.36.6-.63.98-.81.38-.18.78-.27,1.22-.27s.84.09,1.22.27c.38.18.7.45.98.81.28.36.5.82.66,1.37.16.55.24,1.21.24,1.97Zm-1.3,0c0-.64-.05-1.17-.15-1.6-.1-.43-.23-.77-.4-1.02-.17-.26-.36-.44-.57-.55-.22-.11-.44-.16-.67-.16s-.46.05-.67.16c-.21.11-.4.29-.57.55-.17.26-.3.6-.39,1.02-.1.43-.15.96-.15,1.6s.05,1.17.15,1.6c.1.43.23.77.39,1.02.16.26.35.44.57.55s.44.16.67.16.46-.05.67-.16c.21-.11.41-.29.57-.55.16-.26.3-.6.4-1.02.1-.43.15-.96.15-1.6Z"/>
    <path class="cls-4" d="m116,48.64v.98h-4.62v-.98h1.76v-5.41c0-.19,0-.39.02-.59l-1.36,1.17c-.06.05-.12.08-.18.09-.06.01-.12.01-.17,0-.05-.01-.1-.03-.14-.06s-.07-.05-.1-.09l-.39-.56,2.55-2.24h1.03v7.68h1.59Z"/>
    <path class="cls-4" d="m120.41,46.22c.08-.1.15-.19.22-.28.07-.09.13-.18.19-.27-.2.15-.43.26-.68.34s-.52.12-.8.12c-.31,0-.6-.05-.88-.16s-.53-.26-.75-.47c-.22-.21-.4-.47-.53-.78-.13-.31-.2-.67-.2-1.07,0-.38.07-.74.21-1.07.14-.34.33-.63.58-.88.25-.25.55-.45.9-.59s.74-.22,1.16-.22.8.07,1.14.21c.34.14.63.33.87.58.24.25.42.55.55.89.13.35.19.73.19,1.14,0,.26-.02.51-.07.74s-.11.46-.19.67c-.08.22-.19.43-.31.64s-.25.42-.4.64l-1.99,2.92c-.06.09-.15.16-.26.22-.12.06-.25.08-.39.08h-1.16l2.6-3.39Zm-2.17-2.68c0,.51.13.9.4,1.18s.64.41,1.13.41c.26,0,.49-.04.68-.13.2-.08.37-.2.5-.34.14-.14.24-.31.31-.5.07-.19.11-.39.11-.61,0-.25-.04-.48-.12-.67-.08-.2-.18-.37-.32-.51-.14-.14-.3-.25-.5-.32-.19-.07-.4-.11-.63-.11-.24,0-.46.04-.65.12-.19.08-.36.19-.49.33s-.24.31-.32.5-.11.41-.11.64Z"/>
  </g>
  <path class="cls-8" d="m19.48,43.85c-.36,5.53-3.31,8.62-8.84,9.26l-1.03.12c-2.8.32-4.87,1.73-6.22,4.22-.24-4.66.75-8.44,2.98-11.34,2.23-2.89,5.54-4.69,9.92-5.4l8.62-12.8c2.3-3.4,6.38-7.03,12.24-10.88l11.22-7.38c4.88-3.22,7.67-4.87,8.38-4.95,1.13-.13,1.75.3,1.87,1.28.09.81-.62,2.24-2.14,4.29-.68.92-1.39,1.9-2.14,2.94-.66.9-1.15,1.54-1.46,1.94l-7.32,9.2c-4.38,5.58-8.42,9.43-12.13,11.56l-13.95,7.93Zm7.88-6.27c-.81-1.72-2.26-3.07-4.34-4.02l-5.36,7.75c.63.15,1.05.53,1.27,1.14l8.43-4.87Zm4.11-2.12l.57-.34c3.77-2.03,8.43-6.59,13.98-13.69l6.09-7.77c1.39-1.74,2.88-3.76,4.48-6.06.09-.13.32-.44.69-.92l-.67-.55c-.8.41-1.83,1.06-3.08,1.94-1.02.7-2.33,1.58-3.92,2.64l-7.92,5.17c-8.44,5.53-13.74,9.98-15.87,13.36l-.29.45c2.9,1.3,4.88,3.22,5.94,5.75Z"/>
  <path class="cls-8" d="m55.13,57.4l1.17-.72c-2.27-3.37-3.92-7.07-4.94-11.1l-8.25-5.64c.71-.48,1.12-.9,1.21-1.26.24-.9-2.4-4.21-7.95-9.92l-4.37-4.47c.25-.25.4-.47.44-.65.12-.46-.16-1.02-.83-1.68-.14-.16-.33-.36-.58-.6l-5.41-5.54c-6.44-6.64-11.22-10.37-14.33-11.21-1.2-.32-2.71,0-4.55.96-1.83.96-2.9,2-3.19,3.1-.26.97.52,2.88,2.35,5.73,1.83,2.85,4.09,5.69,6.8,8.53l5.17,5.43c1.14,1.2,2.01,1.89,2.59,2.07.25.08.69.03,1.33-.15l4.27,4.47c5.12,5.35,8.43,8.23,9.92,8.63.48.13,1.25-.01,2.28-.42l4.68,7.65c4.58,1.98,8.65,4.25,12.2,6.81Zm-16.68-16.81c.54-.42,1.16-.76,1.86-1.03l9.72,6.7c.12.33.39,1.21.81,2.65.1.36.66,1.65,1.67,3.86l-3.96-4.02.08-.19c.22-.84-.21-1.4-1.3-1.7-1.09-.29-1.75-.02-1.97.82-.22.82.2,1.38,1.28,1.66.15.04.38.07.69.08l4.01,4.06c-2.02-1.18-4.08-2.25-6.17-3.21-.14-.07-.44-.22-.89-.45l-5.84-9.23Zm-17.67-13.13c1.8-2.71,4.4-4.29,7.78-4.73l5.32,5.49c2.74,2.83,5.43,5.88,8.09,9.17-2.68.6-4.92,1.97-6.71,4.1-4.22-3.75-7.36-6.7-9.42-8.84l-5.06-5.19Zm-1.66.03l-3.39-3.5c-7.51-7.77-10.97-12.77-10.38-14.99.23-.85,1.04-1.63,2.43-2.34,1.39-.7,2.56-.93,3.51-.67,2.63.7,7.55,4.76,14.78,12.18l3.1,3.18c-4.79.23-8.14,2.28-10.05,6.14ZM10.27,9.9l-2.5,1.52c.38,1.44,1.69,3.3,3.92,5.57l4.35,4.44c-.08.98.49,1.64,1.73,1.97,1.43.38,2.29.03,2.58-1.05.29-1.08-.27-1.82-1.67-2.19-.23-.06-.57-.1-1.02-.11l-3.18-3.15c-2.56-2.55-3.96-4.88-4.21-6.99Z"/>
</svg>