<?xml version="1.0" encoding="UTF-8"?>
<svg id="Layer_1" data-name="Layer 1" xmlns="http://www.w3.org/2000/svg" width="160" height="62" xmlns:xlink="http://www.w3.org/1999/xlink" viewBox="0 0 160 62">
  <defs>
    <style>
      .cls-1 {
        clip-path: url(#clippath);
      }

      .cls-2 {
        fill: none;
      }

      .cls-2, .cls-3, .cls-4, .cls-5, .cls-6, .cls-7 {
        stroke-width: 0px;
      }

      .cls-3 {
        fill: url(#_Безымянный_градиент_8);
        opacity: .7;
      }

      .cls-8 {
        clip-path: url(#clippath-1);
      }

      .cls-9 {
        clip-path: url(#clippath-4);
      }

      .cls-10 {
        clip-path: url(#clippath-3);
      }

      .cls-11 {
        clip-path: url(#clippath-2);
      }

      .cls-12 {
        clip-path: url(#clippath-6);
      }

      .cls-13 {
        clip-path: url(#clippath-5);
      }

      .cls-14 {
        opacity: .6;
      }

      .cls-4 {
        fill: #214b9a;
      }

      .cls-5 {
        fill: #c8c7c7;
      }

      .cls-6 {
        fill: #c1272d;
      }

      .cls-7 {
        fill: #fff;
      }
    </style>
    <linearGradient id="_Безымянный_градиент_8" data-name="Безымянный градиент 8" x1="30" y1="57.74" x2="30" y2="6.88" gradientUnits="userSpaceOnUse">
      <stop offset="0" stop-color="#0071bc"/>
      <stop offset="1" stop-color="#0071bc" stop-opacity="0"/>
    </linearGradient>
    <clipPath id="clippath">
      <polyline class="cls-2" points="160 61 60 61 60 1 160 1 160 61"/>
    </clipPath>
    <clipPath id="clippath-1">
      <polyline class="cls-2" points="0 129 72 129 72 57 0 57 0 129"/>
    </clipPath>
    <clipPath id="clippath-2">
      <polyline class="cls-2" points="72 129 144 129 144 57 72 57 72 129"/>
    </clipPath>
    <clipPath id="clippath-3">
      <polyline class="cls-2" points="144 129 216 129 216 57 144 57 144 129"/>
    </clipPath>
    <clipPath id="clippath-4">
      <polyline class="cls-2" points="0 57 72 57 72 -15 0 -15 0 57"/>
    </clipPath>
    <clipPath id="clippath-5">
      <polyline class="cls-2" points="72 57 144 57 144 -15 72 -15 72 57"/>
    </clipPath>
    <clipPath id="clippath-6">
      <polyline class="cls-2" points="144 57 216 57 216 -15 144 -15 144 57"/>
    </clipPath>
    <clipPath id="clippath-7">
      <polyline class="cls-2" points="160 -19 60 -19 60 -79 160 -79 160 -19"/>
    </clipPath>
  </defs>
  <g>
    <rect class="cls-4" y="1" width="60" height="60"/>
    <polygon class="cls-3" points="60 17.32 0 61 0 1 60 1 60 17.32"/>
  </g>
  <g class="cls-14">
    <g class="cls-1">
      <g class="cls-8">
        <polyline class="cls-5" points="63.24 57 62.82 57 60 59.82 60 60.24 63.24 57"/>
        <polyline class="cls-5" points="69.24 57 68.82 57 64.82 61 65.24 61 69.24 57"/>
        <polyline class="cls-5" points="72 59.82 70.82 61 71.24 61 72 60.24 72 59.82"/>
      </g>
      <g class="cls-11">
        <polyline class="cls-5" points="75.24 57 74.82 57 72 59.82 72 60.24 75.24 57"/>
        <polyline class="cls-5" points="81.24 57 80.82 57 76.82 61 77.24 61 81.24 57"/>
        <polyline class="cls-5" points="87.24 57 86.82 57 82.82 61 83.24 61 87.24 57"/>
        <polyline class="cls-5" points="93.24 57 92.82 57 88.82 61 89.24 61 93.24 57"/>
        <polyline class="cls-5" points="99.24 57 98.82 57 94.82 61 95.24 61 99.24 57"/>
        <polyline class="cls-5" points="105.24 57 104.82 57 100.82 61 101.24 61 105.24 57"/>
        <polyline class="cls-5" points="111.24 57 110.82 57 106.82 61 107.24 61 111.24 57"/>
        <polyline class="cls-5" points="117.24 57 116.82 57 112.82 61 113.24 61 117.24 57"/>
        <polyline class="cls-5" points="123.24 57 122.82 57 118.82 61 119.24 61 123.24 57"/>
        <polyline class="cls-5" points="129.24 57 128.82 57 124.82 61 125.24 61 129.24 57"/>
        <polyline class="cls-5" points="135.24 57 134.82 57 130.82 61 131.24 61 135.24 57"/>
        <polyline class="cls-5" points="141.24 57 140.82 57 136.82 61 137.24 61 141.24 57"/>
        <polyline class="cls-5" points="144 59.82 142.82 61 143.24 61 144 60.24 144 59.82"/>
      </g>
      <g class="cls-10">
        <polyline class="cls-5" points="147.24 57 146.82 57 144 59.82 144 60.24 147.24 57"/>
        <polyline class="cls-5" points="153.24 57 152.82 57 148.82 61 149.24 61 153.24 57"/>
        <polyline class="cls-5" points="159.24 57 158.82 57 154.82 61 155.24 61 159.24 57"/>
      </g>
      <g class="cls-9">
        <polyline class="cls-5" points="65.24 1 64.82 1 60 5.82 60 6.24 65.24 1"/>
        <polyline class="cls-5" points="71.24 1 70.82 1 60 11.82 60 12.24 71.24 1"/>
        <polyline class="cls-5" points="72 5.82 60 17.82 60 18.24 72 6.24 72 5.82"/>
        <polyline class="cls-5" points="72 11.82 60 23.82 60 24.24 72 12.24 72 11.82"/>
        <polyline class="cls-5" points="72 17.82 60 29.82 60 30.24 72 18.24 72 17.82"/>
        <polyline class="cls-5" points="72 23.82 60 35.82 60 36.24 72 24.24 72 23.82"/>
        <polyline class="cls-5" points="72 29.82 60 41.82 60 42.24 72 30.24 72 29.82"/>
        <polyline class="cls-5" points="72 35.82 60 47.82 60 48.24 72 36.24 72 35.82"/>
        <polyline class="cls-5" points="72 41.82 60 53.82 60 54.24 72 42.24 72 41.82"/>
        <polyline class="cls-5" points="72 47.82 62.82 57 63.24 57 72 48.24 72 47.82"/>
        <polyline class="cls-5" points="72 53.82 68.82 57 69.24 57 72 54.24 72 53.82"/>
      </g>
      <g class="cls-13">
        <polyline class="cls-5" points="77.24 1 76.82 1 72 5.82 72 6.24 77.24 1"/>
        <polyline class="cls-5" points="83.24 1 82.82 1 72 11.82 72 12.24 83.24 1"/>
        <polyline class="cls-5" points="89.24 1 88.82 1 72 17.82 72 18.24 89.24 1"/>
        <polyline class="cls-5" points="95.24 1 94.82 1 72 23.82 72 24.24 95.24 1"/>
        <polyline class="cls-5" points="101.24 1 100.82 1 72 29.82 72 30.24 101.24 1"/>
        <polyline class="cls-5" points="107.24 1 106.82 1 72 35.82 72 36.24 107.24 1"/>
        <polyline class="cls-5" points="113.24 1 112.82 1 72 41.82 72 42.24 113.24 1"/>
        <polyline class="cls-5" points="119.24 1 118.82 1 72 47.82 72 48.24 119.24 1"/>
        <polyline class="cls-5" points="125.24 1 124.82 1 72 53.82 72 54.24 125.24 1"/>
        <polyline class="cls-5" points="131.24 1 130.82 1 74.82 57 75.24 57 131.24 1"/>
        <polyline class="cls-5" points="137.24 1 136.82 1 80.82 57 81.24 57 137.24 1"/>
        <polyline class="cls-5" points="143.24 1 142.82 1 86.82 57 87.24 57 143.24 1"/>
        <polyline class="cls-5" points="144 5.82 92.82 57 93.24 57 144 6.24 144 5.82"/>
        <polyline class="cls-5" points="144 11.82 98.82 57 99.24 57 144 12.24 144 11.82"/>
        <polyline class="cls-5" points="144 17.82 104.82 57 105.24 57 144 18.24 144 17.82"/>
        <polyline class="cls-5" points="144 23.82 110.82 57 111.24 57 144 24.24 144 23.82"/>
        <polyline class="cls-5" points="144 29.82 116.82 57 117.24 57 144 30.24 144 29.82"/>
        <polyline class="cls-5" points="144 35.82 122.82 57 123.24 57 144 36.24 144 35.82"/>
        <polyline class="cls-5" points="144 41.82 128.82 57 129.24 57 144 42.24 144 41.82"/>
        <polyline class="cls-5" points="144 47.82 134.82 57 135.24 57 144 48.24 144 47.82"/>
        <polyline class="cls-5" points="144 53.82 140.82 57 141.24 57 144 54.24 144 53.82"/>
      </g>
      <g class="cls-12">
        <polyline class="cls-5" points="149.24 1 148.82 1 144 5.82 144 6.24 149.24 1"/>
        <polyline class="cls-5" points="155.24 1 154.82 1 144 11.82 144 12.24 155.24 1"/>
        <polyline class="cls-5" points="160 1.82 144 17.82 144 18.24 160 2.24 160 1.82"/>
        <polyline class="cls-5" points="160 7.82 144 23.82 144 24.24 160 8.24 160 7.82"/>
        <polyline class="cls-5" points="160 13.82 144 29.82 144 30.24 160 14.24 160 13.82"/>
        <polyline class="cls-5" points="160 19.82 144 35.82 144 36.24 160 20.24 160 19.82"/>
        <polyline class="cls-5" points="160 25.82 144 41.82 144 42.24 160 26.24 160 25.82"/>
        <polyline class="cls-5" points="160 31.82 144 47.82 144 48.24 160 32.24 160 31.82"/>
        <polyline class="cls-5" points="160 37.82 144 53.82 144 54.24 160 38.24 160 37.82"/>
        <polyline class="cls-5" points="160 43.82 146.82 57 147.24 57 160 44.24 160 43.82"/>
        <polyline class="cls-5" points="160 49.82 152.82 57 153.24 57 160 50.24 160 49.82"/>
        <polyline class="cls-5" points="160 55.82 158.82 57 159.24 57 160 56.24 160 55.82"/>
      </g>
    </g>
  </g>
  <polygon class="cls-6" points="160 49.88 160 61 148.9 61 160 49.88"/>
  <g>
    <path class="cls-6" d="m72.73,30.28h-1.17v-7.68h-4.3v7.68h-1.16v-8.6h6.63v8.6Z"/>
    <path class="cls-6" d="m77.34,21.68c.54,0,1.02.06,1.42.19.4.13.73.31,1,.54.26.23.46.51.59.84.13.33.19.69.19,1.1s-.07.77-.21,1.1-.34.62-.61.86c-.27.24-.6.43-1,.56-.4.13-.86.2-1.38.2h-1.38v3.22h-1.16v-8.6h2.54Zm0,4.46c.33,0,.62-.04.88-.13.25-.09.47-.21.64-.37.17-.16.3-.35.39-.57.09-.22.13-.46.13-.73,0-.55-.17-.98-.51-1.28-.34-.31-.85-.46-1.54-.46h-1.38v3.54h1.38Z"/>
    <path class="cls-6" d="m89.83,25.99c0,.64-.1,1.23-.31,1.77-.2.54-.49,1-.86,1.39-.37.39-.82.69-1.34.9s-1.1.32-1.73.32-1.21-.11-1.73-.32-.96-.52-1.34-.9c-.37-.39-.66-.85-.86-1.39-.21-.54-.31-1.13-.31-1.77s.1-1.23.31-1.77c.2-.54.49-1,.86-1.39.37-.39.82-.69,1.34-.91.52-.22,1.1-.32,1.73-.32s1.21.11,1.73.32c.52.22.97.52,1.34.91.37.39.66.85.86,1.39.21.54.31,1.13.31,1.77Zm-1.2,0c0-.53-.07-1-.21-1.42-.14-.42-.35-.78-.61-1.07-.26-.29-.58-.51-.96-.67-.38-.16-.8-.23-1.26-.23s-.88.08-1.25.23c-.38.16-.7.38-.96.67-.27.29-.47.65-.62,1.07-.14.42-.22.89-.22,1.42s.07,1,.22,1.42.35.77.62,1.06.59.51.96.67c.38.15.79.23,1.25.23s.88-.08,1.26-.23c.38-.15.7-.38.96-.67.27-.29.47-.64.61-1.06s.21-.89.21-1.42Z"/>
    <path class="cls-6" d="m96.68,29.33v.95h-5.3v-8.6h5.3v.95h-4.13v2.86h3.35v.91h-3.35v2.93h4.14Z"/>
    <path class="cls-6" d="m105.05,30.28h-1.04c-.12,0-.21-.03-.3-.09s-.16-.15-.23-.27l-2.27-3.15c-.1-.16-.22-.26-.34-.33s-.28-.09-.49-.09h-1.03v3.94h-1.16v-8.6h1.16v3.77h.89c.18,0,.33-.03.46-.08.13-.06.25-.17.38-.33l2.25-3.02c.06-.1.13-.17.22-.24s.19-.09.3-.09h.98l-2.6,3.53c-.2.28-.45.47-.76.57.21.06.39.15.54.27.15.12.29.29.42.51l2.63,3.72Z"/>
    <path class="cls-6" d="m111.92,22.66h-2.78v7.62h-1.16v-7.62h-2.79v-.98h6.73v.98Z"/>
    <path class="cls-6" d="m120.18,22.3c.55.01,1.05.11,1.5.3s.84.44,1.16.75.57.68.75,1.09.27.85.27,1.32-.09.92-.27,1.33-.43.78-.75,1.1-.71.56-1.16.75-.95.29-1.5.3v1.04h-1.1v-1.04c-.55-.01-1.05-.11-1.51-.3s-.84-.44-1.16-.75c-.32-.31-.57-.68-.75-1.1-.18-.42-.27-.86-.27-1.33s.09-.91.27-1.32c.18-.41.43-.78.76-1.09.32-.31.71-.56,1.16-.75.45-.19.95-.28,1.49-.3v-1.01h1.1v1.01Zm-1.1.91c-.38,0-.73.07-1.04.21-.31.14-.58.32-.79.55-.22.23-.39.5-.51.81s-.18.64-.18.98.06.68.18.99.29.58.51.81c.22.23.48.42.79.55.31.14.65.21,1.04.21v-5.12Zm1.1,5.12c.38,0,.72-.07,1.04-.21.31-.14.58-.32.79-.55s.39-.5.51-.81.18-.64.18-.99-.06-.68-.18-.98-.29-.58-.51-.81-.49-.41-.79-.55c-.31-.14-.66-.21-1.04-.22v5.12Z"/>
    <path class="cls-6" d="m124.5,22.49c.32-.29.7-.51,1.13-.66.43-.15.91-.23,1.46-.23.44,0,.84.05,1.2.16.35.11.66.26.9.46s.44.43.57.7c.13.27.2.56.2.88,0,.43-.11.81-.32,1.14-.21.33-.52.58-.9.76.22.09.42.21.6.34.18.13.33.29.47.45.13.17.23.35.3.55.07.2.1.41.1.63,0,.38-.07.73-.21,1.06-.14.33-.34.61-.61.85-.27.24-.59.43-.98.57s-.83.21-1.33.21c-.62,0-1.17-.1-1.66-.3-.49-.2-.91-.47-1.27-.82l.34-.55s.07-.08.12-.11c.05-.03.1-.04.16-.04.08,0,.18.04.3.14.12.09.26.19.44.3.18.11.4.21.66.3.26.09.57.14.95.14.32,0,.6-.04.85-.11.25-.08.46-.19.63-.33.17-.14.3-.32.39-.53s.13-.44.13-.7c0-.22-.04-.43-.13-.62s-.21-.35-.38-.48c-.16-.13-.36-.24-.6-.31-.24-.07-.5-.11-.8-.11h-1.18v-.95h1.13c.24,0,.47-.03.68-.09s.39-.15.54-.26c.15-.12.27-.26.35-.43s.13-.36.13-.58c0-.2-.04-.38-.12-.54-.08-.16-.2-.3-.35-.42-.15-.12-.34-.21-.56-.27-.22-.06-.47-.1-.75-.1-.32,0-.6.03-.83.1-.23.07-.42.14-.58.23s-.28.16-.38.23c-.1.07-.18.1-.25.1-.06,0-.12-.01-.16-.04s-.08-.07-.11-.14l-.28-.55Z"/>
    <path class="cls-6" d="m67.61,40.81c.06.09.08.18.06.26s-.07.15-.17.19l-.35.17-1.49-2.33v-.14l1.49-2.33.35.17c.09.04.15.11.17.19.02.08,0,.17-.06.26l-.95,1.57c-.06.1-.11.17-.17.22.06.05.11.13.17.22l.95,1.57Zm1.77,0c.06.09.08.18.06.26s-.07.15-.17.19l-.35.17-1.49-2.33v-.14l1.49-2.33.35.17c.09.04.15.11.17.19.02.08,0,.17-.06.26l-.95,1.57c-.06.1-.11.17-.17.22.06.05.11.13.17.22l.95,1.57Z"/>
    <path class="cls-6" d="m79.23,38.99c0,.64-.1,1.23-.31,1.77-.2.54-.49,1-.86,1.39-.37.39-.82.69-1.34.9-.52.21-1.1.32-1.73.32s-1.21-.11-1.73-.32-.97-.52-1.34-.9c-.37-.39-.66-.85-.86-1.39s-.31-1.13-.31-1.77.1-1.23.31-1.77.49-1,.86-1.39.82-.69,1.34-.91c.52-.22,1.1-.32,1.73-.32s1.21.11,1.73.32c.52.22.97.52,1.34.91s.66.85.86,1.39c.2.54.31,1.13.31,1.77Zm-1.19,0c0-.53-.07-1-.22-1.42-.14-.42-.35-.78-.61-1.07-.26-.29-.58-.51-.96-.67-.38-.16-.8-.23-1.26-.23s-.88.08-1.25.23c-.38.16-.7.38-.96.67-.27.29-.47.65-.62,1.07-.14.42-.22.89-.22,1.42s.07,1,.22,1.42c.14.42.35.77.62,1.06s.59.51.96.67.79.23,1.25.23.88-.08,1.26-.23.7-.38.96-.67.47-.64.61-1.06.22-.89.22-1.42Z"/>
    <path class="cls-6" d="m90.59,43.28h-1.04c-.12,0-.21-.03-.3-.09s-.16-.15-.23-.27l-2.27-3.15c-.1-.16-.22-.26-.34-.33s-.28-.09-.49-.09h-1.03v3.94h-1.16v-8.6h1.16v3.77h.89c.18,0,.33-.03.46-.08.13-.06.25-.17.38-.33l2.25-3.02c.06-.1.13-.17.22-.24s.19-.09.3-.09h.98l-2.6,3.53c-.2.28-.45.47-.76.57.21.06.39.15.54.27.15.12.29.29.42.51l2.63,3.72Z"/>
    <path class="cls-6" d="m98.06,34.68l-3.49,7.48c-.11.24-.22.43-.35.58-.13.15-.26.28-.41.37-.14.09-.3.15-.47.19s-.35.06-.54.06c-.22,0-.38-.02-.5-.06s-.17-.09-.17-.17v-.74h.42c.1,0,.2-.01.3-.03s.2-.06.29-.12c.09-.06.18-.13.26-.23.08-.09.16-.21.23-.36l.42-.88-3.46-6.1h1.09c.1,0,.19.03.25.08s.11.11.16.19l2.12,3.9c.15.28.27.57.36.86.04-.14.09-.29.15-.43s.12-.29.18-.43l1.81-3.9c.03-.07.08-.13.15-.19.07-.06.15-.08.25-.08h.96Z"/>
    <path class="cls-6" d="m104.82,43.28h-1.16v-7.68h-2.84c-.06,1.1-.13,2.06-.22,2.87s-.21,1.51-.34,2.08c-.13.58-.29,1.04-.46,1.41-.17.36-.36.65-.56.85-.2.21-.42.35-.65.43-.23.08-.48.11-.74.11-.22,0-.38-.02-.5-.06s-.17-.09-.17-.17v-.74h.42c.16,0,.32-.03.47-.09.16-.06.31-.19.45-.38.14-.19.28-.46.41-.8.13-.35.24-.81.35-1.38.1-.57.19-1.27.27-2.1.08-.83.13-1.81.17-2.96h5.11v8.6Z"/>
    <path class="cls-6" d="m109.72,38.39c.52,0,.98.06,1.36.17.38.11.69.27.94.48s.43.45.55.74c.12.28.18.59.18.93,0,.4-.07.75-.2,1.07-.13.32-.33.59-.59.81-.26.22-.58.4-.95.52-.38.12-.8.18-1.28.18h-2.83v-8.6h1.16v3.7h1.67Zm0,3.97c.33,0,.62-.04.86-.11.24-.08.43-.18.58-.31.15-.13.26-.3.33-.49.07-.19.1-.4.1-.63,0-.24-.04-.45-.1-.64-.07-.19-.18-.34-.33-.47-.15-.13-.34-.23-.58-.29-.24-.07-.52-.1-.85-.1h-1.67v3.05h1.67Z"/>
    <path class="cls-6" d="m118.84,35.66h-2.78v7.62h-1.16v-7.62h-2.79v-.98h6.73v.98Z"/>
    <path class="cls-6" d="m126.4,34.68l-3.49,7.48c-.11.24-.22.43-.35.58-.13.15-.26.28-.41.37-.14.09-.3.15-.47.19s-.35.06-.54.06c-.22,0-.38-.02-.5-.06s-.17-.09-.17-.17v-.74h.42c.1,0,.2-.01.3-.03s.2-.06.29-.12c.09-.06.18-.13.26-.23.08-.09.16-.21.23-.36l.42-.88-3.46-6.1h1.09c.1,0,.19.03.25.08s.11.11.16.19l2.12,3.9c.15.28.27.57.36.86.04-.14.09-.29.15-.43s.12-.29.18-.43l1.81-3.9c.03-.07.08-.13.15-.19.07-.06.15-.08.25-.08h.96Z"/>
    <path class="cls-6" d="m129.91,34.68c.54,0,1.02.06,1.42.19.4.13.74.31,1,.54.26.23.46.51.59.84.13.33.2.69.2,1.1s-.07.77-.21,1.1-.34.62-.62.86c-.27.24-.6.43-1,.56-.4.13-.86.2-1.38.2h-1.38v3.22h-1.16v-8.6h2.54Zm0,4.46c.33,0,.62-.04.88-.13s.47-.21.64-.37c.17-.16.3-.35.39-.57.09-.22.13-.46.13-.73,0-.55-.17-.98-.51-1.28-.34-.31-.85-.46-1.54-.46h-1.38v3.54h1.38Z"/>
    <path class="cls-6" d="m139.76,42.33v.95h-5.3v-8.6h5.3v.95h-4.13v2.86h3.35v.91h-3.35v2.93h4.14Z"/>
    <path class="cls-6" d="m143.05,38.96v.14l-1.49,2.33-.35-.17c-.09-.04-.15-.11-.17-.19s0-.17.06-.26l.95-1.57s.06-.09.09-.13.05-.07.09-.09c-.03-.02-.06-.05-.09-.09-.03-.04-.05-.08-.09-.13l-.95-1.57c-.06-.09-.07-.18-.06-.26.02-.08.07-.14.17-.19l.35-.17,1.49,2.33Zm1.78,0v.14l-1.49,2.33-.35-.17c-.09-.04-.15-.11-.17-.19-.02-.08,0-.17.06-.26l.95-1.57s.06-.09.09-.13c.03-.04.05-.07.09-.09-.03-.02-.06-.05-.09-.09-.03-.04-.06-.08-.09-.13l-.95-1.57c-.06-.09-.08-.18-.06-.26.02-.08.07-.14.17-.19l.35-.17,1.49,2.33Z"/>
  </g>
  <polygon class="cls-7" points="0 11.12 0 0 11.1 0 0 11.12"/>
  <path class="cls-7" d="m11.4,50.18c-.06.14.37.21.37.21,7.02-9.38,14.89-21.23,26.48-33.44C47.16,7.57,57.59,1.44,62.72-.49c1.16,2.48-2.68,9.1-2.68,9.1-5,.35-7.02.69-11.47,2.96,2.32.83,6.71,1.03,8.97,1.1-2.93,4.48-9.82,11.31-13.36,14.82-2.56-1.03-6.22-1.31-8.54-.28,1.16,1.38,4.45,1.93,6.1,2.41-7.81,8.76-13.12,13.86-24.77,18.82l-5.86,7.58c-2.5-.14-4.03,1.65-6.16,4.07l-.67-.83c2.07-2.55,3.42-4.96,3.84-6.55.92-1.38,4.88-7.72,5.92-9.24,2.32-8.13,9.76-21.23,17.02-29.85,1.04.62-.06,4.14.98,6.82.91-2.62,2.38-5.79,2.56-9.58,3.6-3.59,4.82-4.48,8.79-7.45l2.2,1.17,1.71-3.17c2.26-1.24,4.64-2.27,7.2-3.31,3.42-1.31,7.02-1.17,7.69.28-9.46,3.79-15.5,8.27-23.8,16.27-7.81,7.45-20.87,24.82-26.97,35.5Z"/>
</svg>