<?xml version="1.0" encoding="UTF-8"?>
<svg id="Layer_1" data-name="Layer 1" xmlns="http://www.w3.org/2000/svg" width="160" height="62" xmlns:xlink="http://www.w3.org/1999/xlink" viewBox="0 0 160 62">
  <defs>
    <style>
      .cls-1 {
        clip-path: url(#clippath);
      }

      .cls-2, .cls-3, .cls-4, .cls-5, .cls-6, .cls-7 {
        stroke-width: 0px;
      }

      .cls-2, .cls-8 {
        fill: none;
      }

      .cls-3 {
        fill: url(#_Безымянный_градиент_8);
        opacity: .7;
      }

      .cls-9 {
        clip-path: url(#clippath-1);
      }

      .cls-10 {
        clip-path: url(#clippath-4);
      }

      .cls-11 {
        clip-path: url(#clippath-3);
      }

      .cls-12 {
        clip-path: url(#clippath-2);
      }

      .cls-13 {
        clip-path: url(#clippath-6);
      }

      .cls-14 {
        clip-path: url(#clippath-5);
      }

      .cls-15 {
        opacity: .6;
      }

      .cls-4 {
        fill: #214b9a;
      }

      .cls-5 {
        fill: #c8c7c7;
      }

      .cls-6 {
        fill: #c1272d;
      }

      .cls-7 {
        fill: #fff;
      }

      .cls-8 {
        stroke: #000;
        stroke-miterlimit: 10;
        stroke-width: .25px;
      }
    </style>
    <linearGradient id="_Безымянный_градиент_8" data-name="Безымянный градиент 8" x1="30" y1="57.74" x2="30" y2="6.88" gradientUnits="userSpaceOnUse">
      <stop offset="0" stop-color="#0071bc"/>
      <stop offset="1" stop-color="#0071bc" stop-opacity="0"/>
    </linearGradient>
    <clipPath id="clippath">
      <polyline class="cls-2" points="160 60.5 60 60.5 60 .5 160 .5 160 60.5"/>
    </clipPath>
    <clipPath id="clippath-1">
      <polyline class="cls-2" points="0 128.5 72 128.5 72 56.5 0 56.5 0 128.5"/>
    </clipPath>
    <clipPath id="clippath-2">
      <polyline class="cls-2" points="72 128.5 144 128.5 144 56.5 72 56.5 72 128.5"/>
    </clipPath>
    <clipPath id="clippath-3">
      <polyline class="cls-2" points="144 128.5 216 128.5 216 56.5 144 56.5 144 128.5"/>
    </clipPath>
    <clipPath id="clippath-4">
      <polyline class="cls-2" points="0 56.5 72 56.5 72 -15.5 0 -15.5 0 56.5"/>
    </clipPath>
    <clipPath id="clippath-5">
      <polyline class="cls-2" points="72 56.5 144 56.5 144 -15.5 72 -15.5 72 56.5"/>
    </clipPath>
    <clipPath id="clippath-6">
      <polyline class="cls-2" points="144 56.5 216 56.5 216 -15.5 144 -15.5 144 56.5"/>
    </clipPath>
    <clipPath id="clippath-7">
      <polyline class="cls-2" points="160 -18.38 60 -18.38 60 -78.38 160 -78.38 160 -18.38"/>
    </clipPath>
  </defs>
  <g>
    <rect class="cls-4" y="1" width="60" height="60"/>
    <polygon class="cls-3" points="60 17.32 0 61 0 1 60 1 60 17.32"/>
  </g>
  <g class="cls-15">
    <g class="cls-1">
      <g class="cls-9">
        <polyline class="cls-5" points="63.24 56.5 62.82 56.5 60 59.32 60 59.74 63.24 56.5"/>
        <polyline class="cls-5" points="69.24 56.5 68.82 56.5 64.82 60.5 65.24 60.5 69.24 56.5"/>
        <polyline class="cls-5" points="72 59.32 70.82 60.5 71.24 60.5 72 59.74 72 59.32"/>
      </g>
      <g class="cls-12">
        <polyline class="cls-5" points="75.24 56.5 74.82 56.5 72 59.32 72 59.74 75.24 56.5"/>
        <polyline class="cls-5" points="81.24 56.5 80.82 56.5 76.82 60.5 77.24 60.5 81.24 56.5"/>
        <polyline class="cls-5" points="87.24 56.5 86.82 56.5 82.82 60.5 83.24 60.5 87.24 56.5"/>
        <polyline class="cls-5" points="93.24 56.5 92.82 56.5 88.82 60.5 89.24 60.5 93.24 56.5"/>
        <polyline class="cls-5" points="99.24 56.5 98.82 56.5 94.82 60.5 95.24 60.5 99.24 56.5"/>
        <polyline class="cls-5" points="105.24 56.5 104.82 56.5 100.82 60.5 101.24 60.5 105.24 56.5"/>
        <polyline class="cls-5" points="111.24 56.5 110.82 56.5 106.82 60.5 107.24 60.5 111.24 56.5"/>
        <polyline class="cls-5" points="117.24 56.5 116.82 56.5 112.82 60.5 113.24 60.5 117.24 56.5"/>
        <polyline class="cls-5" points="123.24 56.5 122.82 56.5 118.82 60.5 119.24 60.5 123.24 56.5"/>
        <polyline class="cls-5" points="129.24 56.5 128.82 56.5 124.82 60.5 125.24 60.5 129.24 56.5"/>
        <polyline class="cls-5" points="135.24 56.5 134.82 56.5 130.82 60.5 131.24 60.5 135.24 56.5"/>
        <polyline class="cls-5" points="141.24 56.5 140.82 56.5 136.82 60.5 137.24 60.5 141.24 56.5"/>
        <polyline class="cls-5" points="144 59.32 142.82 60.5 143.24 60.5 144 59.74 144 59.32"/>
      </g>
      <g class="cls-11">
        <polyline class="cls-5" points="147.24 56.5 146.82 56.5 144 59.32 144 59.74 147.24 56.5"/>
        <polyline class="cls-5" points="153.24 56.5 152.82 56.5 148.82 60.5 149.24 60.5 153.24 56.5"/>
        <polyline class="cls-5" points="159.24 56.5 158.82 56.5 154.82 60.5 155.24 60.5 159.24 56.5"/>
      </g>
      <g class="cls-10">
        <polyline class="cls-5" points="65.24 .5 64.82 .5 60 5.32 60 5.74 65.24 .5"/>
        <polyline class="cls-5" points="71.24 .5 70.82 .5 60 11.32 60 11.74 71.24 .5"/>
        <polyline class="cls-5" points="72 5.32 60 17.32 60 17.74 72 5.74 72 5.32"/>
        <polyline class="cls-5" points="72 11.32 60 23.32 60 23.74 72 11.74 72 11.32"/>
        <polyline class="cls-5" points="72 17.32 60 29.32 60 29.74 72 17.74 72 17.32"/>
        <polyline class="cls-5" points="72 23.32 60 35.32 60 35.74 72 23.74 72 23.32"/>
        <polyline class="cls-5" points="72 29.32 60 41.32 60 41.74 72 29.74 72 29.32"/>
        <polyline class="cls-5" points="72 35.32 60 47.32 60 47.74 72 35.74 72 35.32"/>
        <polyline class="cls-5" points="72 41.32 60 53.32 60 53.74 72 41.74 72 41.32"/>
        <polyline class="cls-5" points="72 47.32 62.82 56.5 63.24 56.5 72 47.74 72 47.32"/>
        <polyline class="cls-5" points="72 53.32 68.82 56.5 69.24 56.5 72 53.74 72 53.32"/>
      </g>
      <g class="cls-14">
        <polyline class="cls-5" points="77.24 .5 76.82 .5 72 5.32 72 5.74 77.24 .5"/>
        <polyline class="cls-5" points="83.24 .5 82.82 .5 72 11.32 72 11.74 83.24 .5"/>
        <polyline class="cls-5" points="89.24 .5 88.82 .5 72 17.32 72 17.74 89.24 .5"/>
        <polyline class="cls-5" points="95.24 .5 94.82 .5 72 23.32 72 23.74 95.24 .5"/>
        <polyline class="cls-5" points="101.24 .5 100.82 .5 72 29.32 72 29.74 101.24 .5"/>
        <polyline class="cls-5" points="107.24 .5 106.82 .5 72 35.32 72 35.74 107.24 .5"/>
        <polyline class="cls-5" points="113.24 .5 112.82 .5 72 41.32 72 41.74 113.24 .5"/>
        <polyline class="cls-5" points="119.24 .5 118.82 .5 72 47.32 72 47.74 119.24 .5"/>
        <polyline class="cls-5" points="125.24 .5 124.82 .5 72 53.32 72 53.74 125.24 .5"/>
        <polyline class="cls-5" points="131.24 .5 130.82 .5 74.82 56.5 75.24 56.5 131.24 .5"/>
        <polyline class="cls-5" points="137.24 .5 136.82 .5 80.82 56.5 81.24 56.5 137.24 .5"/>
        <polyline class="cls-5" points="143.24 .5 142.82 .5 86.82 56.5 87.24 56.5 143.24 .5"/>
        <polyline class="cls-5" points="144 5.32 92.82 56.5 93.24 56.5 144 5.74 144 5.32"/>
        <polyline class="cls-5" points="144 11.32 98.82 56.5 99.24 56.5 144 11.74 144 11.32"/>
        <polyline class="cls-5" points="144 17.32 104.82 56.5 105.24 56.5 144 17.74 144 17.32"/>
        <polyline class="cls-5" points="144 23.32 110.82 56.5 111.24 56.5 144 23.74 144 23.32"/>
        <polyline class="cls-5" points="144 29.32 116.82 56.5 117.24 56.5 144 29.74 144 29.32"/>
        <polyline class="cls-5" points="144 35.32 122.82 56.5 123.24 56.5 144 35.74 144 35.32"/>
        <polyline class="cls-5" points="144 41.32 128.82 56.5 129.24 56.5 144 41.74 144 41.32"/>
        <polyline class="cls-5" points="144 47.32 134.82 56.5 135.24 56.5 144 47.74 144 47.32"/>
        <polyline class="cls-5" points="144 53.32 140.82 56.5 141.24 56.5 144 53.74 144 53.32"/>
      </g>
      <g class="cls-13">
        <polyline class="cls-5" points="149.24 .5 148.82 .5 144 5.32 144 5.74 149.24 .5"/>
        <polyline class="cls-5" points="155.24 .5 154.82 .5 144 11.32 144 11.74 155.24 .5"/>
        <polyline class="cls-5" points="160 1.32 144 17.32 144 17.74 160 1.74 160 1.32"/>
        <polyline class="cls-5" points="160 7.32 144 23.32 144 23.74 160 7.74 160 7.32"/>
        <polyline class="cls-5" points="160 13.32 144 29.32 144 29.74 160 13.74 160 13.32"/>
        <polyline class="cls-5" points="160 19.32 144 35.32 144 35.74 160 19.74 160 19.32"/>
        <polyline class="cls-5" points="160 25.32 144 41.32 144 41.74 160 25.74 160 25.32"/>
        <polyline class="cls-5" points="160 31.32 144 47.32 144 47.74 160 31.74 160 31.32"/>
        <polyline class="cls-5" points="160 37.32 144 53.32 144 53.74 160 37.74 160 37.32"/>
        <polyline class="cls-5" points="160 43.32 146.82 56.5 147.24 56.5 160 43.74 160 43.32"/>
        <polyline class="cls-5" points="160 49.32 152.82 56.5 153.24 56.5 160 49.74 160 49.32"/>
        <polyline class="cls-5" points="160 55.32 158.82 56.5 159.24 56.5 160 55.74 160 55.32"/>
      </g>
    </g>
  </g>
  <polygon class="cls-6" points="160 49.38 160 60.5 148.9 60.5 160 49.38"/>
  <polygon class="cls-7" points="0 10.62 0 -.5 11.1 -.5 0 10.62"/>
  <path class="cls-7" d="m54.09,63.19h-7.49v7.64H5.3V13.74h7.49v-7.64h7.53V-1.5h41.26v57.1h-7.49v7.6Zm-9.36-47.57H7.16v53.32h37.57V15.63ZM14.66,7.99v5.75h31.94v47.57h5.63V7.99H14.66ZM22.19.39v5.71h31.91v47.61h5.63V.39H22.19Z"/>
  <path class="cls-7" d="m52.66,13.71l.94,1.62c-6.1,4.31-11.74,9.76-16.94,16.35s-8.96,13.05-11.26,19.38l-1.37.9c-1.19.77-2.21,1.54-3.06,2.31-.15-.75-.55-1.96-1.22-3.62l-.72-1.78c-1.56-3.85-2.88-6.54-3.95-8.07-1.07-1.53-2.23-2.35-3.48-2.48,1.68-1.54,3.15-2.31,4.4-2.31,1.73,0,3.62,2.32,5.68,6.96l1.12,2.5c3.68-6.6,8.13-12.67,13.34-18.23,5.21-5.55,10.72-10.07,16.52-13.54Z"/>
  <g>
    <path class="cls-6" d="m73.06,11.01v8.6h-1.16v-3.91h-4.64v3.91h-1.16v-8.6h1.16v3.83h4.64v-3.83h1.16Z"/>
    <path class="cls-6" d="m82.72,19.61h-.9c-.1,0-.19-.03-.25-.08-.06-.05-.11-.12-.14-.2l-.8-2.08h-3.86l-.8,2.08c-.02.07-.07.14-.14.19-.07.06-.15.08-.26.08h-.89l3.44-8.6h1.18l3.44,8.6Zm-2.42-3.19l-1.35-3.5c-.04-.1-.08-.23-.13-.36s-.09-.29-.13-.44c-.08.32-.17.59-.26.81l-1.35,3.49h3.21Z"/>
    <path class="cls-6" d="m92.26,18.7v2.66c0,.1-.04.19-.1.25-.07.06-.16.1-.27.1h-.7v-2.09h-6.88v-8.6h1.16v7.69h4.3v-7.69h1.17v7.69h1.31Z"/>
    <path class="cls-6" d="m100.79,19.61h-1.17v-7.68h-4.3v7.68h-1.16v-8.6h6.63v8.6Z"/>
    <path class="cls-6" d="m106,11.01c.54,0,1.02.06,1.42.19s.74.31,1,.54c.26.23.46.51.59.84.13.33.2.69.2,1.1s-.07.77-.21,1.1-.34.62-.62.86c-.27.24-.6.43-1,.56-.4.13-.86.2-1.38.2h-1.38v3.22h-1.16v-8.6h2.54Zm0,4.46c.33,0,.62-.04.88-.13s.47-.21.64-.37.3-.35.39-.57c.09-.22.13-.46.13-.73,0-.55-.17-.98-.51-1.28s-.85-.46-1.54-.46h-1.38v3.54h1.38Z"/>
    <path class="cls-6" d="m119.1,15.31c0,.64-.1,1.24-.31,1.77s-.49,1-.86,1.39-.82.69-1.34.9c-.52.21-1.1.32-1.73.32s-1.21-.11-1.73-.32c-.52-.21-.97-.52-1.34-.9s-.66-.85-.86-1.39-.31-1.13-.31-1.77.1-1.23.31-1.77.49-1,.86-1.39c.37-.39.82-.69,1.34-.91.52-.22,1.1-.32,1.73-.32s1.21.11,1.73.32c.52.22.97.52,1.34.91.37.39.66.85.86,1.39s.31,1.13.31,1.77Zm-1.19,0c0-.53-.07-1-.22-1.42-.14-.42-.35-.78-.61-1.07-.26-.29-.58-.51-.96-.67-.38-.16-.8-.23-1.26-.23s-.88.08-1.25.23c-.38.16-.7.38-.96.67-.27.29-.47.65-.62,1.07-.14.42-.22.89-.22,1.42s.07,1,.22,1.42c.14.42.35.77.62,1.06s.59.51.96.67c.38.15.79.23,1.25.23s.88-.08,1.26-.23c.38-.15.7-.38.96-.67.26-.29.47-.64.61-1.06.14-.42.22-.89.22-1.42Z"/>
    <path class="cls-6" d="m126.54,18.66v.95h-5.3v-8.6h5.3v.95h-4.13v2.86h3.35v.91h-3.35v2.93h4.14Z"/>
    <path class="cls-6" d="m135.51,19.61h-1.04c-.12,0-.21-.03-.3-.09-.08-.06-.16-.15-.23-.27l-2.27-3.15c-.1-.16-.22-.26-.34-.33-.12-.06-.28-.09-.49-.09h-1.03v3.94h-1.16v-8.6h1.16v3.77h.89c.18,0,.33-.03.46-.08.13-.06.25-.17.38-.33l2.25-3.02c.06-.1.13-.17.22-.24.09-.06.19-.09.3-.09h.98l-2.6,3.53c-.2.28-.45.47-.76.57.21.06.39.15.54.27.15.12.29.29.42.51l2.63,3.72Z"/>
    <path class="cls-6" d="m142.99,11.99h-2.78v7.62h-1.16v-7.62h-2.79v-.98h6.73v.98Z"/>
    <path class="cls-6" d="m67.77,29.97c.07.12.09.23.07.34-.02.1-.09.18-.22.24l-.49.23-1.54-2.38v-.19l1.54-2.38.49.23c.13.06.2.14.22.24.02.11,0,.22-.07.34l-.83,1.41c-.06.1-.12.19-.19.25.07.06.14.15.19.25l.83,1.42Zm1.97,0c.07.12.09.23.07.34s-.09.18-.22.24l-.49.23-1.54-2.38v-.19l1.54-2.38.49.23c.13.06.2.14.22.24.02.11,0,.22-.07.34l-.83,1.41c-.06.1-.12.19-.19.25.07.06.14.15.19.25l.83,1.42Z"/>
    <path class="cls-6" d="m78.84,32.61h-1.46c-.15,0-.28-.04-.38-.12s-.2-.2-.28-.35l-1.85-2.92c-.05-.08-.1-.15-.15-.21-.05-.05-.11-.1-.17-.13s-.13-.06-.21-.07-.17-.02-.27-.02h-.97v3.82h-1.61v-8.68h1.61v3.64h.82c.16,0,.31-.03.43-.08.12-.06.23-.16.34-.31l1.9-2.81c.08-.13.17-.23.28-.31.11-.08.24-.12.39-.12h1.38l-2.36,3.48c-.1.15-.22.28-.35.38-.13.1-.28.18-.44.23.24.07.44.17.61.32s.32.35.48.6l2.27,3.66Z"/>
    <path class="cls-6" d="m86.59,23.93l-3.5,7.47c-.12.26-.26.47-.4.64-.14.17-.29.3-.45.4-.16.1-.34.16-.52.2-.19.04-.38.06-.6.06-.29,0-.5-.03-.63-.08-.13-.05-.2-.13-.2-.23v-1.01h.47c.09,0,.18,0,.27-.02.09-.02.18-.05.27-.1s.18-.12.26-.2.16-.2.23-.35l.34-.7-3.48-6.08h1.51c.14,0,.25.03.34.1.08.07.15.15.21.26l1.69,3.18c.09.18.17.35.25.52.07.17.14.35.19.53.1-.36.24-.71.4-1.05l1.47-3.18c.04-.09.11-.17.2-.25s.2-.11.34-.11h1.34Z"/>
    <path class="cls-6" d="m93.53,32.61h-1.63v-7.43h-2.37c-.06,1.09-.13,2.03-.24,2.82-.1.79-.22,1.47-.37,2.03-.14.56-.3,1.01-.49,1.36-.18.35-.38.62-.6.81-.22.19-.45.33-.7.4s-.51.1-.78.1c-.29,0-.5-.03-.63-.08-.13-.05-.2-.13-.2-.23v-1.01h.46c.1,0,.21-.01.32-.04.11-.02.21-.08.32-.15.11-.08.21-.19.31-.34.1-.15.2-.35.29-.6s.18-.56.26-.92.16-.8.22-1.31c.07-.51.12-1.1.17-1.78.05-.67.09-1.45.11-2.31h5.51v8.68Z"/>
    <path class="cls-6" d="m98.37,27.52c.56,0,1.05.06,1.45.19.4.12.73.29.98.51s.44.47.56.76c.12.29.18.6.18.93,0,.41-.07.78-.21,1.11-.14.33-.35.62-.62.85-.27.24-.61.42-1,.55-.39.13-.84.19-1.35.19h-3.02v-8.68h1.61v3.59h1.42Zm0,3.83c.3,0,.55-.03.75-.1.2-.07.36-.16.49-.27s.21-.25.26-.41c.05-.16.08-.32.08-.5,0-.2-.03-.37-.08-.53-.05-.16-.14-.29-.26-.4-.12-.11-.29-.2-.49-.25-.2-.06-.45-.09-.75-.09h-1.42v2.57h1.41Z"/>
    <path class="cls-6" d="m107.68,25.26h-2.62v7.35h-1.61v-7.35h-2.62v-1.33h6.85v1.33Z"/>
    <path class="cls-6" d="m115.59,23.93l-3.5,7.47c-.12.26-.26.47-.4.64-.14.17-.29.3-.45.4-.16.1-.34.16-.52.2-.19.04-.38.06-.6.06-.29,0-.5-.03-.63-.08-.13-.05-.2-.13-.2-.23v-1.01h.47c.09,0,.18,0,.27-.02.09-.02.18-.05.27-.1.09-.05.18-.12.26-.2s.16-.2.23-.35l.34-.7-3.48-6.08h1.51c.14,0,.25.03.34.1.08.07.15.15.21.26l1.69,3.18c.09.18.17.35.25.52.07.17.14.35.19.53.1-.36.24-.71.4-1.05l1.47-3.18c.04-.09.11-.17.2-.25s.2-.11.34-.11h1.34Z"/>
    <path class="cls-6" d="m119.14,23.93c.58,0,1.08.07,1.51.2s.77.33,1.05.57c.28.24.48.54.62.88s.2.71.2,1.12-.07.81-.21,1.16c-.14.35-.35.65-.63.9-.28.25-.63.45-1.05.59s-.92.21-1.48.21h-1.21v3.05h-1.61v-8.68h2.82Zm0,4.36c.3,0,.55-.04.77-.11.22-.07.4-.18.55-.32.15-.14.25-.31.33-.5.07-.2.11-.42.11-.66,0-.23-.04-.44-.11-.63-.07-.19-.18-.35-.32-.48-.14-.13-.33-.23-.55-.3-.22-.07-.48-.1-.78-.1h-1.21v3.11h1.21Z"/>
    <path class="cls-6" d="m130.45,32.61h-1.25c-.14,0-.25-.04-.34-.1-.09-.07-.15-.16-.2-.26l-.65-1.77h-3.59l-.65,1.77c-.03.09-.09.18-.19.25-.09.08-.21.11-.35.11h-1.25l3.41-8.68h1.65l3.41,8.68Zm-2.85-3.28l-1.06-2.89c-.05-.13-.11-.28-.16-.46-.06-.18-.11-.37-.17-.57-.05.2-.11.39-.16.57-.06.18-.11.33-.16.47l-1.05,2.87h2.76Z"/>
    <path class="cls-6" d="m133.3,28.21v.19l-1.54,2.38-.49-.23c-.13-.06-.2-.14-.23-.24-.02-.1,0-.22.07-.34l.83-1.42c.06-.1.12-.19.19-.25-.07-.06-.14-.15-.19-.25l-.83-1.41c-.07-.12-.09-.23-.07-.34.02-.11.1-.19.23-.24l.49-.23,1.54,2.38Zm1.97,0v.19l-1.54,2.38-.49-.23c-.13-.06-.2-.14-.22-.24-.02-.1,0-.22.07-.34l.83-1.42c.06-.1.12-.19.19-.25-.07-.06-.14-.15-.19-.25l-.83-1.41c-.07-.12-.09-.23-.07-.34.02-.11.1-.19.22-.24l.49-.23,1.54,2.38Z"/>
    <path class="cls-6" d="m68.93,46.71c.52,0,.98.06,1.36.17.38.11.69.27.94.48s.43.45.55.74.18.59.18.93c0,.4-.07.75-.2,1.07-.13.32-.33.59-.59.81-.26.22-.58.4-.95.52s-.8.18-1.28.18h-2.83v-8.6h5.56v.92h-4.4v2.78h1.67Zm0,3.97c.33,0,.62-.04.85-.11.24-.08.43-.18.58-.31.15-.13.26-.3.33-.49.07-.19.1-.4.1-.63,0-.24-.04-.45-.1-.64-.07-.19-.18-.34-.33-.47-.15-.13-.34-.23-.58-.29-.24-.07-.52-.1-.85-.1h-1.67v3.05h1.67Z"/>
    <path class="cls-6" d="m80.38,43.01v8.6h-1.16v-6.11c0-.17,0-.35.01-.54,0-.19.03-.38.05-.59-.07.18-.14.35-.22.5-.08.16-.15.29-.23.41l-4.03,5.96c-.06.09-.13.18-.22.25-.09.08-.19.11-.31.11h-.86v-8.6h1.16v6.11c0,.17,0,.35-.01.54,0,.19-.03.38-.05.6.07-.18.14-.35.22-.51.08-.16.15-.29.23-.41l4.03-5.96c.06-.09.13-.18.22-.25.09-.08.19-.11.31-.11h.86Z"/>
    <path class="cls-6" d="m85.29,46.71c.52,0,.98.06,1.36.17.38.11.69.27.94.48s.43.45.55.74.18.59.18.93c0,.4-.07.75-.2,1.07-.13.32-.33.59-.59.81-.26.22-.58.4-.95.52s-.8.18-1.28.18h-2.83v-8.6h5.56v.92h-4.4v2.78h1.67Zm0,3.97c.33,0,.62-.04.85-.11.24-.08.43-.18.58-.31.15-.13.26-.3.33-.49.07-.19.11-.4.11-.63,0-.24-.04-.45-.11-.64-.07-.19-.18-.34-.33-.47-.15-.13-.34-.23-.58-.29-.24-.07-.52-.1-.85-.1h-1.67v3.05h1.67Z"/>
    <path class="cls-6" d="m96.29,51.61h-1.16v-7.68h-2.84c-.06,1.1-.13,2.06-.23,2.87-.09.81-.21,1.51-.34,2.08s-.29,1.04-.46,1.41c-.17.36-.36.65-.56.85-.2.21-.42.35-.65.43-.23.08-.48.11-.74.11-.22,0-.38-.02-.5-.06-.12-.04-.17-.09-.17-.17v-.74h.42c.16,0,.32-.03.47-.09.16-.06.31-.19.45-.38.14-.19.28-.46.41-.8.13-.35.24-.81.35-1.38.1-.57.19-1.27.27-2.1s.13-1.81.17-2.96h5.11v8.6Z"/>
    <path class="cls-6" d="m105.33,43.01v8.6h-1.16v-6.11c0-.17,0-.35.01-.54,0-.19.03-.38.05-.59-.07.18-.14.35-.22.5-.08.16-.15.29-.23.41l-4.03,5.96c-.06.09-.13.18-.22.25-.09.08-.19.11-.31.11h-.86v-8.6h1.16v6.11c0,.17,0,.35-.01.54,0,.19-.03.38-.05.6.07-.18.14-.35.22-.51.08-.16.16-.29.23-.41l4.03-5.96c.06-.09.13-.18.22-.25.09-.08.19-.11.31-.11h.86Z"/>
    <path class="cls-6" d="m115.35,47.31c0,.64-.1,1.24-.3,1.77-.21.54-.49,1-.87,1.39-.37.39-.82.69-1.34.9-.52.21-1.1.32-1.73.32s-1.21-.11-1.73-.32c-.52-.21-.97-.52-1.34-.9s-.66-.85-.86-1.39c-.2-.54-.31-1.13-.31-1.77s.1-1.23.31-1.77c.21-.54.49-1,.86-1.39.37-.39.82-.69,1.34-.91.52-.22,1.1-.32,1.73-.32s1.21.11,1.73.32c.52.22.97.52,1.34.91.37.39.66.85.87,1.39.2.54.3,1.13.3,1.77Zm-1.19,0c0-.53-.07-1-.22-1.42-.14-.42-.35-.78-.61-1.07-.26-.29-.58-.51-.96-.67-.38-.16-.79-.23-1.26-.23s-.88.08-1.25.23c-.38.16-.7.38-.96.67-.27.29-.47.65-.62,1.07-.14.42-.21.89-.21,1.42s.07,1,.21,1.42c.14.42.35.77.62,1.06s.59.51.96.67c.38.15.79.23,1.25.23s.88-.08,1.26-.23c.38-.15.7-.38.96-.67s.47-.64.61-1.06c.14-.42.22-.89.22-1.42Z"/>
    <path class="cls-6" d="m122.32,43.99h-2.78v7.62h-1.16v-7.62h-2.79v-.98h6.73v.98Z"/>
    <path class="cls-6" d="m128.78,50.66v.95h-5.3v-8.6h5.3v.95h-4.13v2.86h3.35v.91h-3.35v2.93h4.14Z"/>
    <path class="cls-6" d="m137.15,51.61h-1.04c-.12,0-.21-.03-.3-.09-.08-.06-.16-.15-.23-.27l-2.27-3.15c-.1-.16-.22-.26-.34-.33-.12-.06-.28-.09-.49-.09h-1.03v3.94h-1.16v-8.6h1.16v3.77h.89c.18,0,.33-.03.46-.08.13-.06.25-.17.38-.33l2.25-3.02c.06-.1.13-.17.22-.24.09-.06.19-.09.3-.09h.98l-2.6,3.53c-.2.28-.45.47-.76.57.21.06.39.15.54.27.15.12.29.29.42.51l2.63,3.72Z"/>
    <path class="cls-6" d="m145.18,43.01v8.6h-1.16v-6.11c0-.17,0-.35.01-.54,0-.19.03-.38.05-.59-.07.18-.14.35-.22.5-.08.16-.15.29-.23.41l-4.03,5.96c-.06.09-.13.18-.22.25-.09.08-.19.11-.31.11h-.86v-8.6h1.16v6.11c0,.17,0,.35-.01.54,0,.19-.03.38-.05.6.07-.18.14-.35.22-.51.08-.16.16-.29.23-.41l4.03-5.96c.06-.09.13-.18.22-.25.09-.08.19-.11.31-.11h.86Z"/>
  </g>
  <line class="cls-8" x1="65" y1="38" x2="150.65" y2="38"/>
</svg>