<?xml version="1.0" encoding="UTF-8"?>
<svg id="Layer_1" data-name="Layer 1" xmlns="http://www.w3.org/2000/svg" width="160" height="62" xmlns:xlink="http://www.w3.org/1999/xlink" viewBox="0 0 160 62">
  <defs>
    <style>
      .cls-1 {
        fill: none;
      }

      .cls-1, .cls-2, .cls-3, .cls-4, .cls-5, .cls-6, .cls-7 {
        stroke-width: 0px;
      }

      .cls-2 {
        fill: url(#_Безымянный_градиент_8);
        opacity: .7;
      }

      .cls-8 {
        clip-path: url(#clippath-4);
      }

      .cls-9 {
        clip-path: url(#clippath-7);
      }

      .cls-10 {
        clip-path: url(#clippath-8);
      }

      .cls-11 {
        clip-path: url(#clippath-6);
      }

      .cls-12 {
        clip-path: url(#clippath-5);
      }

      .cls-13 {
        clip-path: url(#clippath-9);
      }

      .cls-14 {
        clip-path: url(#clippath-10);
      }

      .cls-15 {
        opacity: .6;
      }

      .cls-4 {
        fill: #214b9a;
      }

      .cls-5 {
        fill: #c8c7c7;
      }

      .cls-6 {
        fill: #c1272d;
      }

      .cls-7 {
        fill: #fff;
      }
    </style>
    <linearGradient id="_Безымянный_градиент_8" data-name="Безымянный градиент 8" x1="30" y1="57.74" x2="30" y2="6.88" gradientUnits="userSpaceOnUse">
      <stop offset="0" stop-color="#0071bc"/>
      <stop offset="1" stop-color="#0071bc" stop-opacity="0"/>
    </linearGradient>
    <clipPath id="clippath">
      <polyline class="cls-1" points="160 -18.5 60 -18.5 60 -78.5 160 -78.5 160 -18.5"/>
    </clipPath>
    <clipPath id="clippath-4">
      <polyline class="cls-1" points="160 61 60 61 60 1 160 1 160 61"/>
    </clipPath>
    <clipPath id="clippath-5">
      <polyline class="cls-1" points="0 129 72 129 72 57 0 57 0 129"/>
    </clipPath>
    <clipPath id="clippath-6">
      <polyline class="cls-1" points="72 129 144 129 144 57 72 57 72 129"/>
    </clipPath>
    <clipPath id="clippath-7">
      <polyline class="cls-1" points="144 129 216 129 216 57 144 57 144 129"/>
    </clipPath>
    <clipPath id="clippath-8">
      <polyline class="cls-1" points="0 57 72 57 72 -15 0 -15 0 57"/>
    </clipPath>
    <clipPath id="clippath-9">
      <polyline class="cls-1" points="72 57 144 57 144 -15 72 -15 72 57"/>
    </clipPath>
    <clipPath id="clippath-10">
      <polyline class="cls-1" points="144 57 216 57 216 -15 144 -15 144 57"/>
    </clipPath>
  </defs>
  <g>
    <rect class="cls-4" y="1" width="60" height="60"/>
    <polygon class="cls-2" points="60 17.32 0 61 0 1 60 1 60 17.32"/>
  </g>
  <g>
    <g class="cls-15">
      <g class="cls-8">
        <g class="cls-12">
          <polyline class="cls-5" points="63.24 57 62.82 57 60 59.82 60 60.24 63.24 57"/>
          <polyline class="cls-5" points="69.24 57 68.82 57 64.82 61 65.24 61 69.24 57"/>
          <polyline class="cls-5" points="72 59.82 70.82 61 71.24 61 72 60.24 72 59.82"/>
        </g>
        <g class="cls-11">
          <polyline class="cls-5" points="75.24 57 74.82 57 72 59.82 72 60.24 75.24 57"/>
          <polyline class="cls-5" points="81.24 57 80.82 57 76.82 61 77.24 61 81.24 57"/>
          <polyline class="cls-5" points="87.24 57 86.82 57 82.82 61 83.24 61 87.24 57"/>
          <polyline class="cls-5" points="93.24 57 92.82 57 88.82 61 89.24 61 93.24 57"/>
          <polyline class="cls-5" points="99.24 57 98.82 57 94.82 61 95.24 61 99.24 57"/>
          <polyline class="cls-5" points="105.24 57 104.82 57 100.82 61 101.24 61 105.24 57"/>
          <polyline class="cls-5" points="111.24 57 110.82 57 106.82 61 107.24 61 111.24 57"/>
          <polyline class="cls-5" points="117.24 57 116.82 57 112.82 61 113.24 61 117.24 57"/>
          <polyline class="cls-5" points="123.24 57 122.82 57 118.82 61 119.24 61 123.24 57"/>
          <polyline class="cls-5" points="129.24 57 128.82 57 124.82 61 125.24 61 129.24 57"/>
          <polyline class="cls-5" points="135.24 57 134.82 57 130.82 61 131.24 61 135.24 57"/>
          <polyline class="cls-5" points="141.24 57 140.82 57 136.82 61 137.24 61 141.24 57"/>
          <polyline class="cls-5" points="144 59.82 142.82 61 143.24 61 144 60.24 144 59.82"/>
        </g>
        <g class="cls-9">
          <polyline class="cls-5" points="147.24 57 146.82 57 144 59.82 144 60.24 147.24 57"/>
          <polyline class="cls-5" points="153.24 57 152.82 57 148.82 61 149.24 61 153.24 57"/>
          <polyline class="cls-5" points="159.24 57 158.82 57 154.82 61 155.24 61 159.24 57"/>
        </g>
        <g class="cls-10">
          <polyline class="cls-5" points="65.24 1 64.82 1 60 5.82 60 6.24 65.24 1"/>
          <polyline class="cls-5" points="71.24 1 70.82 1 60 11.82 60 12.24 71.24 1"/>
          <polyline class="cls-5" points="72 5.82 60 17.82 60 18.24 72 6.24 72 5.82"/>
          <polyline class="cls-5" points="72 11.82 60 23.82 60 24.24 72 12.24 72 11.82"/>
          <polyline class="cls-5" points="72 17.82 60 29.82 60 30.24 72 18.24 72 17.82"/>
          <polyline class="cls-5" points="72 23.82 60 35.82 60 36.24 72 24.24 72 23.82"/>
          <polyline class="cls-5" points="72 29.82 60 41.82 60 42.24 72 30.24 72 29.82"/>
          <polyline class="cls-5" points="72 35.82 60 47.82 60 48.24 72 36.24 72 35.82"/>
          <polyline class="cls-5" points="72 41.82 60 53.82 60 54.24 72 42.24 72 41.82"/>
          <polyline class="cls-5" points="72 47.82 62.82 57 63.24 57 72 48.24 72 47.82"/>
          <polyline class="cls-5" points="72 53.82 68.82 57 69.24 57 72 54.24 72 53.82"/>
        </g>
        <g class="cls-13">
          <polyline class="cls-5" points="77.24 1 76.82 1 72 5.82 72 6.24 77.24 1"/>
          <polyline class="cls-5" points="83.24 1 82.82 1 72 11.82 72 12.24 83.24 1"/>
          <polyline class="cls-5" points="89.24 1 88.82 1 72 17.82 72 18.24 89.24 1"/>
          <polyline class="cls-5" points="95.24 1 94.82 1 72 23.82 72 24.24 95.24 1"/>
          <polyline class="cls-5" points="101.24 1 100.82 1 72 29.82 72 30.24 101.24 1"/>
          <polyline class="cls-5" points="107.24 1 106.82 1 72 35.82 72 36.24 107.24 1"/>
          <polyline class="cls-5" points="113.24 1 112.82 1 72 41.82 72 42.24 113.24 1"/>
          <polyline class="cls-5" points="119.24 1 118.82 1 72 47.82 72 48.24 119.24 1"/>
          <polyline class="cls-5" points="125.24 1 124.82 1 72 53.82 72 54.24 125.24 1"/>
          <polyline class="cls-5" points="131.24 1 130.82 1 74.82 57 75.24 57 131.24 1"/>
          <polyline class="cls-5" points="137.24 1 136.82 1 80.82 57 81.24 57 137.24 1"/>
          <polyline class="cls-5" points="143.24 1 142.82 1 86.82 57 87.24 57 143.24 1"/>
          <polyline class="cls-5" points="144 5.82 92.82 57 93.24 57 144 6.24 144 5.82"/>
          <polyline class="cls-5" points="144 11.82 98.82 57 99.24 57 144 12.24 144 11.82"/>
          <polyline class="cls-5" points="144 17.82 104.82 57 105.24 57 144 18.24 144 17.82"/>
          <polyline class="cls-5" points="144 23.82 110.82 57 111.24 57 144 24.24 144 23.82"/>
          <polyline class="cls-5" points="144 29.82 116.82 57 117.24 57 144 30.24 144 29.82"/>
          <polyline class="cls-5" points="144 35.82 122.82 57 123.24 57 144 36.24 144 35.82"/>
          <polyline class="cls-5" points="144 41.82 128.82 57 129.24 57 144 42.24 144 41.82"/>
          <polyline class="cls-5" points="144 47.82 134.82 57 135.24 57 144 48.24 144 47.82"/>
          <polyline class="cls-5" points="144 53.82 140.82 57 141.24 57 144 54.24 144 53.82"/>
        </g>
        <g class="cls-14">
          <polyline class="cls-5" points="149.24 1 148.82 1 144 5.82 144 6.24 149.24 1"/>
          <polyline class="cls-5" points="155.24 1 154.82 1 144 11.82 144 12.24 155.24 1"/>
          <polyline class="cls-5" points="160 1.82 144 17.82 144 18.24 160 2.24 160 1.82"/>
          <polyline class="cls-5" points="160 7.82 144 23.82 144 24.24 160 8.24 160 7.82"/>
          <polyline class="cls-5" points="160 13.82 144 29.82 144 30.24 160 14.24 160 13.82"/>
          <polyline class="cls-5" points="160 19.82 144 35.82 144 36.24 160 20.24 160 19.82"/>
          <polyline class="cls-5" points="160 25.82 144 41.82 144 42.24 160 26.24 160 25.82"/>
          <polyline class="cls-5" points="160 31.82 144 47.82 144 48.24 160 32.24 160 31.82"/>
          <polyline class="cls-5" points="160 37.82 144 53.82 144 54.24 160 38.24 160 37.82"/>
          <polyline class="cls-5" points="160 43.82 146.82 57 147.24 57 160 44.24 160 43.82"/>
          <polyline class="cls-5" points="160 49.82 152.82 57 153.24 57 160 50.24 160 49.82"/>
          <polyline class="cls-5" points="160 55.82 158.82 57 159.24 57 160 56.24 160 55.82"/>
        </g>
      </g>
    </g>
    <polygon class="cls-6" points="160 49.88 160 61 148.9 61 160 49.88"/>
  </g>
  <polygon class="cls-7" points="0 11.12 0 0 11.1 0 0 11.12"/>
  <g>
    <path class="cls-6" d="m68.84,14.92c.53,0,.98.05,1.37.16.38.1.7.25.94.44.25.19.43.43.54.71.12.28.17.59.17.94,0,.21-.03.42-.1.61-.07.19-.17.38-.3.54-.13.17-.3.32-.5.45-.2.13-.44.24-.71.33.63.12,1.11.35,1.43.68.32.33.48.76.48,1.3,0,.36-.07.7-.2,1-.13.3-.33.56-.59.77-.26.22-.58.38-.95.5-.38.12-.8.18-1.28.18h-3.04v-8.6h2.74Zm-1.58.92v2.93h1.54c.33,0,.61-.04.85-.11s.44-.17.6-.3c.16-.13.27-.28.35-.47.08-.18.11-.38.11-.6,0-.51-.15-.88-.46-1.11-.3-.23-.78-.35-1.42-.35h-1.58Zm1.86,6.76c.33,0,.62-.04.86-.11.24-.08.44-.18.59-.32s.27-.3.34-.49c.07-.19.11-.4.11-.63,0-.44-.16-.79-.47-1.05-.32-.26-.79-.39-1.42-.39h-1.86v2.99h1.86Z"/>
    <path class="cls-6" d="m80.7,14.92v8.6h-1.16v-6.11c0-.17,0-.35.01-.54,0-.19.03-.38.05-.59-.07.18-.14.35-.22.5-.08.16-.15.29-.23.41l-4.03,5.96c-.06.09-.13.18-.22.25s-.19.11-.31.11h-.86v-8.6h1.16v6.11c0,.17,0,.35-.01.54,0,.19-.03.38-.05.6.07-.18.14-.35.22-.51s.15-.29.23-.41l4.03-5.96c.06-.09.13-.18.22-.25.09-.08.19-.11.31-.11h.86Z"/>
    <path class="cls-6" d="m90.82,22.61v2.66c0,.1-.03.19-.1.25-.07.06-.16.1-.27.1h-.69v-2.09h-6.93v1.75c0,.1-.04.19-.11.25-.07.06-.16.1-.27.1h-.7v-3.01h.88c.12-.06.25-.16.37-.29.12-.13.24-.33.36-.58s.22-.57.32-.95c.1-.38.19-.84.27-1.4.08-.55.15-1.19.21-1.93.06-.74.11-1.59.14-2.55h5.11v7.69h1.4Zm-2.57,0v-6.77h-2.84c-.05.98-.12,1.84-.2,2.58s-.19,1.38-.31,1.93c-.12.54-.25,1-.4,1.37-.15.37-.31.67-.48.9h4.24Z"/>
    <path class="cls-6" d="m97.39,22.57v.95h-5.3v-8.6h5.3v.95h-4.13v2.86h3.35v.91h-3.35v2.93h4.14Z"/>
    <path class="cls-6" d="m106.66,19.23c0,.64-.1,1.23-.31,1.77-.2.54-.49,1-.86,1.39-.37.39-.82.69-1.34.9-.52.21-1.1.32-1.73.32s-1.21-.11-1.73-.32c-.52-.21-.97-.52-1.34-.9-.37-.39-.66-.85-.86-1.39s-.31-1.13-.31-1.77.1-1.24.31-1.77.49-1,.86-1.39c.37-.39.82-.69,1.34-.91.52-.22,1.1-.32,1.73-.32s1.21.11,1.73.32c.52.22.97.52,1.34.91.37.39.66.85.86,1.39.2.54.31,1.13.31,1.77Zm-1.19,0c0-.53-.07-1-.22-1.42-.14-.42-.35-.78-.61-1.07-.26-.29-.58-.51-.96-.67s-.8-.23-1.26-.23-.88.08-1.25.23-.7.38-.96.67c-.27.29-.47.65-.62,1.07-.14.42-.22.89-.22,1.42s.07,1,.22,1.42.35.77.62,1.06c.27.29.59.51.96.67s.79.23,1.25.23.88-.08,1.26-.23.7-.38.96-.67c.26-.29.47-.64.61-1.06.14-.42.22-.89.22-1.42Z"/>
    <path class="cls-6" d="m107.85,18.93h2.96v.91h-2.96v-.91Z"/>
    <path class="cls-6" d="m71.91,28.9h-2.78v7.62h-1.16v-7.62h-2.79v-.98h6.73v.98Z"/>
    <path class="cls-6" d="m75.6,27.92c.54,0,1.02.06,1.42.19.4.12.73.3,1,.54.26.23.46.51.59.84s.19.69.19,1.1-.07.77-.21,1.1-.34.62-.61.86c-.27.24-.6.43-1,.56-.4.13-.86.2-1.38.2h-1.38v3.21h-1.16v-8.6h2.54Zm0,4.46c.33,0,.62-.04.88-.13.25-.09.47-.21.64-.37.17-.16.3-.35.39-.57.09-.22.13-.46.13-.73,0-.55-.17-.98-.51-1.28-.34-.31-.85-.46-1.54-.46h-1.38v3.54h1.38Z"/>
    <path class="cls-6" d="m86.54,36.52h-.9c-.1,0-.19-.03-.25-.08-.06-.05-.11-.12-.14-.2l-.8-2.08h-3.86l-.8,2.08c-.02.07-.07.14-.14.19-.07.06-.15.08-.26.08h-.89l3.44-8.6h1.18l3.44,8.6Zm-2.42-3.19l-1.35-3.5c-.04-.1-.08-.22-.13-.36-.04-.14-.09-.29-.13-.44-.08.32-.17.59-.26.81l-1.35,3.49h3.21Z"/>
    <path class="cls-6" d="m94.51,27.92v8.6h-1.16v-3.91h-4.64v3.91h-1.16v-8.6h1.16v3.83h4.64v-3.83h1.16Z"/>
    <path class="cls-6" d="m102.62,34.75c.06,0,.12.03.17.08l.46.5c-.35.41-.78.73-1.28.95-.5.23-1.11.34-1.82.34-.62,0-1.18-.11-1.68-.32-.5-.21-.93-.51-1.29-.9-.36-.38-.63-.85-.83-1.39-.2-.54-.29-1.13-.29-1.78s.1-1.24.31-1.78c.2-.54.49-1,.86-1.39.37-.39.81-.69,1.33-.9.52-.21,1.09-.32,1.71-.32s1.15.1,1.62.29.88.46,1.24.8l-.38.53s-.06.07-.09.1c-.04.03-.09.04-.15.04-.07,0-.16-.04-.26-.12-.1-.08-.24-.16-.41-.26-.17-.1-.38-.18-.63-.26s-.56-.12-.93-.12c-.44,0-.85.08-1.22.23-.37.15-.68.38-.95.67-.27.29-.47.65-.62,1.07-.15.42-.22.89-.22,1.42s.08,1.01.23,1.43c.15.42.36.78.63,1.06.27.29.58.51.94.66.36.15.75.23,1.17.23.26,0,.49-.01.69-.05.21-.03.4-.08.57-.14.17-.06.34-.14.49-.24.15-.1.3-.21.45-.35.07-.06.14-.09.2-.09Z"/>
    <path class="cls-6" d="m111.06,36.52h-1.16v-7.68h-2.84c-.06,1.1-.13,2.06-.22,2.87-.09.81-.21,1.51-.34,2.08-.13.58-.29,1.04-.46,1.41-.17.36-.36.65-.56.86-.2.21-.42.35-.65.43-.23.08-.48.11-.74.11-.22,0-.38-.02-.5-.06s-.17-.09-.17-.17v-.74h.42c.16,0,.32-.03.47-.09s.31-.19.45-.38.28-.46.41-.8c.13-.35.24-.81.35-1.38.1-.57.19-1.27.27-2.1.08-.83.13-1.81.17-2.96h5.11v8.6Z"/>
    <path class="cls-6" d="m118.92,36.52h-1.16v-3.7h-1.17c-.11,0-.21,0-.3.03-.09.02-.18.05-.27.1-.09.05-.18.11-.26.2s-.18.19-.26.32l-1.87,2.65c-.07.13-.17.23-.29.3-.12.07-.27.11-.44.11h-.88l2.23-3.14c.24-.35.52-.6.85-.75-.34-.06-.64-.16-.9-.3-.26-.14-.47-.3-.64-.5s-.3-.42-.38-.66-.13-.52-.13-.8c0-.37.07-.7.2-1s.33-.56.59-.77c.26-.21.57-.38.95-.5.37-.12.8-.18,1.28-.18h2.86v8.6Zm-1.16-4.62v-3.05h-1.7c-.33,0-.62.04-.85.11-.24.07-.43.17-.58.31-.15.13-.26.29-.33.48s-.1.39-.1.62c0,.24.03.45.1.64s.18.35.33.48c.15.13.34.23.58.3s.52.11.85.11h1.7Z"/>
    <path class="cls-6" d="m128.94,35.61v2.66c0,.1-.04.19-.11.25-.07.06-.16.1-.27.1h-.7v-2.09h-6.88v-8.6h1.16v7.69h4.3v-7.69h1.17v7.69h1.31Z"/>
    <path class="cls-6" d="m137.2,27.92v8.6h-1.16v-6.11c0-.17,0-.35.01-.54s.03-.38.05-.59c-.07.18-.14.35-.22.5-.08.16-.15.29-.23.41l-4.03,5.96c-.06.09-.13.18-.22.25s-.19.11-.31.11h-.86v-8.6h1.16v6.11c0,.17,0,.35-.01.54,0,.19-.03.38-.05.6.07-.18.14-.35.22-.51s.16-.29.23-.41l4.03-5.96c.06-.09.13-.18.22-.25.09-.08.19-.11.31-.11h.86Z"/>
    <path class="cls-6" d="m146.24,27.92v8.6h-1.16v-6.11c0-.17,0-.35.01-.54s.03-.38.05-.59c-.07.18-.14.35-.22.5-.08.16-.15.29-.23.41l-4.03,5.96c-.06.09-.13.18-.22.25s-.19.11-.31.11h-.86v-8.6h1.16v6.11c0,.17,0,.35-.01.54,0,.19-.03.38-.05.6.07-.18.14-.35.22-.51s.16-.29.23-.41l4.03-5.96c.06-.09.13-.18.22-.25.09-.08.19-.11.31-.11h.86Z"/>
    <path class="cls-3" d="m73.37,42.36v7.16h-.85v-5.26c0-.07,0-.15,0-.23,0-.08.01-.16.02-.24l-2.46,4.48c-.08.15-.19.22-.35.22h-.14c-.16,0-.27-.08-.35-.22l-2.51-4.5c.02.18.03.34.03.49v5.26h-.85v-7.16h.71c.09,0,.15,0,.2.02.05.02.09.06.13.14l2.48,4.41c.04.08.08.16.12.25.04.09.07.18.11.27.03-.09.07-.18.1-.27s.08-.17.12-.25l2.43-4.41c.04-.08.08-.12.13-.14s.12-.02.2-.02h.72Z"/>
    <path class="cls-3" d="m79.82,48.73v.79h-4.42v-7.16h4.42v.79h-3.45v2.38h2.79v.76h-2.79v2.45h3.45Z"/>
    <path class="cls-3" d="m83.49,42.36c.45,0,.85.05,1.18.16s.61.25.83.45c.22.19.38.43.49.7s.16.58.16.92-.06.64-.17.92c-.12.28-.29.51-.51.71-.22.2-.5.36-.83.47-.33.11-.71.17-1.15.17h-1.15v2.68h-.96v-7.16h2.12Zm0,3.71c.28,0,.52-.04.73-.11s.39-.18.54-.31c.14-.13.25-.29.33-.47s.11-.38.11-.6c0-.46-.14-.81-.42-1.07-.28-.26-.71-.38-1.28-.38h-1.15v2.95h1.15Z"/>
    <path class="cls-3" d="m94.2,45.94c0,.54-.08,1.03-.25,1.48-.17.45-.41.83-.72,1.16-.31.32-.68.57-1.12.75-.43.18-.92.27-1.44.27s-1.01-.09-1.44-.27c-.43-.18-.81-.43-1.12-.75-.31-.32-.55-.71-.72-1.16-.17-.45-.25-.94-.25-1.48s.08-1.03.25-1.48c.17-.45.41-.84.72-1.16.31-.33.68-.58,1.12-.76.43-.18.91-.27,1.44-.27s1.01.09,1.44.27c.44.18.81.43,1.12.76.31.32.55.71.72,1.16.17.45.25.94.25,1.48Zm-1,0c0-.44-.06-.83-.18-1.18s-.29-.65-.51-.89c-.22-.24-.49-.43-.8-.56-.31-.13-.66-.2-1.05-.2s-.73.06-1.04.2c-.31.13-.58.32-.8.56-.22.24-.39.54-.51.89-.12.35-.18.75-.18,1.18s.06.83.18,1.18c.12.35.29.64.51.88.22.24.49.43.8.55s.66.19,1.04.19.74-.06,1.05-.19c.31-.13.58-.31.8-.55.22-.24.39-.54.51-.88.12-.35.18-.74.18-1.18Z"/>
    <path class="cls-3" d="m101.31,49.52h-.97v-6.4h-3.58v6.4h-.97v-7.16h5.52v7.16Z"/>
    <path class="cls-3" d="m105.46,42.36c.45,0,.85.05,1.18.16s.61.25.83.45c.22.19.38.43.49.7.11.27.16.58.16.92s-.06.64-.17.92c-.12.28-.29.51-.51.71-.22.2-.5.36-.83.47-.33.11-.71.17-1.15.17h-1.15v2.68h-.96v-7.16h2.12Zm0,3.71c.28,0,.52-.04.73-.11s.39-.18.54-.31c.14-.13.25-.29.33-.47s.11-.38.11-.6c0-.46-.14-.81-.42-1.07-.28-.26-.71-.38-1.28-.38h-1.15v2.95h1.15Z"/>
    <path class="cls-3" d="m115.35,42.36v7.16h-.97v-5.09c0-.14,0-.29,0-.45,0-.15.02-.32.04-.49-.06.15-.12.29-.18.42-.06.13-.13.24-.2.34l-3.36,4.96c-.05.08-.11.15-.18.21s-.16.09-.25.09h-.72v-7.16h.97v5.09c0,.14,0,.29,0,.45s-.02.32-.04.5c.06-.15.12-.29.18-.42.06-.13.13-.25.19-.35l3.36-4.96c.05-.08.11-.15.18-.21s.16-.09.25-.09h.72Z"/>
    <path class="cls-3" d="m122.2,49.52h-.97v-3.08h-.97c-.09,0-.17,0-.25.02-.08.02-.15.04-.23.08-.07.04-.15.09-.22.16s-.15.16-.22.26l-1.55,2.21c-.06.11-.14.19-.25.25-.1.06-.23.09-.37.09h-.73l1.85-2.62c.2-.29.43-.5.71-.62-.29-.05-.54-.14-.75-.25-.21-.11-.39-.25-.53-.41-.14-.16-.25-.35-.32-.55-.07-.21-.11-.43-.11-.67,0-.31.06-.58.17-.83.11-.25.27-.46.49-.64.21-.18.48-.32.79-.42.31-.1.67-.15,1.07-.15h2.39v7.16Zm-.97-3.85v-2.54h-1.42c-.28,0-.51.03-.71.09-.2.06-.36.15-.48.26-.13.11-.22.24-.28.4-.06.15-.09.33-.09.52s.03.38.09.54c.06.16.15.29.27.4s.29.19.49.25c.2.06.44.09.71.09h1.42Z"/>
    <path class="cls-3" d="m129.08,43.17h-2.32v6.35h-.97v-6.35h-2.32v-.81h5.61v.81Z"/>
    <path class="cls-3" d="m136.14,42.36v7.16h-.97v-5.09c0-.14,0-.29,0-.45,0-.15.02-.32.04-.49-.06.15-.12.29-.18.42-.06.13-.13.24-.2.34l-3.36,4.96c-.05.08-.11.15-.18.21s-.16.09-.25.09h-.72v-7.16h.97v5.09c0,.14,0,.29,0,.45s-.02.32-.04.5c.06-.15.12-.29.18-.42.06-.13.13-.25.19-.35l3.36-4.96c.05-.08.11-.15.18-.21s.16-.09.25-.09h.72Z"/>
    <path class="cls-3" d="m143.97,42.36v7.16h-.97v-5.09c0-.14,0-.29,0-.45,0-.15.02-.32.04-.49-.06.15-.12.29-.18.42-.06.13-.13.24-.2.34l-3.36,4.96c-.05.08-.11.15-.18.21s-.16.09-.25.09h-.72v-7.16h.97v5.09c0,.14,0,.29,0,.45s-.02.32-.04.5c.06-.15.12-.29.18-.42.06-.13.13-.25.19-.35l3.36-4.96c.05-.08.11-.15.18-.21s.16-.09.25-.09h.72Zm-2.88-.93c.14,0,.25-.01.34-.04.09-.03.17-.08.23-.14.06-.07.1-.15.13-.26s.04-.24.04-.4h.52c.06,0,.11.03.15.08.03.05.05.12.05.19,0,.33-.13.59-.38.77s-.61.27-1.07.27-.81-.09-1.07-.27c-.26-.18-.38-.44-.38-.77,0-.07.02-.13.05-.19.03-.06.08-.08.15-.08h.52c0,.16.01.29.04.4.03.11.07.2.13.26s.13.12.23.14c.09.03.21.04.34.04Z"/>
  </g>
  <path class="cls-7" d="m50.45,14.91c-1.39-1.46-4.37-2.19-8.92-2.19h-22.58c-4.55,0-7.53.73-8.92,2.19-1.39,1.46-2.09,4.58-2.09,9.37v13.42c0,4.79.7,7.92,2.09,9.39,1.39,1.47,4.37,2.2,8.92,2.2h22.58c4.55,0,7.53-.73,8.92-2.2,1.39-1.47,2.09-4.6,2.09-9.39v-13.42c0-4.79-.7-7.92-2.09-9.37Zm-28.84,29.17v-26.15l21.51,13.08-21.51,13.07Z"/>
</svg>