<?xml version="1.0" encoding="UTF-8"?>
<svg id="Layer_1" data-name="Layer 1" xmlns="http://www.w3.org/2000/svg" width="160" height="62" xmlns:xlink="http://www.w3.org/1999/xlink" viewBox="0 0 160 62">
  <defs>
    <style>
      .cls-1 {
        clip-path: url(#clippath);
      }

      .cls-2 {
        fill: none;
      }

      .cls-2, .cls-3, .cls-4, .cls-5, .cls-6, .cls-7 {
        stroke-width: 0px;
      }

      .cls-3 {
        fill: url(#_Безымянный_градиент_8);
        opacity: .7;
      }

      .cls-8 {
        clip-path: url(#clippath-1);
      }

      .cls-9 {
        clip-path: url(#clippath-4);
      }

      .cls-10 {
        clip-path: url(#clippath-3);
      }

      .cls-11 {
        clip-path: url(#clippath-2);
      }

      .cls-12 {
        clip-path: url(#clippath-6);
      }

      .cls-13 {
        clip-path: url(#clippath-5);
      }

      .cls-14 {
        opacity: .6;
      }

      .cls-4 {
        fill: #214b9a;
      }

      .cls-5 {
        fill: #c8c7c7;
      }

      .cls-6 {
        fill: #c1272d;
      }

      .cls-7 {
        fill: #fff;
      }
    </style>
    <linearGradient id="_Безымянный_градиент_8" data-name="Безымянный градиент 8" x1="30" y1="57.74" x2="30" y2="6.88" gradientUnits="userSpaceOnUse">
      <stop offset="0" stop-color="#0071bc"/>
      <stop offset="1" stop-color="#0071bc" stop-opacity="0"/>
    </linearGradient>
    <clipPath id="clippath">
      <polyline class="cls-2" points="160 61 60 61 60 1 160 1 160 61"/>
    </clipPath>
    <clipPath id="clippath-1">
      <polyline class="cls-2" points="0 129 72 129 72 57 0 57 0 129"/>
    </clipPath>
    <clipPath id="clippath-2">
      <polyline class="cls-2" points="72 129 144 129 144 57 72 57 72 129"/>
    </clipPath>
    <clipPath id="clippath-3">
      <polyline class="cls-2" points="144 129 216 129 216 57 144 57 144 129"/>
    </clipPath>
    <clipPath id="clippath-4">
      <polyline class="cls-2" points="0 57 72 57 72 -15 0 -15 0 57"/>
    </clipPath>
    <clipPath id="clippath-5">
      <polyline class="cls-2" points="72 57 144 57 144 -15 72 -15 72 57"/>
    </clipPath>
    <clipPath id="clippath-6">
      <polyline class="cls-2" points="144 57 216 57 216 -15 144 -15 144 57"/>
    </clipPath>
  </defs>
  <g>
    <rect class="cls-4" y="1" width="60" height="60"/>
    <polygon class="cls-3" points="60 17.32 0 61 0 1 60 1 60 17.32"/>
  </g>
  <path class="cls-7" d="m-1.94-1.31h63.88V63.31H-1.94V-1.31Zm43.2,43.72v18.67h18.73v-18.67h-18.73Zm0-9.9v8.55h18.73v-18.39l-14.46,13.92-4.27-4.08Zm0-31.58v18.61h17.23l1.51-1.45V.92h-18.73Zm0,19.96v7.05l4.27,4.08,11.55-11.12h-15.82Zm-21.26,21.52v18.67h20.09v-18.67h-20.09Zm1.07-1.34h19.03v-9.67l-5.39-5.14-13.64,14.82Zm-1.07-20.18v16.6l14.61-15.93,5.48,5.25v-5.93h-20.09Zm0-19.96v18.61h20.09V.92h-20.09ZM0,42.4v18.67h18.83v-17.55l-4.66,5.09-6.26-6.21H0ZM0,20.88v9.11l11.21,11.07h5.49l2.13-2.29v-17.89H0ZM0,.92v18.61h18.83V.92H0Zm12.57,41.48l1.5,1.51,1.41-1.51h-2.91ZM0,34.58v6.49h6.55L0,34.58Z"/>
  <g class="cls-14">
    <g class="cls-1">
      <g class="cls-8">
        <polyline class="cls-5" points="63.24 57 62.82 57 60 59.82 60 60.24 63.24 57"/>
        <polyline class="cls-5" points="69.24 57 68.82 57 64.82 61 65.24 61 69.24 57"/>
        <polyline class="cls-5" points="72 59.82 70.82 61 71.24 61 72 60.24 72 59.82"/>
      </g>
      <g class="cls-11">
        <polyline class="cls-5" points="75.24 57 74.82 57 72 59.82 72 60.24 75.24 57"/>
        <polyline class="cls-5" points="81.24 57 80.82 57 76.82 61 77.24 61 81.24 57"/>
        <polyline class="cls-5" points="87.24 57 86.82 57 82.82 61 83.24 61 87.24 57"/>
        <polyline class="cls-5" points="93.24 57 92.82 57 88.82 61 89.24 61 93.24 57"/>
        <polyline class="cls-5" points="99.24 57 98.82 57 94.82 61 95.24 61 99.24 57"/>
        <polyline class="cls-5" points="105.24 57 104.82 57 100.82 61 101.24 61 105.24 57"/>
        <polyline class="cls-5" points="111.24 57 110.82 57 106.82 61 107.24 61 111.24 57"/>
        <polyline class="cls-5" points="117.24 57 116.82 57 112.82 61 113.24 61 117.24 57"/>
        <polyline class="cls-5" points="123.24 57 122.82 57 118.82 61 119.24 61 123.24 57"/>
        <polyline class="cls-5" points="129.24 57 128.82 57 124.82 61 125.24 61 129.24 57"/>
        <polyline class="cls-5" points="135.24 57 134.82 57 130.82 61 131.24 61 135.24 57"/>
        <polyline class="cls-5" points="141.24 57 140.82 57 136.82 61 137.24 61 141.24 57"/>
        <polyline class="cls-5" points="144 59.82 142.82 61 143.24 61 144 60.24 144 59.82"/>
      </g>
      <g class="cls-10">
        <polyline class="cls-5" points="147.24 57 146.82 57 144 59.82 144 60.24 147.24 57"/>
        <polyline class="cls-5" points="153.24 57 152.82 57 148.82 61 149.24 61 153.24 57"/>
        <polyline class="cls-5" points="159.24 57 158.82 57 154.82 61 155.24 61 159.24 57"/>
      </g>
      <g class="cls-9">
        <polyline class="cls-5" points="65.24 1 64.82 1 60 5.82 60 6.24 65.24 1"/>
        <polyline class="cls-5" points="71.24 1 70.82 1 60 11.82 60 12.24 71.24 1"/>
        <polyline class="cls-5" points="72 5.82 60 17.82 60 18.24 72 6.24 72 5.82"/>
        <polyline class="cls-5" points="72 11.82 60 23.82 60 24.24 72 12.24 72 11.82"/>
        <polyline class="cls-5" points="72 17.82 60 29.82 60 30.24 72 18.24 72 17.82"/>
        <polyline class="cls-5" points="72 23.82 60 35.82 60 36.24 72 24.24 72 23.82"/>
        <polyline class="cls-5" points="72 29.82 60 41.82 60 42.24 72 30.24 72 29.82"/>
        <polyline class="cls-5" points="72 35.82 60 47.82 60 48.24 72 36.24 72 35.82"/>
        <polyline class="cls-5" points="72 41.82 60 53.82 60 54.24 72 42.24 72 41.82"/>
        <polyline class="cls-5" points="72 47.82 62.82 57 63.24 57 72 48.24 72 47.82"/>
        <polyline class="cls-5" points="72 53.82 68.82 57 69.24 57 72 54.24 72 53.82"/>
      </g>
      <g class="cls-13">
        <polyline class="cls-5" points="77.24 1 76.82 1 72 5.82 72 6.24 77.24 1"/>
        <polyline class="cls-5" points="83.24 1 82.82 1 72 11.82 72 12.24 83.24 1"/>
        <polyline class="cls-5" points="89.24 1 88.82 1 72 17.82 72 18.24 89.24 1"/>
        <polyline class="cls-5" points="95.24 1 94.82 1 72 23.82 72 24.24 95.24 1"/>
        <polyline class="cls-5" points="101.24 1 100.82 1 72 29.82 72 30.24 101.24 1"/>
        <polyline class="cls-5" points="107.24 1 106.82 1 72 35.82 72 36.24 107.24 1"/>
        <polyline class="cls-5" points="113.24 1 112.82 1 72 41.82 72 42.24 113.24 1"/>
        <polyline class="cls-5" points="119.24 1 118.82 1 72 47.82 72 48.24 119.24 1"/>
        <polyline class="cls-5" points="125.24 1 124.82 1 72 53.82 72 54.24 125.24 1"/>
        <polyline class="cls-5" points="131.24 1 130.82 1 74.82 57 75.24 57 131.24 1"/>
        <polyline class="cls-5" points="137.24 1 136.82 1 80.82 57 81.24 57 137.24 1"/>
        <polyline class="cls-5" points="143.24 1 142.82 1 86.82 57 87.24 57 143.24 1"/>
        <polyline class="cls-5" points="144 5.82 92.82 57 93.24 57 144 6.24 144 5.82"/>
        <polyline class="cls-5" points="144 11.82 98.82 57 99.24 57 144 12.24 144 11.82"/>
        <polyline class="cls-5" points="144 17.82 104.82 57 105.24 57 144 18.24 144 17.82"/>
        <polyline class="cls-5" points="144 23.82 110.82 57 111.24 57 144 24.24 144 23.82"/>
        <polyline class="cls-5" points="144 29.82 116.82 57 117.24 57 144 30.24 144 29.82"/>
        <polyline class="cls-5" points="144 35.82 122.82 57 123.24 57 144 36.24 144 35.82"/>
        <polyline class="cls-5" points="144 41.82 128.82 57 129.24 57 144 42.24 144 41.82"/>
        <polyline class="cls-5" points="144 47.82 134.82 57 135.24 57 144 48.24 144 47.82"/>
        <polyline class="cls-5" points="144 53.82 140.82 57 141.24 57 144 54.24 144 53.82"/>
      </g>
      <g class="cls-12">
        <polyline class="cls-5" points="149.24 1 148.82 1 144 5.82 144 6.24 149.24 1"/>
        <polyline class="cls-5" points="155.24 1 154.82 1 144 11.82 144 12.24 155.24 1"/>
        <polyline class="cls-5" points="160 1.82 144 17.82 144 18.24 160 2.24 160 1.82"/>
        <polyline class="cls-5" points="160 7.82 144 23.82 144 24.24 160 8.24 160 7.82"/>
        <polyline class="cls-5" points="160 13.82 144 29.82 144 30.24 160 14.24 160 13.82"/>
        <polyline class="cls-5" points="160 19.82 144 35.82 144 36.24 160 20.24 160 19.82"/>
        <polyline class="cls-5" points="160 25.82 144 41.82 144 42.24 160 26.24 160 25.82"/>
        <polyline class="cls-5" points="160 31.82 144 47.82 144 48.24 160 32.24 160 31.82"/>
        <polyline class="cls-5" points="160 37.82 144 53.82 144 54.24 160 38.24 160 37.82"/>
        <polyline class="cls-5" points="160 43.82 146.82 57 147.24 57 160 44.24 160 43.82"/>
        <polyline class="cls-5" points="160 49.82 152.82 57 153.24 57 160 50.24 160 49.82"/>
        <polyline class="cls-5" points="160 55.82 158.82 57 159.24 57 160 56.24 160 55.82"/>
      </g>
    </g>
  </g>
  <polygon class="cls-6" points="160 49.88 160 61 148.9 61 160 49.88"/>
  <polygon class="cls-7" points="0 11.12 0 0 11.1 0 0 11.12"/>
  <g>
    <path class="cls-6" d="m72.73,29.84h-1.17v-7.68h-4.3v7.68h-1.16v-8.6h6.63v8.6Z"/>
    <path class="cls-6" d="m82.75,25.54c0,.64-.1,1.23-.31,1.77s-.49,1-.86,1.39c-.37.39-.82.69-1.34.9-.52.21-1.1.32-1.73.32s-1.21-.11-1.73-.32-.97-.52-1.34-.9c-.37-.39-.66-.85-.86-1.39s-.31-1.13-.31-1.77.1-1.23.31-1.77.49-1,.86-1.39.82-.69,1.34-.91c.52-.22,1.1-.32,1.73-.32s1.21.11,1.73.32c.52.22.97.52,1.34.91s.66.85.86,1.39.31,1.13.31,1.77Zm-1.19,0c0-.53-.07-1-.22-1.42-.14-.42-.35-.78-.61-1.07-.26-.29-.58-.51-.96-.67-.38-.16-.8-.23-1.26-.23s-.88.08-1.25.23c-.38.16-.7.38-.96.67-.27.29-.47.65-.62,1.07-.14.42-.22.89-.22,1.42s.07,1,.22,1.42c.14.42.35.77.62,1.06s.59.51.96.67.79.23,1.25.23.88-.08,1.26-.23.7-.38.96-.67.47-.64.61-1.06.22-.89.22-1.42Z"/>
    <path class="cls-6" d="m90.56,29.84h-1.16v-7.68h-2.84c-.06,1.1-.13,2.06-.22,2.87s-.21,1.51-.34,2.08c-.13.58-.29,1.04-.46,1.41-.17.36-.36.65-.56.85-.2.21-.42.35-.65.43-.23.08-.48.11-.74.11-.22,0-.38-.02-.5-.06s-.17-.09-.17-.17v-.74h.42c.16,0,.32-.03.47-.09.16-.06.31-.19.45-.38.14-.19.28-.46.41-.8.13-.35.24-.81.35-1.38.1-.57.19-1.27.27-2.1.08-.83.13-1.81.17-2.96h5.11v8.6Z"/>
    <path class="cls-6" d="m100.58,25.54c0,.64-.1,1.23-.31,1.77s-.49,1-.86,1.39c-.37.39-.82.69-1.34.9-.52.21-1.1.32-1.73.32s-1.21-.11-1.73-.32c-.52-.21-.97-.52-1.34-.9-.37-.39-.66-.85-.86-1.39s-.31-1.13-.31-1.77.1-1.23.31-1.77.49-1,.86-1.39.82-.69,1.34-.91c.52-.22,1.1-.32,1.73-.32s1.21.11,1.73.32c.52.22.97.52,1.34.91s.66.85.86,1.39.31,1.13.31,1.77Zm-1.19,0c0-.53-.07-1-.22-1.42-.14-.42-.35-.78-.61-1.07-.26-.29-.58-.51-.96-.67-.38-.16-.8-.23-1.26-.23s-.88.08-1.25.23c-.38.16-.7.38-.96.67-.27.29-.47.65-.62,1.07-.14.42-.22.89-.22,1.42s.07,1,.22,1.42c.14.42.35.77.62,1.06s.59.51.96.67.79.23,1.25.23.88-.08,1.26-.23.7-.38.96-.67c.26-.29.47-.64.61-1.06.14-.42.22-.89.22-1.42Z"/>
    <path class="cls-6" d="m112.99,29.84h-.77c-.17,0-.31-.04-.44-.11-.12-.07-.22-.18-.3-.3l-2.18-3.05c-.11-.17-.23-.29-.37-.36-.14-.07-.31-.11-.52-.11h-1v3.94h-1.1v-3.94h-.99c-.22,0-.39.04-.53.11-.14.07-.26.2-.37.36l-2.18,3.05c-.07.13-.17.23-.29.3-.12.07-.27.11-.44.11h-.78l2.56-3.73c.13-.21.27-.37.42-.5.15-.12.32-.22.52-.28-.17-.06-.32-.14-.44-.25s-.24-.25-.35-.41l-2.5-3.44h.91c.12,0,.24.03.34.09.1.06.19.15.25.25l2.15,2.98c.12.18.25.29.39.35.14.06.3.09.48.09h.85v-3.77h1.1v3.77h.86c.18,0,.34-.03.47-.09.14-.06.27-.17.4-.35l2.15-2.98c.06-.11.15-.19.25-.25.1-.06.22-.09.34-.09h.91l-2.51,3.44c-.11.17-.23.31-.35.41s-.26.19-.43.25c.19.06.36.16.52.28.15.12.29.29.42.5l2.55,3.73Z"/>
    <path class="cls-6" d="m119.38,28.89v.95h-5.3v-8.6h5.3v.95h-4.13v2.86h3.35v.91h-3.35v2.93h4.14Z"/>
    <path class="cls-6" d="m127.85,21.24v8.6h-1.16v-3.91h-4.64v3.91h-1.16v-8.6h1.16v3.83h4.64v-3.83h1.16Z"/>
    <path class="cls-6" d="m136.89,21.24v8.6h-1.16v-6.11c0-.17,0-.35.01-.54s.03-.38.05-.59c-.07.18-.14.35-.22.5-.08.16-.15.29-.23.41l-4.03,5.96c-.06.09-.13.18-.22.25-.09.08-.19.11-.31.11h-.86v-8.6h1.16v6.11c0,.17,0,.35-.01.54,0,.19-.03.38-.05.6.07-.18.14-.35.22-.51.08-.16.16-.29.23-.41l4.03-5.96c.06-.09.13-.18.22-.25.09-.08.19-.11.31-.11h.86Z"/>
    <path class="cls-6" d="m144.27,28.89v.95h-5.3v-8.6h5.3v.95h-4.13v2.86h3.35v.91h-3.35v2.93h4.14Z"/>
    <path class="cls-6" d="m74.04,38.54c0,.64-.1,1.23-.31,1.77-.2.54-.49,1-.86,1.39-.37.39-.82.69-1.34.9-.52.21-1.1.32-1.73.32s-1.21-.11-1.73-.32-.97-.52-1.34-.9c-.37-.39-.66-.85-.86-1.39s-.31-1.13-.31-1.77.1-1.23.31-1.77.49-1,.86-1.39.82-.69,1.34-.91c.52-.22,1.1-.32,1.73-.32s1.21.11,1.73.32c.52.22.97.52,1.34.91s.66.85.86,1.39c.2.54.31,1.13.31,1.77Zm-1.19,0c0-.53-.07-1-.22-1.42-.14-.42-.35-.78-.61-1.07-.26-.29-.58-.51-.96-.67-.38-.16-.8-.23-1.26-.23s-.88.08-1.25.23c-.38.16-.7.38-.96.67-.27.29-.47.65-.62,1.07-.14.42-.22.89-.22,1.42s.07,1,.22,1.42c.14.42.35.77.62,1.06s.59.51.96.67.79.23,1.25.23.88-.08,1.26-.23.7-.38.96-.67.47-.64.61-1.06.22-.89.22-1.42Z"/>
    <path class="cls-6" d="m85.5,34.24v8.6h-1.16v-3.91h-4.64v3.91h-1.16v-8.6h1.16v3.83h4.64v-3.83h1.16Z"/>
    <path class="cls-6" d="m86.95,35.24c.36-.34.77-.6,1.24-.8s1.01-.29,1.62-.29,1.19.11,1.71.32.96.52,1.33.9c.37.39.66.85.86,1.39.2.54.31,1.13.31,1.78s-.1,1.24-.29,1.78c-.2.54-.47,1-.83,1.39-.36.39-.79.69-1.29.9-.5.21-1.06.32-1.68.32-.71,0-1.32-.11-1.82-.34s-.93-.55-1.28-.95l.46-.5c.05-.05.1-.08.17-.08.07,0,.14.03.2.09.15.14.3.25.45.35s.31.18.49.24c.17.06.36.11.57.14.2.03.44.05.7.05.4,0,.77-.07,1.11-.2.34-.14.65-.33.91-.59.26-.26.48-.57.64-.95s.26-.8.3-1.28h-4.34v-.88h4.33c-.05-.45-.16-.85-.32-1.21s-.38-.65-.64-.9c-.26-.25-.56-.43-.91-.56-.34-.13-.72-.19-1.12-.19-.37,0-.68.04-.93.12-.25.08-.46.17-.63.26-.17.1-.3.18-.41.26-.1.08-.19.12-.26.12-.06,0-.11-.01-.15-.04-.04-.03-.07-.06-.09-.1l-.38-.53Z"/>
    <path class="cls-6" d="m98.4,37.94c.52,0,.98.06,1.36.17.38.11.69.27.94.48s.43.45.55.74c.12.28.18.59.18.93,0,.4-.07.75-.2,1.07-.13.32-.33.59-.59.81-.26.22-.58.4-.95.52-.38.12-.8.18-1.28.18h-2.83v-8.6h5.56v.92h-4.4v2.78h1.67Zm0,3.97c.33,0,.62-.04.86-.11.24-.08.43-.18.58-.31.15-.13.26-.3.33-.49.07-.19.1-.4.1-.63,0-.24-.04-.45-.1-.64-.07-.19-.18-.34-.33-.47-.15-.13-.34-.23-.58-.29-.24-.07-.52-.1-.85-.1h-1.67v3.05h1.67Z"/>
  </g>
</svg>